%
M48
M72
T01C0.0118
T02C0.0236
T03C0.0315
T04C0.0320
T05C0.0354
T06C0.0360
T07C0.0374
T08C0.0400
T09C0.0440
T10C0.0520
T11C0.0900
T12C0.1102
T13C0.1260
%
T01
X8765Y4747
X9238Y4274
X9238Y3330
X14277Y4274
X16482Y4274
X14277Y6164
X14750Y6952
X11915Y9314
X12860Y12306
X14592Y13093
X15380Y13408
X16482Y12306
X17584Y12936
X18214Y14038
X18687Y15062
X19789Y15456
X20104Y15771
X21364Y15456
X21994Y15771
X22624Y15613
X21994Y14826
X21994Y13802
X21364Y13723
X20419Y13408
X21994Y12778
X21049Y11676
X21994Y10889
X23411Y11834
X23883Y12306
X24986Y11204
X25143Y10574
X26088Y10889
X26561Y10889
X27506Y10259
X26876Y9944
X28608Y10259
X29395Y9471
X30340Y9944
X31285Y9629
X32072Y10101
X31285Y10574
X31600Y10889
X31285Y11519
X30970Y11834
X30655Y12149
X30340Y12306
X30813Y10889
X27978Y11519
X27191Y12306
X26876Y12778
X26246Y13093
X26561Y13723
X26876Y14038
X27191Y13723
X27506Y13408
X25931Y14353
X25458Y15298
X24828Y15613
X25616Y16715
X26561Y17030
X28293Y17030
X28923Y17660
X30340Y17606
X30655Y18448
X31285Y18605
X30970Y19235
X30340Y19078
X31600Y19865
X30813Y20337
X30813Y20810
X31757Y21597
X33332Y20810
X33647Y21440
X33962Y21125
X34592Y22070
X35222Y22542
X34750Y23015
X35065Y23645
X34750Y24432
X34120Y24747
X33175Y25377
X33647Y25794
X34120Y25849
X34592Y25692
X35222Y25692
X35852Y26164
X36324Y25534
X37742Y24432
X38214Y23645
X39159Y22385
X39474Y21597
X39159Y21282
X38057Y20180
X34907Y19708
X33962Y19235
X33647Y18133
X33962Y17818
X33332Y17660
X34120Y17030
X35380Y17503
X36009Y17660
X37742Y17345
X38687Y17660
X39474Y17503
X39159Y16243
X38057Y16558
X37112Y15613
X36324Y15613
X35380Y14668
X34120Y15141
X32781Y14196
X32387Y13566
X31443Y13881
X33805Y12306
X33490Y11991
X34592Y11519
X36324Y11991
X36954Y13093
X37269Y13408
X37427Y13723
X38687Y13723
X37742Y11991
X36954Y9944
X35852Y9156
X36167Y8526
X37742Y8526
X38687Y9156
X38844Y7582
X37742Y6637
X37269Y7109
X38057Y6164
X38372Y5849
X36246Y5771
X35380Y5219
X33805Y5219
X33490Y4274
X33805Y3330
X35380Y3802
X32545Y1597
X31128Y2542
X30970Y3172
X29238Y3172
X27978Y2385
X27033Y4589
X27978Y5219
X25458Y6479
X24986Y6007
X25773Y7897
X21679Y9314
X19631Y6952
X21994Y4747
X24986Y3802
X30970Y4904
X31285Y5219
X31915Y6007
X34592Y7109
X35380Y7109
X33175Y8369
X34592Y9786
X30655Y8054
X26088Y11834
X28765Y15456
X28608Y15928
X28293Y16243
X25773Y18763
X24828Y17975
X23254Y17975
X22939Y17660
X22624Y18290
X21994Y18920
X21206Y18290
X21049Y17503
X22624Y16715
X20419Y19235
X19317Y19708
X22939Y20180
X23254Y19865
X25773Y20337
X27033Y19078
X28923Y20337
X28765Y20967
X28923Y21440
X31285Y23645
X30340Y24432
X30025Y24117
X29080Y24747
X29395Y25062
X30025Y25377
X30655Y26322
X31757Y25692
X32230Y26007
X29710Y27424
X28608Y26479
X27663Y26007
X27348Y25692
X26561Y26164
X26876Y26479
X25931Y27424
X24513Y27424
X24041Y25692
X24986Y25692
X25458Y25377
X26088Y24747
X26561Y25062
X28608Y24117
X24041Y24747
X22466Y23802
X19317Y23802
X14907Y21755
X12230Y22070
X10498Y21440
X9238Y22070
X7506Y22700
X6876Y21282
X8608Y20652
X7663Y19865
X6561Y19708
X8608Y17975
X11915Y15928
X12230Y15456
X15222Y16086
X18687Y16086
X12860Y18763
X11915Y20652
X10340Y23645
X9395Y25377
X6088Y24117
X3883Y23645
X3254Y20967
X9395Y27739
X27978Y28841
X32387Y16086
X7348Y8054
X6561Y13723
T02
X8293Y11991
X3096Y11519
X3254Y8369
X7820Y2385
X15694Y6164
X17742Y6164
X20576Y6164
X22781Y6164
X24356Y4274
X17742Y8999
X15694Y8999
X18214Y11676
X19946Y11834
X15852Y12778
X13332Y14826
X15380Y17188
X14907Y17975
X16009Y17975
X18687Y16873
X19159Y17660
X19159Y14668
X19946Y14668
X24198Y13408
X27978Y12149
X30340Y14983
X31915Y16558
X32072Y18448
X24513Y19078
X24513Y20495
X18057Y20652
X16167Y20652
X16167Y23172
X18057Y23172
X10498Y17345
X8450Y16558
X5616Y18605
X3096Y18133
X5773Y21125
X2781Y24589
X3096Y27109
X6088Y28999
X6876Y27582
X3096Y14826
X34907Y2700
X39789Y11834
X39946Y16558
T03
X28521Y23180
X27521Y23180
X26521Y23180
X25521Y23180
X24521Y23180
X23521Y23180
X13305Y23414
X13305Y22664
X12305Y22664
X12305Y23414
X12257Y6830
X13257Y6830
X13257Y6080
X12257Y6080
T04
X24521Y1180
X25521Y1180
X26521Y1180
X27521Y1180
X28521Y1180
X29521Y1180
X30521Y1180
X31521Y1180
X31521Y28180
X30521Y28180
X29521Y28180
X28521Y28180
X27521Y28180
X26521Y28180
X25521Y28180
X24521Y28180
T05
X31230Y23042
X31230Y22042
X32230Y22042
X33230Y22042
X33230Y23042
X32230Y23042
T06
X31935Y7739
X29375Y7739
T07
X13856Y11597
X13856Y13172
X13856Y16322
X13856Y17897
T08
X2309Y22672
X2309Y23672
X6088Y2412
X6088Y1412
X8923Y1412
X8923Y2412
T09
X5856Y5692
X4356Y5692
X2856Y5692
T10
X3726Y2227
T11
X13569Y8900
X20655Y8900
X20655Y20593
X13569Y20593
T12
X39789Y14704
T13
X3175Y10373
X3175Y19192
M30
