G75*
%MOIN*%
%OFA0B0*%
%FSLAX24Y24*%
%IPPOS*%
%LPD*%
%AMOC8*
5,1,8,0,0,1.08239X$1,22.5*
%
%ADD10C,0.1182*%
%ADD11C,0.1340*%
%ADD12C,0.0595*%
%ADD13R,0.0631X0.1261*%
%ADD14R,0.0671X0.0592*%
%ADD15R,0.0631X0.0946*%
%ADD16R,0.0592X0.0671*%
%ADD17R,0.0552X0.0552*%
%ADD18R,0.0671X0.1222*%
%ADD19R,0.0513X0.0474*%
%ADD20R,0.0474X0.0513*%
%ADD21R,0.0670X0.0870*%
%ADD22R,0.1580X0.0870*%
%ADD23R,0.0474X0.0631*%
%ADD24OC8,0.0930*%
%ADD25C,0.0720*%
%ADD26C,0.0580*%
%ADD27R,0.0671X0.0277*%
%ADD28R,0.0277X0.0671*%
%ADD29OC8,0.0595*%
%ADD30R,0.0946X0.0316*%
%ADD31R,0.0592X0.0592*%
%ADD32R,0.0592X0.0867*%
%ADD33R,0.0434X0.0474*%
%ADD34R,0.0749X0.0395*%
%ADD35R,0.0710X0.0540*%
%ADD36R,0.0720X0.0060*%
%ADD37R,0.0880X0.0340*%
%ADD38C,0.0600*%
%ADD39R,0.0631X0.0474*%
%ADD40R,0.0433X0.0315*%
%ADD41C,0.0680*%
%ADD42R,0.0867X0.0592*%
%ADD43C,0.0730*%
%ADD44C,0.0980*%
%ADD45OC8,0.0674*%
%ADD46OC8,0.0358*%
%ADD47OC8,0.0476*%
D10*
X039631Y014880D03*
D11*
X003017Y010550D03*
X003017Y019368D03*
D12*
X023364Y023099D02*
X023364Y023614D01*
X024364Y023614D02*
X024364Y023099D01*
X025364Y023099D02*
X025364Y023614D01*
X026364Y023614D02*
X026364Y023099D01*
X027364Y023099D02*
X027364Y023614D01*
X028364Y023614D02*
X028364Y023099D01*
D13*
X011128Y018782D03*
X011128Y016892D03*
X008450Y025396D03*
X008450Y027286D03*
D14*
X006561Y025928D03*
X006561Y025180D03*
X005931Y023408D03*
X005931Y022660D03*
X010025Y015534D03*
X010025Y014786D03*
X020419Y022975D03*
X020419Y023723D03*
X025773Y026282D03*
X025773Y027030D03*
X033805Y020731D03*
X033805Y019983D03*
X035694Y021872D03*
X035694Y022620D03*
X024198Y011124D03*
X023254Y011124D03*
X023254Y010376D03*
X024198Y010376D03*
X027348Y003880D03*
X027348Y003132D03*
X028450Y003132D03*
X028450Y003880D03*
X033647Y007857D03*
X033647Y008605D03*
X034435Y008605D03*
X034435Y007857D03*
D15*
X027387Y016065D03*
X026403Y016065D03*
X026403Y018546D03*
X027387Y018546D03*
X004671Y022404D03*
X004671Y023664D03*
D16*
X004612Y028546D03*
X005360Y028546D03*
X022407Y019097D03*
X023155Y019097D03*
X027289Y021144D03*
X028037Y021144D03*
X028037Y021931D03*
X027289Y021931D03*
X029336Y021459D03*
X030084Y021459D03*
X030084Y020514D03*
X029336Y020514D03*
X024100Y015790D03*
X023352Y015790D03*
X026659Y009333D03*
X027407Y009333D03*
X032643Y009805D03*
X033391Y009805D03*
X032919Y002404D03*
X032171Y002404D03*
X011817Y014845D03*
X011069Y014845D03*
X011187Y010278D03*
X010439Y010278D03*
D17*
X010399Y009333D03*
X011226Y009333D03*
X007131Y028546D03*
X006305Y028546D03*
D18*
X032112Y011065D03*
X033293Y011065D03*
D19*
G36*
X034322Y012076D02*
X034683Y012437D01*
X035018Y012102D01*
X034657Y011741D01*
X034322Y012076D01*
G37*
G36*
X034796Y012549D02*
X035157Y012910D01*
X035492Y012575D01*
X035131Y012214D01*
X034796Y012549D01*
G37*
G36*
X029487Y011583D02*
X029126Y011944D01*
X029461Y012279D01*
X029822Y011918D01*
X029487Y011583D01*
G37*
G36*
X029014Y012056D02*
X028653Y012417D01*
X028988Y012752D01*
X029349Y012391D01*
X029014Y012056D01*
G37*
X027525Y015160D03*
X026856Y015160D03*
G36*
X028811Y017587D02*
X029172Y017948D01*
X029507Y017613D01*
X029146Y017252D01*
X028811Y017587D01*
G37*
G36*
X029284Y018061D02*
X029645Y018422D01*
X029980Y018087D01*
X029619Y017726D01*
X029284Y018061D01*
G37*
G36*
X034336Y018261D02*
X034701Y017904D01*
X034370Y017565D01*
X034005Y017922D01*
X034336Y018261D01*
G37*
G36*
X034815Y017794D02*
X035180Y017437D01*
X034849Y017098D01*
X034484Y017455D01*
X034815Y017794D01*
G37*
D20*
X025616Y017817D03*
X025616Y018487D03*
D21*
X011860Y013880D03*
X010960Y013880D03*
X010060Y013880D03*
X005581Y025101D03*
X004681Y025101D03*
X003781Y025101D03*
D22*
X004671Y027581D03*
X010970Y011400D03*
D23*
X026659Y008506D03*
X027407Y008506D03*
X027033Y007640D03*
X032584Y004022D03*
X032210Y003156D03*
X032958Y003156D03*
D24*
X003569Y002404D03*
X029218Y007916D03*
X031778Y007916D03*
D25*
X032072Y022219D03*
X031072Y022219D03*
X031072Y023219D03*
X032072Y023219D03*
X033072Y023219D03*
X033072Y022219D03*
D26*
X024828Y017365D03*
X025301Y015947D03*
X010655Y006183D03*
X006718Y023506D03*
D27*
G36*
X029326Y015327D02*
X028853Y015800D01*
X029048Y015995D01*
X029521Y015522D01*
X029326Y015327D01*
G37*
G36*
X029548Y015550D02*
X029075Y016023D01*
X029270Y016218D01*
X029743Y015745D01*
X029548Y015550D01*
G37*
G36*
X029771Y015772D02*
X029298Y016245D01*
X029493Y016440D01*
X029966Y015967D01*
X029771Y015772D01*
G37*
G36*
X029994Y015995D02*
X029521Y016468D01*
X029716Y016663D01*
X030189Y016190D01*
X029994Y015995D01*
G37*
G36*
X030217Y016218D02*
X029744Y016691D01*
X029939Y016886D01*
X030412Y016413D01*
X030217Y016218D01*
G37*
G36*
X030439Y016440D02*
X029966Y016913D01*
X030161Y017108D01*
X030634Y016635D01*
X030439Y016440D01*
G37*
G36*
X030662Y016663D02*
X030189Y017136D01*
X030384Y017331D01*
X030857Y016858D01*
X030662Y016663D01*
G37*
G36*
X030885Y016886D02*
X030412Y017359D01*
X030607Y017554D01*
X031080Y017081D01*
X030885Y016886D01*
G37*
G36*
X031107Y017109D02*
X030634Y017582D01*
X030829Y017777D01*
X031302Y017304D01*
X031107Y017109D01*
G37*
G36*
X031330Y017331D02*
X030857Y017804D01*
X031052Y017999D01*
X031525Y017526D01*
X031330Y017331D01*
G37*
G36*
X031553Y017554D02*
X031080Y018027D01*
X031275Y018222D01*
X031748Y017749D01*
X031553Y017554D01*
G37*
G36*
X034782Y014325D02*
X034309Y014798D01*
X034504Y014993D01*
X034977Y014520D01*
X034782Y014325D01*
G37*
G36*
X034559Y014102D02*
X034086Y014575D01*
X034281Y014770D01*
X034754Y014297D01*
X034559Y014102D01*
G37*
G36*
X034337Y013879D02*
X033864Y014352D01*
X034059Y014547D01*
X034532Y014074D01*
X034337Y013879D01*
G37*
G36*
X034114Y013657D02*
X033641Y014130D01*
X033836Y014325D01*
X034309Y013852D01*
X034114Y013657D01*
G37*
G36*
X033891Y013434D02*
X033418Y013907D01*
X033613Y014102D01*
X034086Y013629D01*
X033891Y013434D01*
G37*
G36*
X033669Y013211D02*
X033196Y013684D01*
X033391Y013879D01*
X033864Y013406D01*
X033669Y013211D01*
G37*
G36*
X033446Y012988D02*
X032973Y013461D01*
X033168Y013656D01*
X033641Y013183D01*
X033446Y012988D01*
G37*
G36*
X033223Y012766D02*
X032750Y013239D01*
X032945Y013434D01*
X033418Y012961D01*
X033223Y012766D01*
G37*
G36*
X033000Y012543D02*
X032527Y013016D01*
X032722Y013211D01*
X033195Y012738D01*
X033000Y012543D01*
G37*
G36*
X032778Y012320D02*
X032305Y012793D01*
X032500Y012988D01*
X032973Y012515D01*
X032778Y012320D01*
G37*
G36*
X032555Y012098D02*
X032082Y012571D01*
X032277Y012766D01*
X032750Y012293D01*
X032555Y012098D01*
G37*
D28*
G36*
X031275Y012098D02*
X031080Y012293D01*
X031553Y012766D01*
X031748Y012571D01*
X031275Y012098D01*
G37*
G36*
X031052Y012320D02*
X030857Y012515D01*
X031330Y012988D01*
X031525Y012793D01*
X031052Y012320D01*
G37*
G36*
X030829Y012543D02*
X030634Y012738D01*
X031107Y013211D01*
X031302Y013016D01*
X030829Y012543D01*
G37*
G36*
X030607Y012766D02*
X030412Y012961D01*
X030885Y013434D01*
X031080Y013239D01*
X030607Y012766D01*
G37*
G36*
X030384Y012988D02*
X030189Y013183D01*
X030662Y013656D01*
X030857Y013461D01*
X030384Y012988D01*
G37*
G36*
X030161Y013211D02*
X029966Y013406D01*
X030439Y013879D01*
X030634Y013684D01*
X030161Y013211D01*
G37*
G36*
X029939Y013434D02*
X029744Y013629D01*
X030217Y014102D01*
X030412Y013907D01*
X029939Y013434D01*
G37*
G36*
X029716Y013657D02*
X029521Y013852D01*
X029994Y014325D01*
X030189Y014130D01*
X029716Y013657D01*
G37*
G36*
X029493Y013879D02*
X029298Y014074D01*
X029771Y014547D01*
X029966Y014352D01*
X029493Y013879D01*
G37*
G36*
X029270Y014102D02*
X029075Y014297D01*
X029548Y014770D01*
X029743Y014575D01*
X029270Y014102D01*
G37*
G36*
X029048Y014325D02*
X028853Y014520D01*
X029326Y014993D01*
X029521Y014798D01*
X029048Y014325D01*
G37*
G36*
X032722Y017109D02*
X032527Y017304D01*
X033000Y017777D01*
X033195Y017582D01*
X032722Y017109D01*
G37*
G36*
X032945Y016886D02*
X032750Y017081D01*
X033223Y017554D01*
X033418Y017359D01*
X032945Y016886D01*
G37*
G36*
X033168Y016663D02*
X032973Y016858D01*
X033446Y017331D01*
X033641Y017136D01*
X033168Y016663D01*
G37*
G36*
X033391Y016440D02*
X033196Y016635D01*
X033669Y017108D01*
X033864Y016913D01*
X033391Y016440D01*
G37*
G36*
X033613Y016218D02*
X033418Y016413D01*
X033891Y016886D01*
X034086Y016691D01*
X033613Y016218D01*
G37*
G36*
X033836Y015995D02*
X033641Y016190D01*
X034114Y016663D01*
X034309Y016468D01*
X033836Y015995D01*
G37*
G36*
X034059Y015772D02*
X033864Y015967D01*
X034337Y016440D01*
X034532Y016245D01*
X034059Y015772D01*
G37*
G36*
X034281Y015550D02*
X034086Y015745D01*
X034559Y016218D01*
X034754Y016023D01*
X034281Y015550D01*
G37*
G36*
X034504Y015327D02*
X034309Y015522D01*
X034782Y015995D01*
X034977Y015800D01*
X034504Y015327D01*
G37*
G36*
X032500Y017331D02*
X032305Y017526D01*
X032778Y017999D01*
X032973Y017804D01*
X032500Y017331D01*
G37*
G36*
X032277Y017554D02*
X032082Y017749D01*
X032555Y018222D01*
X032750Y018027D01*
X032277Y017554D01*
G37*
D29*
X013147Y022841D03*
X012147Y022841D03*
X012147Y023591D03*
X013147Y023591D03*
X013100Y007006D03*
X013100Y006256D03*
X012100Y006256D03*
X012100Y007006D03*
D30*
X021757Y016930D03*
X021757Y017430D03*
X021757Y017930D03*
X021757Y018430D03*
X023805Y018430D03*
X023805Y017930D03*
X023805Y017430D03*
X023805Y016930D03*
D31*
X024966Y020691D03*
X024966Y021597D03*
X009848Y021636D03*
X008943Y021636D03*
X024809Y008998D03*
X024809Y008093D03*
D32*
X022643Y008546D03*
X022801Y021144D03*
D33*
X036935Y020987D03*
X036935Y020357D03*
X036935Y019254D03*
X036935Y018624D03*
X038549Y018624D03*
X038549Y019254D03*
X038549Y020357D03*
X038549Y020987D03*
X038549Y022561D03*
X038549Y023191D03*
X036935Y023191D03*
X036935Y022561D03*
D34*
X037742Y022404D03*
X037742Y021144D03*
X037742Y019412D03*
D35*
X029868Y023049D03*
X029868Y023649D03*
D36*
X029868Y023349D03*
D37*
X024964Y014975D03*
X024964Y014475D03*
X024964Y013975D03*
X024964Y013475D03*
X024964Y012975D03*
X024964Y012475D03*
X024964Y011975D03*
X022544Y011975D03*
X022544Y012475D03*
X022544Y012975D03*
X022544Y013475D03*
X022544Y013975D03*
X022544Y014475D03*
X022544Y014975D03*
D38*
X024364Y028097D02*
X024364Y028617D01*
X025364Y028617D02*
X025364Y028097D01*
X026364Y028097D02*
X026364Y028617D01*
X027364Y028617D02*
X027364Y028097D01*
X028364Y028097D02*
X028364Y028617D01*
X029364Y028617D02*
X029364Y028097D01*
X030364Y028097D02*
X030364Y028617D01*
X031364Y028617D02*
X031364Y028097D01*
X031364Y001617D02*
X031364Y001097D01*
X030364Y001097D02*
X030364Y001617D01*
X029364Y001617D02*
X029364Y001097D01*
X028364Y001097D02*
X028364Y001617D01*
X027364Y001617D02*
X027364Y001097D01*
X026364Y001097D02*
X026364Y001617D01*
X025364Y001617D02*
X025364Y001097D01*
X024364Y001097D02*
X024364Y001617D01*
D39*
X021246Y022975D03*
X021246Y023723D03*
X022112Y023349D03*
X024946Y026282D03*
X024946Y027030D03*
X024080Y026656D03*
D40*
X033765Y026518D03*
X033765Y027109D03*
X034789Y027109D03*
X034789Y026518D03*
D41*
X002451Y023849D02*
X001851Y023849D01*
X001851Y022849D02*
X002451Y022849D01*
X005316Y002746D02*
X005916Y002746D01*
X005916Y001746D02*
X005316Y001746D01*
X008150Y001746D02*
X008750Y001746D01*
X008750Y002746D02*
X008150Y002746D01*
D42*
X009395Y023802D03*
D43*
X005277Y006036D02*
X005277Y005386D01*
X004277Y005386D02*
X004277Y006036D01*
X003277Y006036D02*
X003277Y005386D01*
D44*
X013569Y009077D03*
X020655Y009077D03*
X020655Y020770D03*
X013569Y020770D03*
D45*
X013939Y017924D03*
X013939Y016924D03*
X013939Y012924D03*
X013939Y011924D03*
D46*
X012702Y012483D03*
X015222Y013585D03*
X016324Y012483D03*
X017427Y013113D03*
X018057Y014215D03*
X018529Y015239D03*
X019631Y015632D03*
X019946Y015947D03*
X021206Y015632D03*
X021836Y015947D03*
X022466Y015790D03*
X021836Y015002D03*
X021836Y013979D03*
X021206Y013900D03*
X020261Y013585D03*
X021836Y012955D03*
X020891Y011853D03*
X021836Y011065D03*
X023254Y012010D03*
X023726Y012483D03*
X024828Y011380D03*
X024986Y010750D03*
X025931Y011065D03*
X026403Y011065D03*
X027348Y010435D03*
X026718Y010120D03*
X028450Y010435D03*
X029238Y009648D03*
X030183Y010120D03*
X031128Y009805D03*
X031915Y010278D03*
X031128Y010750D03*
X031443Y011065D03*
X031128Y011695D03*
X030813Y012010D03*
X030498Y012325D03*
X030183Y012483D03*
X030655Y011065D03*
X033332Y012168D03*
X033647Y012483D03*
X034435Y011695D03*
X036167Y012168D03*
X037584Y012168D03*
X036797Y013270D03*
X037112Y013585D03*
X037269Y013900D03*
X038529Y013900D03*
X036954Y015790D03*
X036167Y015790D03*
X035222Y014845D03*
X033962Y015317D03*
X032624Y014372D03*
X032230Y013742D03*
X031285Y014057D03*
X032230Y016262D03*
X033962Y017207D03*
X033805Y017994D03*
X033490Y018309D03*
X033175Y018152D03*
X032545Y018467D03*
X033175Y018939D03*
X033805Y019412D03*
X034750Y019884D03*
X033805Y021302D03*
X033490Y021617D03*
X032860Y020987D03*
X031600Y021774D03*
X030655Y020987D03*
X030655Y020514D03*
X031443Y020042D03*
X030813Y019412D03*
X030183Y019254D03*
X030498Y018624D03*
X031128Y018782D03*
X030183Y017783D03*
X028765Y017837D03*
X028135Y017207D03*
X028135Y016420D03*
X028450Y016105D03*
X028608Y015632D03*
X026718Y014215D03*
X026403Y013900D03*
X027033Y013900D03*
X027348Y013585D03*
X026718Y012955D03*
X027033Y012483D03*
X027820Y011695D03*
X025931Y012010D03*
X026088Y013270D03*
X025773Y014530D03*
X025301Y015475D03*
X024671Y015790D03*
X025458Y016892D03*
X026403Y017207D03*
X024671Y018152D03*
X025616Y018939D03*
X026876Y019254D03*
X025616Y020514D03*
X023096Y020042D03*
X022781Y020357D03*
X021836Y019097D03*
X022466Y018467D03*
X023096Y018152D03*
X022781Y017837D03*
X022466Y016892D03*
X020891Y017680D03*
X021049Y018467D03*
X020261Y019412D03*
X019159Y019884D03*
X021836Y022089D03*
X021836Y022876D03*
X022309Y023979D03*
X024356Y024924D03*
X025301Y025554D03*
X024828Y025868D03*
X024041Y026183D03*
X024513Y027601D03*
X025301Y027601D03*
X026718Y026656D03*
X026403Y026341D03*
X027191Y025868D03*
X027506Y026183D03*
X028450Y026656D03*
X029553Y027601D03*
X030498Y026498D03*
X031600Y025868D03*
X032072Y026183D03*
X033017Y025554D03*
X033490Y025971D03*
X033962Y026026D03*
X034435Y025868D03*
X035065Y025868D03*
X035694Y026341D03*
X036167Y025711D03*
X037584Y024609D03*
X038057Y023821D03*
X039002Y022561D03*
X039317Y021774D03*
X039002Y021459D03*
X037899Y020357D03*
X039317Y017994D03*
X038529Y017522D03*
X037899Y016735D03*
X037584Y017050D03*
X039002Y016420D03*
X035852Y017522D03*
X035222Y017680D03*
X034435Y022246D03*
X035065Y022719D03*
X034592Y023191D03*
X034907Y023821D03*
X034592Y024609D03*
X033962Y024924D03*
X031128Y023821D03*
X030183Y024609D03*
X029868Y024294D03*
X028923Y024924D03*
X029238Y025239D03*
X029868Y025554D03*
X028450Y024294D03*
X026403Y025239D03*
X025931Y024924D03*
X028765Y021617D03*
X028608Y021144D03*
X028765Y020514D03*
X019159Y023979D03*
X014750Y021931D03*
X012072Y022246D03*
X011757Y020829D03*
X010340Y021617D03*
X009080Y022246D03*
X008450Y020829D03*
X007820Y020357D03*
X006403Y019884D03*
X008450Y018152D03*
X011757Y016105D03*
X012072Y015632D03*
X015065Y016262D03*
X018529Y016262D03*
X012702Y018939D03*
X007348Y022876D03*
X006718Y021459D03*
X003096Y021144D03*
X003726Y023821D03*
X005931Y024294D03*
X009238Y025554D03*
X010183Y023821D03*
X009238Y027916D03*
X027820Y029018D03*
X006403Y013900D03*
X011757Y009491D03*
X014592Y007128D03*
X014120Y006341D03*
X014120Y004451D03*
X016324Y004451D03*
X019474Y007128D03*
X021836Y004924D03*
X024828Y003979D03*
X026876Y004766D03*
X027820Y005396D03*
X025301Y006656D03*
X024828Y006183D03*
X025616Y008073D03*
X021521Y009491D03*
X029080Y003349D03*
X027820Y002561D03*
X030813Y003349D03*
X030970Y002719D03*
X032387Y001774D03*
X033647Y003506D03*
X033332Y004451D03*
X033647Y005396D03*
X035222Y005396D03*
X036088Y005947D03*
X037584Y006813D03*
X037899Y006341D03*
X038214Y006026D03*
X037112Y007286D03*
X038687Y007758D03*
X037584Y008703D03*
X038529Y009333D03*
X036797Y010120D03*
X035694Y009333D03*
X036009Y008703D03*
X034435Y009963D03*
X033017Y008546D03*
X034435Y007286D03*
X035222Y007286D03*
X031757Y006183D03*
X031128Y005396D03*
X030813Y005081D03*
X030498Y008231D03*
X035222Y003979D03*
X009080Y004451D03*
X008608Y004924D03*
X009080Y003506D03*
X007191Y008231D03*
D47*
X003096Y008546D03*
X002939Y011695D03*
X002939Y015002D03*
X002939Y018309D03*
X004986Y019254D03*
X005616Y021302D03*
X002624Y024766D03*
X002939Y027286D03*
X005931Y029176D03*
X006718Y027758D03*
X016009Y023349D03*
X017899Y023349D03*
X017899Y020829D03*
X016009Y020829D03*
X015852Y018152D03*
X015380Y017680D03*
X014750Y018152D03*
X018529Y017050D03*
X019002Y017837D03*
X019002Y014845D03*
X019789Y014845D03*
X019789Y012010D03*
X018057Y011853D03*
X015694Y012955D03*
X013175Y015002D03*
X010340Y017522D03*
X008293Y016735D03*
X008135Y012168D03*
X015537Y009176D03*
X017584Y009176D03*
X017584Y006341D03*
X015537Y006341D03*
X020419Y006341D03*
X022624Y006341D03*
X024198Y004451D03*
X034750Y002876D03*
X039631Y012010D03*
X039789Y016735D03*
X031757Y016735D03*
X031915Y018624D03*
X030183Y015160D03*
X027820Y012325D03*
X024041Y013585D03*
X024356Y019254D03*
X024356Y020672D03*
X007348Y002719D03*
M02*
