G75*
%MOIN*%
%OFA0B0*%
%FSLAX24Y24*%
%IPPOS*%
%LPD*%
%AMOC8*
5,1,8,0,0,1.08239X$1,22.5*
%
%ADD10C,0.0000*%
%ADD11C,0.0110*%
%ADD12C,0.0400*%
%ADD13C,0.0080*%
%ADD14C,0.0050*%
%ADD15C,0.0060*%
%ADD16C,0.0030*%
%ADD17C,0.0040*%
%ADD18R,0.0079X0.0079*%
%ADD19C,0.0090*%
%ADD20C,0.0070*%
%ADD21R,0.0118X0.0059*%
%ADD22R,0.0118X0.0118*%
%ADD23C,0.0100*%
%ADD24C,0.0020*%
%ADD25R,0.0157X0.0157*%
%ADD26C,0.0039*%
%ADD27C,0.0160*%
D10*
X005931Y000357D02*
X009474Y000357D01*
X006012Y000357D02*
X005877Y000361D01*
X005743Y000369D01*
X005608Y000381D01*
X005474Y000396D01*
X005340Y000416D01*
X005207Y000439D01*
X005075Y000466D01*
X004944Y000497D01*
X004813Y000532D01*
X004684Y000570D01*
X004555Y000612D01*
X004428Y000658D01*
X004303Y000707D01*
X004178Y000760D01*
X004056Y000817D01*
X003935Y000876D01*
X003815Y000940D01*
X003698Y001006D01*
X003582Y001076D01*
X003469Y001150D01*
X003358Y001226D01*
X003249Y001306D01*
X003142Y001388D01*
X003038Y001474D01*
X002936Y001563D01*
X002836Y001654D01*
X002740Y001749D01*
X002646Y001846D01*
X002555Y001946D01*
X002467Y002048D01*
X002382Y002152D01*
X002299Y002260D01*
X002220Y002369D01*
X002144Y002481D01*
X002072Y002594D01*
X002002Y002710D01*
X001936Y002828D01*
X001873Y002948D01*
X001814Y003069D01*
X001758Y003192D01*
X001706Y003316D01*
X001657Y003442D01*
X001612Y003570D01*
X001571Y003698D01*
X001533Y003828D01*
X001499Y003958D01*
X001469Y004090D01*
X001442Y004222D01*
X001419Y004355D01*
X001401Y004489D01*
X001385Y004623D01*
X001374Y004758D01*
X001367Y004893D01*
X001363Y005028D01*
X001364Y005163D01*
X001364Y005162D02*
X001364Y024449D01*
X001364Y024448D02*
X001363Y024587D01*
X001367Y024727D01*
X001375Y024866D01*
X001386Y025004D01*
X001401Y025143D01*
X001421Y025281D01*
X001444Y025418D01*
X001471Y025555D01*
X001501Y025690D01*
X001536Y025825D01*
X001574Y025959D01*
X001616Y026092D01*
X001662Y026223D01*
X001711Y026354D01*
X001764Y026482D01*
X001821Y026610D01*
X001881Y026735D01*
X001945Y026859D01*
X002012Y026981D01*
X002082Y027101D01*
X002156Y027219D01*
X002233Y027335D01*
X002314Y027449D01*
X002397Y027560D01*
X002484Y027669D01*
X002574Y027776D01*
X002666Y027880D01*
X002762Y027981D01*
X002860Y028080D01*
X002961Y028175D01*
X003065Y028268D01*
X003171Y028358D01*
X003280Y028445D01*
X003391Y028529D01*
X003504Y028610D01*
X003620Y028688D01*
X003737Y028762D01*
X003857Y028833D01*
X003979Y028901D01*
X004103Y028965D01*
X004228Y029025D01*
X004355Y029082D01*
X004483Y029136D01*
X004613Y029186D01*
X004745Y029232D01*
X004877Y029275D01*
X005011Y029313D01*
X005146Y029348D01*
X005281Y029380D01*
X005418Y029407D01*
X005555Y029431D01*
X005693Y029450D01*
X005831Y029466D01*
X005970Y029478D01*
X006109Y029486D01*
X006248Y029490D01*
X006206Y029491D02*
X009474Y029491D01*
X013119Y020770D02*
X013121Y020812D01*
X013127Y020854D01*
X013137Y020895D01*
X013150Y020935D01*
X013168Y020973D01*
X013188Y021010D01*
X013213Y021045D01*
X013240Y021077D01*
X013270Y021106D01*
X013303Y021133D01*
X013338Y021156D01*
X013375Y021176D01*
X013414Y021192D01*
X013454Y021205D01*
X013495Y021214D01*
X013537Y021219D01*
X013580Y021220D01*
X013622Y021217D01*
X013663Y021210D01*
X013704Y021199D01*
X013744Y021185D01*
X013782Y021167D01*
X013818Y021145D01*
X013852Y021120D01*
X013883Y021092D01*
X013912Y021061D01*
X013938Y021028D01*
X013960Y020992D01*
X013980Y020954D01*
X013995Y020915D01*
X014007Y020875D01*
X014015Y020833D01*
X014019Y020791D01*
X014019Y020749D01*
X014015Y020707D01*
X014007Y020665D01*
X013995Y020625D01*
X013980Y020586D01*
X013960Y020548D01*
X013938Y020512D01*
X013912Y020479D01*
X013883Y020448D01*
X013852Y020420D01*
X013818Y020395D01*
X013782Y020373D01*
X013744Y020355D01*
X013704Y020341D01*
X013663Y020330D01*
X013622Y020323D01*
X013580Y020320D01*
X013537Y020321D01*
X013495Y020326D01*
X013454Y020335D01*
X013414Y020348D01*
X013375Y020364D01*
X013338Y020384D01*
X013303Y020407D01*
X013270Y020434D01*
X013240Y020463D01*
X013213Y020495D01*
X013188Y020530D01*
X013168Y020567D01*
X013150Y020605D01*
X013137Y020645D01*
X013127Y020686D01*
X013121Y020728D01*
X013119Y020770D01*
X020205Y020770D02*
X020207Y020812D01*
X020213Y020854D01*
X020223Y020895D01*
X020236Y020935D01*
X020254Y020973D01*
X020274Y021010D01*
X020299Y021045D01*
X020326Y021077D01*
X020356Y021106D01*
X020389Y021133D01*
X020424Y021156D01*
X020461Y021176D01*
X020500Y021192D01*
X020540Y021205D01*
X020581Y021214D01*
X020623Y021219D01*
X020666Y021220D01*
X020708Y021217D01*
X020749Y021210D01*
X020790Y021199D01*
X020830Y021185D01*
X020868Y021167D01*
X020904Y021145D01*
X020938Y021120D01*
X020969Y021092D01*
X020998Y021061D01*
X021024Y021028D01*
X021046Y020992D01*
X021066Y020954D01*
X021081Y020915D01*
X021093Y020875D01*
X021101Y020833D01*
X021105Y020791D01*
X021105Y020749D01*
X021101Y020707D01*
X021093Y020665D01*
X021081Y020625D01*
X021066Y020586D01*
X021046Y020548D01*
X021024Y020512D01*
X020998Y020479D01*
X020969Y020448D01*
X020938Y020420D01*
X020904Y020395D01*
X020868Y020373D01*
X020830Y020355D01*
X020790Y020341D01*
X020749Y020330D01*
X020708Y020323D01*
X020666Y020320D01*
X020623Y020321D01*
X020581Y020326D01*
X020540Y020335D01*
X020500Y020348D01*
X020461Y020364D01*
X020424Y020384D01*
X020389Y020407D01*
X020356Y020434D01*
X020326Y020463D01*
X020299Y020495D01*
X020274Y020530D01*
X020254Y020567D01*
X020236Y020605D01*
X020223Y020645D01*
X020213Y020686D01*
X020207Y020728D01*
X020205Y020770D01*
X028766Y029491D02*
X029049Y029485D01*
X029332Y029473D01*
X029615Y029454D01*
X029898Y029428D01*
X030179Y029396D01*
X030460Y029356D01*
X030740Y029310D01*
X031018Y029257D01*
X031296Y029197D01*
X031571Y029131D01*
X031845Y029058D01*
X032117Y028978D01*
X032388Y028892D01*
X032655Y028799D01*
X032921Y028700D01*
X033184Y028595D01*
X033445Y028483D01*
X033703Y028365D01*
X033957Y028241D01*
X034209Y028110D01*
X034458Y027974D01*
X034703Y027831D01*
X034945Y027683D01*
X035183Y027529D01*
X035417Y027369D01*
X035647Y027204D01*
X035873Y027033D01*
X036095Y026856D01*
X036313Y026675D01*
X036526Y026488D01*
X036735Y026296D01*
X036939Y026099D01*
X037138Y025897D01*
X037332Y025691D01*
X037521Y025479D01*
X037705Y025264D01*
X037884Y025043D01*
X038057Y024819D01*
X038225Y024591D01*
X038388Y024358D01*
X038544Y024122D01*
X038695Y023882D01*
X038840Y023638D01*
X038979Y023391D01*
X039112Y023141D01*
X039239Y022887D01*
X039360Y022631D01*
X039475Y022371D01*
X039583Y022109D01*
X039685Y021845D01*
X039781Y021578D01*
X039870Y021309D01*
X039952Y021037D01*
X040028Y020764D01*
X040098Y020489D01*
X040160Y020213D01*
X040216Y019935D01*
X040266Y019656D01*
X040308Y019375D01*
X040344Y019094D01*
X040373Y018812D01*
X040395Y018529D01*
X040410Y018246D01*
X040418Y017963D01*
X040420Y017679D01*
X040419Y017680D02*
X040419Y012042D01*
X039080Y014880D02*
X039082Y014927D01*
X039088Y014973D01*
X039098Y015019D01*
X039111Y015064D01*
X039129Y015107D01*
X039150Y015149D01*
X039174Y015189D01*
X039202Y015226D01*
X039233Y015261D01*
X039267Y015294D01*
X039303Y015323D01*
X039342Y015349D01*
X039383Y015372D01*
X039426Y015391D01*
X039470Y015407D01*
X039515Y015419D01*
X039561Y015427D01*
X039608Y015431D01*
X039654Y015431D01*
X039701Y015427D01*
X039747Y015419D01*
X039792Y015407D01*
X039836Y015391D01*
X039879Y015372D01*
X039920Y015349D01*
X039959Y015323D01*
X039995Y015294D01*
X040029Y015261D01*
X040060Y015226D01*
X040088Y015189D01*
X040112Y015149D01*
X040133Y015107D01*
X040151Y015064D01*
X040164Y015019D01*
X040174Y014973D01*
X040180Y014927D01*
X040182Y014880D01*
X040180Y014833D01*
X040174Y014787D01*
X040164Y014741D01*
X040151Y014696D01*
X040133Y014653D01*
X040112Y014611D01*
X040088Y014571D01*
X040060Y014534D01*
X040029Y014499D01*
X039995Y014466D01*
X039959Y014437D01*
X039920Y014411D01*
X039879Y014388D01*
X039836Y014369D01*
X039792Y014353D01*
X039747Y014341D01*
X039701Y014333D01*
X039654Y014329D01*
X039608Y014329D01*
X039561Y014333D01*
X039515Y014341D01*
X039470Y014353D01*
X039426Y014369D01*
X039383Y014388D01*
X039342Y014411D01*
X039303Y014437D01*
X039267Y014466D01*
X039233Y014499D01*
X039202Y014534D01*
X039174Y014571D01*
X039150Y014611D01*
X039129Y014653D01*
X039111Y014696D01*
X039098Y014741D01*
X039088Y014787D01*
X039082Y014833D01*
X039080Y014880D01*
X040419Y012043D02*
X040417Y011762D01*
X040409Y011482D01*
X040394Y011202D01*
X040372Y010922D01*
X040344Y010643D01*
X040308Y010365D01*
X040266Y010088D01*
X040218Y009811D01*
X040162Y009536D01*
X040100Y009263D01*
X040032Y008991D01*
X039957Y008721D01*
X039875Y008452D01*
X039787Y008186D01*
X039692Y007922D01*
X039592Y007660D01*
X039484Y007401D01*
X039371Y007144D01*
X039251Y006891D01*
X039126Y006640D01*
X038994Y006392D01*
X038857Y006148D01*
X038713Y005907D01*
X038564Y005669D01*
X038409Y005435D01*
X038248Y005205D01*
X038082Y004979D01*
X037911Y004757D01*
X037734Y004540D01*
X037552Y004326D01*
X037365Y004117D01*
X037173Y003913D01*
X036976Y003713D01*
X036774Y003518D01*
X036568Y003328D01*
X036357Y003144D01*
X036141Y002964D01*
X035922Y002789D01*
X035698Y002620D01*
X035470Y002457D01*
X035238Y002298D01*
X035003Y002146D01*
X034764Y001999D01*
X034521Y001858D01*
X034276Y001723D01*
X034027Y001594D01*
X033774Y001471D01*
X033520Y001354D01*
X033262Y001244D01*
X033001Y001139D01*
X032739Y001041D01*
X032474Y000950D01*
X032206Y000864D01*
X031937Y000786D01*
X031666Y000713D01*
X031393Y000648D01*
X031119Y000589D01*
X030844Y000536D01*
X030567Y000490D01*
X030289Y000451D01*
X030011Y000419D01*
X029731Y000393D01*
X029451Y000375D01*
X029171Y000363D01*
X028891Y000357D01*
X029159Y000357D02*
X024828Y000357D01*
X020205Y009077D02*
X020207Y009119D01*
X020213Y009161D01*
X020223Y009202D01*
X020236Y009242D01*
X020254Y009280D01*
X020274Y009317D01*
X020299Y009352D01*
X020326Y009384D01*
X020356Y009413D01*
X020389Y009440D01*
X020424Y009463D01*
X020461Y009483D01*
X020500Y009499D01*
X020540Y009512D01*
X020581Y009521D01*
X020623Y009526D01*
X020666Y009527D01*
X020708Y009524D01*
X020749Y009517D01*
X020790Y009506D01*
X020830Y009492D01*
X020868Y009474D01*
X020904Y009452D01*
X020938Y009427D01*
X020969Y009399D01*
X020998Y009368D01*
X021024Y009335D01*
X021046Y009299D01*
X021066Y009261D01*
X021081Y009222D01*
X021093Y009182D01*
X021101Y009140D01*
X021105Y009098D01*
X021105Y009056D01*
X021101Y009014D01*
X021093Y008972D01*
X021081Y008932D01*
X021066Y008893D01*
X021046Y008855D01*
X021024Y008819D01*
X020998Y008786D01*
X020969Y008755D01*
X020938Y008727D01*
X020904Y008702D01*
X020868Y008680D01*
X020830Y008662D01*
X020790Y008648D01*
X020749Y008637D01*
X020708Y008630D01*
X020666Y008627D01*
X020623Y008628D01*
X020581Y008633D01*
X020540Y008642D01*
X020500Y008655D01*
X020461Y008671D01*
X020424Y008691D01*
X020389Y008714D01*
X020356Y008741D01*
X020326Y008770D01*
X020299Y008802D01*
X020274Y008837D01*
X020254Y008874D01*
X020236Y008912D01*
X020223Y008952D01*
X020213Y008993D01*
X020207Y009035D01*
X020205Y009077D01*
X013119Y009077D02*
X013121Y009119D01*
X013127Y009161D01*
X013137Y009202D01*
X013150Y009242D01*
X013168Y009280D01*
X013188Y009317D01*
X013213Y009352D01*
X013240Y009384D01*
X013270Y009413D01*
X013303Y009440D01*
X013338Y009463D01*
X013375Y009483D01*
X013414Y009499D01*
X013454Y009512D01*
X013495Y009521D01*
X013537Y009526D01*
X013580Y009527D01*
X013622Y009524D01*
X013663Y009517D01*
X013704Y009506D01*
X013744Y009492D01*
X013782Y009474D01*
X013818Y009452D01*
X013852Y009427D01*
X013883Y009399D01*
X013912Y009368D01*
X013938Y009335D01*
X013960Y009299D01*
X013980Y009261D01*
X013995Y009222D01*
X014007Y009182D01*
X014015Y009140D01*
X014019Y009098D01*
X014019Y009056D01*
X014015Y009014D01*
X014007Y008972D01*
X013995Y008932D01*
X013980Y008893D01*
X013960Y008855D01*
X013938Y008819D01*
X013912Y008786D01*
X013883Y008755D01*
X013852Y008727D01*
X013818Y008702D01*
X013782Y008680D01*
X013744Y008662D01*
X013704Y008648D01*
X013663Y008637D01*
X013622Y008630D01*
X013580Y008627D01*
X013537Y008628D01*
X013495Y008633D01*
X013454Y008642D01*
X013414Y008655D01*
X013375Y008671D01*
X013338Y008691D01*
X013303Y008714D01*
X013270Y008741D01*
X013240Y008770D01*
X013213Y008802D01*
X013188Y008837D01*
X013168Y008874D01*
X013150Y008912D01*
X013137Y008952D01*
X013127Y008993D01*
X013121Y009035D01*
X013119Y009077D01*
X002387Y010550D02*
X002389Y010600D01*
X002395Y010650D01*
X002405Y010699D01*
X002419Y010747D01*
X002436Y010794D01*
X002457Y010839D01*
X002482Y010883D01*
X002510Y010924D01*
X002542Y010963D01*
X002576Y011000D01*
X002613Y011034D01*
X002653Y011064D01*
X002695Y011091D01*
X002739Y011115D01*
X002785Y011136D01*
X002832Y011152D01*
X002880Y011165D01*
X002930Y011174D01*
X002979Y011179D01*
X003030Y011180D01*
X003080Y011177D01*
X003129Y011170D01*
X003178Y011159D01*
X003226Y011144D01*
X003272Y011126D01*
X003317Y011104D01*
X003360Y011078D01*
X003401Y011049D01*
X003440Y011017D01*
X003476Y010982D01*
X003508Y010944D01*
X003538Y010904D01*
X003565Y010861D01*
X003588Y010817D01*
X003607Y010771D01*
X003623Y010723D01*
X003635Y010674D01*
X003643Y010625D01*
X003647Y010575D01*
X003647Y010525D01*
X003643Y010475D01*
X003635Y010426D01*
X003623Y010377D01*
X003607Y010329D01*
X003588Y010283D01*
X003565Y010239D01*
X003538Y010196D01*
X003508Y010156D01*
X003476Y010118D01*
X003440Y010083D01*
X003401Y010051D01*
X003360Y010022D01*
X003317Y009996D01*
X003272Y009974D01*
X003226Y009956D01*
X003178Y009941D01*
X003129Y009930D01*
X003080Y009923D01*
X003030Y009920D01*
X002979Y009921D01*
X002930Y009926D01*
X002880Y009935D01*
X002832Y009948D01*
X002785Y009964D01*
X002739Y009985D01*
X002695Y010009D01*
X002653Y010036D01*
X002613Y010066D01*
X002576Y010100D01*
X002542Y010137D01*
X002510Y010176D01*
X002482Y010217D01*
X002457Y010261D01*
X002436Y010306D01*
X002419Y010353D01*
X002405Y010401D01*
X002395Y010450D01*
X002389Y010500D01*
X002387Y010550D01*
X002387Y019368D02*
X002389Y019418D01*
X002395Y019468D01*
X002405Y019517D01*
X002419Y019565D01*
X002436Y019612D01*
X002457Y019657D01*
X002482Y019701D01*
X002510Y019742D01*
X002542Y019781D01*
X002576Y019818D01*
X002613Y019852D01*
X002653Y019882D01*
X002695Y019909D01*
X002739Y019933D01*
X002785Y019954D01*
X002832Y019970D01*
X002880Y019983D01*
X002930Y019992D01*
X002979Y019997D01*
X003030Y019998D01*
X003080Y019995D01*
X003129Y019988D01*
X003178Y019977D01*
X003226Y019962D01*
X003272Y019944D01*
X003317Y019922D01*
X003360Y019896D01*
X003401Y019867D01*
X003440Y019835D01*
X003476Y019800D01*
X003508Y019762D01*
X003538Y019722D01*
X003565Y019679D01*
X003588Y019635D01*
X003607Y019589D01*
X003623Y019541D01*
X003635Y019492D01*
X003643Y019443D01*
X003647Y019393D01*
X003647Y019343D01*
X003643Y019293D01*
X003635Y019244D01*
X003623Y019195D01*
X003607Y019147D01*
X003588Y019101D01*
X003565Y019057D01*
X003538Y019014D01*
X003508Y018974D01*
X003476Y018936D01*
X003440Y018901D01*
X003401Y018869D01*
X003360Y018840D01*
X003317Y018814D01*
X003272Y018792D01*
X003226Y018774D01*
X003178Y018759D01*
X003129Y018748D01*
X003080Y018741D01*
X003030Y018738D01*
X002979Y018739D01*
X002930Y018744D01*
X002880Y018753D01*
X002832Y018766D01*
X002785Y018782D01*
X002739Y018803D01*
X002695Y018827D01*
X002653Y018854D01*
X002613Y018884D01*
X002576Y018918D01*
X002542Y018955D01*
X002510Y018994D01*
X002482Y019035D01*
X002457Y019079D01*
X002436Y019124D01*
X002419Y019171D01*
X002405Y019219D01*
X002395Y019268D01*
X002389Y019318D01*
X002387Y019368D01*
X024671Y029491D02*
X028765Y029491D01*
D11*
X006139Y004369D02*
X006139Y003719D01*
X005705Y004369D01*
X005705Y003719D01*
X005439Y003827D02*
X005439Y004261D01*
X005331Y004369D01*
X005114Y004369D01*
X005005Y004261D01*
X005005Y003827D01*
X005114Y003719D01*
X005331Y003719D01*
X005439Y003827D01*
X004739Y004369D02*
X004306Y003719D01*
X003823Y004044D02*
X003606Y004044D01*
X003606Y003719D02*
X003606Y004369D01*
X004039Y004369D01*
X003340Y004369D02*
X002906Y004369D01*
X002906Y003719D01*
X002640Y003827D02*
X002640Y004261D01*
X002531Y004369D01*
X002315Y004369D01*
X002206Y004261D01*
X002206Y003827D01*
X002315Y003719D01*
X002531Y003719D01*
X002640Y003827D01*
X002906Y004044D02*
X003123Y004044D01*
D12*
X003414Y007443D02*
X004348Y007443D01*
X005148Y007443D02*
X006083Y007443D01*
X006883Y007443D02*
X007818Y007443D01*
X008618Y007443D02*
X009553Y007443D01*
X009553Y008254D01*
X009553Y009054D02*
X009553Y009866D01*
X009553Y010666D02*
X009553Y011477D01*
X009553Y012277D02*
X009553Y013088D01*
X009553Y013888D02*
X009553Y014699D01*
X009553Y015499D02*
X009553Y016310D01*
X009553Y017110D02*
X009553Y017922D01*
X009553Y018722D02*
X009553Y019533D01*
X009553Y020333D02*
X009553Y021144D01*
X008618Y021144D01*
X007818Y021144D02*
X006883Y021144D01*
X006083Y021144D02*
X005148Y021144D01*
X004348Y021144D02*
X003414Y021144D01*
X002614Y021144D02*
X001679Y021144D01*
X001679Y020333D01*
X001679Y019533D02*
X001679Y018722D01*
X001679Y017922D02*
X001679Y017110D01*
X001679Y016310D02*
X001679Y015499D01*
X001679Y014699D02*
X001679Y013888D01*
X001679Y013088D02*
X001679Y012277D01*
X001679Y011477D02*
X001679Y010666D01*
X001679Y009866D02*
X001679Y009054D01*
X001679Y008254D02*
X001679Y007443D01*
X002614Y007443D01*
D13*
X002277Y006711D02*
X002277Y004711D01*
X006277Y004711D01*
X006277Y006711D01*
X002277Y006711D01*
X004848Y009531D02*
X004952Y009531D01*
X005055Y009634D01*
X005055Y009841D01*
X005159Y009944D01*
X005262Y009944D01*
X005366Y009841D01*
X005366Y009634D01*
X005262Y009531D01*
X004848Y009531D02*
X004745Y009634D01*
X004745Y009841D01*
X004848Y009944D01*
X004952Y010175D02*
X004952Y010485D01*
X005055Y010589D01*
X005262Y010589D01*
X005366Y010485D01*
X005366Y010175D01*
X005572Y010175D02*
X004952Y010175D01*
X005055Y010820D02*
X004952Y010923D01*
X004952Y011130D01*
X005055Y011233D01*
X005159Y011233D01*
X005159Y010820D01*
X005262Y010820D02*
X005055Y010820D01*
X005262Y010820D02*
X005366Y010923D01*
X005366Y011130D01*
X005262Y011464D02*
X005055Y011464D01*
X004952Y011568D01*
X004952Y011774D01*
X005055Y011878D01*
X005159Y011878D01*
X005159Y011464D01*
X005262Y011464D02*
X005366Y011568D01*
X005366Y011774D01*
X005262Y012109D02*
X005055Y012109D01*
X004952Y012212D01*
X004952Y012522D01*
X004745Y012522D02*
X005366Y012522D01*
X005366Y012212D01*
X005262Y012109D01*
X005262Y012753D02*
X004952Y012753D01*
X005262Y012753D02*
X005366Y012857D01*
X005366Y013167D01*
X005469Y013167D02*
X005572Y013064D01*
X005572Y012960D01*
X005469Y013167D02*
X004952Y013167D01*
X005795Y013183D02*
X005795Y013286D01*
X006416Y013286D01*
X006416Y013183D02*
X006416Y013390D01*
X006209Y012952D02*
X006209Y012538D01*
X006312Y012538D02*
X006105Y012538D01*
X006002Y012642D01*
X006002Y012849D01*
X006105Y012952D01*
X006209Y012952D01*
X006416Y012849D02*
X006416Y012642D01*
X006312Y012538D01*
X006209Y012308D02*
X006209Y011997D01*
X006312Y011894D01*
X006416Y011997D01*
X006416Y012308D01*
X006105Y012308D01*
X006002Y012204D01*
X006002Y011997D01*
X006105Y011663D02*
X006416Y011663D01*
X006105Y011663D02*
X006002Y011560D01*
X006002Y011353D01*
X006105Y011249D01*
X006002Y011018D02*
X006002Y010708D01*
X006105Y010605D01*
X006312Y010605D01*
X006416Y010708D01*
X006416Y011018D01*
X006416Y011249D02*
X005795Y011249D01*
X005795Y010278D02*
X005692Y010278D01*
X006002Y010278D02*
X006416Y010278D01*
X006416Y010175D02*
X006416Y010382D01*
X006002Y010278D02*
X006002Y010175D01*
X005795Y009944D02*
X006416Y009944D01*
X006416Y009531D02*
X005795Y009531D01*
X006002Y009737D01*
X005795Y009944D01*
X006845Y009841D02*
X006845Y009531D01*
X007466Y009531D01*
X007466Y009841D01*
X007362Y009944D01*
X006948Y009944D01*
X006845Y009841D01*
X007155Y010175D02*
X007052Y010278D01*
X007052Y010485D01*
X007155Y010589D01*
X007259Y010589D01*
X007259Y010175D01*
X007362Y010175D02*
X007155Y010175D01*
X007362Y010175D02*
X007466Y010278D01*
X007466Y010485D01*
X007466Y010820D02*
X007466Y011233D01*
X007362Y011464D02*
X007155Y011464D01*
X007052Y011568D01*
X007052Y011774D01*
X007155Y011878D01*
X007259Y011878D01*
X007259Y011464D01*
X007362Y011464D02*
X007466Y011568D01*
X007466Y011774D01*
X007466Y012109D02*
X007052Y012109D01*
X007052Y012212D01*
X007155Y012316D01*
X007052Y012419D01*
X007155Y012522D01*
X007466Y012522D01*
X007466Y012316D02*
X007155Y012316D01*
X007052Y012753D02*
X007052Y013064D01*
X007155Y013167D01*
X007362Y013167D01*
X007466Y013064D01*
X007466Y012753D01*
X006845Y012753D01*
X007155Y013398D02*
X007052Y013501D01*
X007052Y013708D01*
X007155Y013812D01*
X007259Y013812D01*
X007259Y013398D01*
X007362Y013398D02*
X007155Y013398D01*
X007362Y013398D02*
X007466Y013501D01*
X007466Y013708D01*
X007466Y014042D02*
X007052Y014042D01*
X007259Y014042D02*
X007052Y014249D01*
X007052Y014353D01*
X006416Y014361D02*
X006312Y014257D01*
X006416Y014361D02*
X006416Y014567D01*
X006312Y014671D01*
X006209Y014671D01*
X006105Y014567D01*
X006105Y014361D01*
X006002Y014257D01*
X005898Y014257D01*
X005795Y014361D01*
X005795Y014567D01*
X005898Y014671D01*
X006105Y014902D02*
X006312Y014902D01*
X006416Y015005D01*
X006416Y015315D01*
X006416Y015546D02*
X005795Y015546D01*
X006002Y015650D02*
X006002Y015857D01*
X006105Y015960D01*
X006416Y015960D01*
X006416Y016191D02*
X006002Y016191D01*
X006209Y016191D02*
X006002Y016398D01*
X006002Y016501D01*
X006105Y016728D02*
X006002Y016831D01*
X006002Y017038D01*
X006105Y017142D01*
X006209Y017142D01*
X006209Y016728D01*
X006312Y016728D02*
X006105Y016728D01*
X006312Y016728D02*
X006416Y016831D01*
X006416Y017038D01*
X006416Y017373D02*
X006416Y017579D01*
X006416Y017476D02*
X006002Y017476D01*
X006002Y017373D01*
X005795Y017476D02*
X005692Y017476D01*
X005366Y017464D02*
X005366Y017050D01*
X004952Y017464D01*
X004848Y017464D01*
X004745Y017361D01*
X004745Y017154D01*
X004848Y017050D01*
X004745Y016819D02*
X005159Y016819D01*
X005366Y016613D01*
X005159Y016406D01*
X004745Y016406D01*
X004952Y015538D02*
X004952Y015331D01*
X004848Y015435D02*
X005262Y015435D01*
X005366Y015538D01*
X005262Y015101D02*
X005055Y015101D01*
X004952Y014997D01*
X004952Y014790D01*
X005055Y014687D01*
X005262Y014687D01*
X005366Y014790D01*
X005366Y014997D01*
X005262Y015101D01*
X005262Y014456D02*
X005366Y014353D01*
X005366Y014042D01*
X004745Y014042D01*
X004745Y014353D01*
X004848Y014456D01*
X004952Y014456D01*
X005055Y014353D01*
X005055Y014042D01*
X005055Y014353D02*
X005159Y014456D01*
X005262Y014456D01*
X006002Y015005D02*
X006105Y014902D01*
X006002Y015005D02*
X006002Y015315D01*
X006105Y015546D02*
X006002Y015650D01*
X006845Y015534D02*
X006845Y015327D01*
X006948Y015224D01*
X006845Y015534D02*
X006948Y015638D01*
X007052Y015638D01*
X007466Y015224D01*
X007466Y015638D01*
X007362Y015869D02*
X006948Y015869D01*
X006845Y015972D01*
X006845Y016179D01*
X006948Y016282D01*
X007362Y015869D01*
X007466Y015972D01*
X007466Y016179D01*
X007362Y016282D01*
X006948Y016282D01*
X007052Y016513D02*
X006845Y016720D01*
X007466Y016720D01*
X007466Y016513D02*
X007466Y016927D01*
X007362Y017158D02*
X007466Y017261D01*
X007466Y017468D01*
X007362Y017571D01*
X006948Y017571D01*
X006845Y017468D01*
X006845Y017261D01*
X006948Y017158D01*
X007052Y017158D01*
X007155Y017261D01*
X007155Y017571D01*
X006416Y017802D02*
X006416Y018113D01*
X006312Y018216D01*
X006105Y018216D01*
X006002Y018113D01*
X006002Y017802D01*
X005795Y017802D02*
X006416Y017802D01*
X005366Y017798D02*
X005366Y017695D01*
X005262Y017695D01*
X005262Y017798D01*
X005366Y017798D01*
X005366Y018017D02*
X005366Y018431D01*
X005366Y018224D02*
X004745Y018224D01*
X004952Y018017D01*
X006002Y018550D02*
X006002Y018757D01*
X006105Y018860D01*
X006209Y018860D01*
X006209Y018447D01*
X006312Y018447D02*
X006105Y018447D01*
X006002Y018550D01*
X006312Y018447D02*
X006416Y018550D01*
X006416Y018757D01*
X006416Y019091D02*
X006002Y019091D01*
X006209Y019091D02*
X006002Y019298D01*
X006002Y019402D01*
X007052Y011233D02*
X007466Y010820D01*
X007052Y010820D02*
X007052Y011233D01*
X029354Y015048D02*
X029354Y015271D01*
X031804Y017721D01*
X032026Y017721D01*
X034476Y015271D01*
X034476Y015048D01*
X032026Y012599D01*
X031804Y012599D01*
X029354Y015048D01*
X036119Y017562D02*
X036519Y017562D01*
X036599Y017642D01*
X036599Y017802D01*
X036519Y017882D01*
X036119Y017882D01*
X036199Y018078D02*
X036279Y018078D01*
X036359Y018158D01*
X036359Y018318D01*
X036439Y018398D01*
X036519Y018398D01*
X036599Y018318D01*
X036599Y018158D01*
X036519Y018078D01*
X036199Y018078D02*
X036119Y018158D01*
X036119Y018318D01*
X036199Y018398D01*
X036119Y018593D02*
X036599Y018593D01*
X036599Y018914D01*
X036599Y019109D02*
X036119Y019109D01*
X036119Y019349D01*
X036199Y019429D01*
X036359Y019429D01*
X036439Y019349D01*
X036439Y019109D01*
X036439Y019269D02*
X036599Y019429D01*
X036519Y019767D02*
X036599Y019847D01*
X036599Y020007D01*
X036519Y020087D01*
X036439Y020087D01*
X036359Y020007D01*
X036359Y019847D01*
X036279Y019767D01*
X036199Y019767D01*
X036119Y019847D01*
X036119Y020007D01*
X036199Y020087D01*
X036119Y020282D02*
X036119Y020603D01*
X036119Y020443D02*
X036599Y020443D01*
X036599Y020798D02*
X036279Y020798D01*
X036119Y020958D01*
X036279Y021118D01*
X036599Y021118D01*
X036599Y021314D02*
X036119Y021314D01*
X036119Y021554D01*
X036199Y021634D01*
X036359Y021634D01*
X036439Y021554D01*
X036439Y021314D01*
X036439Y021474D02*
X036599Y021634D01*
X036599Y021989D02*
X036119Y021989D01*
X036119Y021829D02*
X036119Y022150D01*
X036119Y022601D02*
X036119Y022842D01*
X036199Y022922D01*
X036359Y022922D01*
X036439Y022842D01*
X036439Y022601D01*
X036599Y022601D02*
X036119Y022601D01*
X036439Y022762D02*
X036599Y022922D01*
X036599Y023117D02*
X036599Y023437D01*
X036519Y023633D02*
X036599Y023713D01*
X036599Y023873D01*
X036519Y023953D01*
X036439Y023953D01*
X036359Y023873D01*
X036359Y023713D01*
X036279Y023633D01*
X036199Y023633D01*
X036119Y023713D01*
X036119Y023873D01*
X036199Y023953D01*
X036119Y024148D02*
X036599Y024148D01*
X036599Y024469D01*
X036359Y024308D02*
X036359Y024148D01*
X036119Y024148D02*
X036119Y024469D01*
X036119Y024664D02*
X036119Y024984D01*
X036119Y024824D02*
X036599Y024824D01*
X036119Y023437D02*
X036119Y023117D01*
X036599Y023117D01*
X036359Y023117D02*
X036359Y023277D01*
X036359Y021118D02*
X036359Y020798D01*
X036119Y018914D02*
X036119Y018593D01*
X036359Y018593D02*
X036359Y018753D01*
D14*
X002622Y002271D02*
X002563Y002330D01*
X002563Y002447D01*
X002622Y002505D01*
X002738Y002505D02*
X002738Y002388D01*
X002738Y002505D02*
X002855Y002505D01*
X002914Y002447D01*
X002914Y002330D01*
X002855Y002271D01*
X002622Y002271D01*
X002563Y002640D02*
X002914Y002873D01*
X002563Y002873D01*
X002563Y003008D02*
X002563Y003183D01*
X002622Y003242D01*
X002855Y003242D01*
X002914Y003183D01*
X002914Y003008D01*
X002563Y003008D01*
X002563Y002640D02*
X002914Y002640D01*
X003186Y002929D02*
X003186Y003379D01*
X003036Y003379D02*
X003336Y003379D01*
X003496Y003379D02*
X003722Y003379D01*
X003797Y003304D01*
X003797Y003154D01*
X003722Y003079D01*
X003496Y003079D01*
X003496Y002929D02*
X003496Y003379D01*
X003957Y003304D02*
X004032Y003379D01*
X004182Y003379D01*
X004257Y003304D01*
X004257Y003229D01*
X003957Y002929D01*
X004257Y002929D01*
X004466Y002996D02*
X004466Y003146D01*
X004466Y002246D02*
X004466Y001996D01*
X004466Y001496D02*
X004466Y001246D01*
X006766Y001246D02*
X006766Y002246D01*
X006766Y002646D02*
X006766Y002746D01*
X006616Y002746D01*
X007300Y003246D02*
X007300Y002246D01*
X007300Y001846D02*
X007300Y001746D01*
X007450Y001746D01*
X009600Y001496D02*
X009600Y001346D01*
X009600Y002246D02*
X009600Y002496D01*
X009600Y002996D02*
X009600Y003246D01*
X011230Y003576D02*
X011230Y005938D01*
X013986Y005938D01*
X013986Y003576D01*
X012805Y003576D01*
X012805Y003970D01*
X012411Y003970D01*
X012411Y003576D01*
X011230Y003576D01*
X010230Y006109D02*
X009780Y006109D01*
X009780Y006259D02*
X009780Y005958D01*
X009780Y006419D02*
X009780Y006644D01*
X009855Y006719D01*
X010005Y006719D01*
X010080Y006644D01*
X010080Y006419D01*
X010230Y006419D02*
X009780Y006419D01*
X009855Y006879D02*
X009780Y006954D01*
X009780Y007104D01*
X009855Y007179D01*
X009930Y007179D01*
X010005Y007104D01*
X010080Y007179D01*
X010155Y007179D01*
X010230Y007104D01*
X010230Y006954D01*
X010155Y006879D01*
X010005Y007029D02*
X010005Y007104D01*
X012380Y010560D02*
X012380Y010710D01*
X012380Y010635D02*
X012830Y010635D01*
X012830Y010560D02*
X012830Y010710D01*
X012755Y010867D02*
X012830Y010942D01*
X012830Y011092D01*
X012755Y011167D01*
X012830Y011327D02*
X012830Y011627D01*
X012830Y011477D02*
X012380Y011477D01*
X012530Y011327D01*
X012455Y011167D02*
X012380Y011092D01*
X012380Y010942D01*
X012455Y010867D01*
X012755Y010867D01*
X012830Y011787D02*
X012530Y012088D01*
X012455Y012088D01*
X012380Y012013D01*
X012380Y011862D01*
X012455Y011787D01*
X012830Y011787D02*
X012830Y012088D01*
X017112Y012006D02*
X017112Y010848D01*
X017112Y010257D02*
X017112Y009099D01*
X017112Y008509D02*
X017112Y007351D01*
X017112Y006760D02*
X017112Y005602D01*
X017112Y005012D02*
X017112Y003854D01*
X017112Y003263D02*
X017112Y002105D01*
X017112Y001515D02*
X017112Y000357D01*
X024189Y001982D02*
X024489Y001982D01*
X024339Y001982D02*
X024339Y002432D01*
X024189Y002282D01*
X028170Y005319D02*
X028245Y005244D01*
X028395Y005244D01*
X028471Y005319D01*
X028471Y005394D01*
X028395Y005469D01*
X028245Y005469D01*
X028170Y005544D01*
X028170Y005619D01*
X028245Y005694D01*
X028395Y005694D01*
X028471Y005619D01*
X028631Y005694D02*
X028631Y005244D01*
X028631Y005394D02*
X028856Y005394D01*
X028931Y005469D01*
X028931Y005619D01*
X028856Y005694D01*
X028631Y005694D01*
X029091Y005544D02*
X029241Y005694D01*
X029241Y005244D01*
X029091Y005244D02*
X029391Y005244D01*
X031264Y002432D02*
X031414Y002432D01*
X031489Y002357D01*
X031489Y002282D01*
X031414Y002207D01*
X031264Y002207D01*
X031189Y002282D01*
X031189Y002357D01*
X031264Y002432D01*
X031264Y002207D02*
X031189Y002132D01*
X031189Y002057D01*
X031264Y001982D01*
X031414Y001982D01*
X031489Y002057D01*
X031489Y002132D01*
X031414Y002207D01*
X026684Y011585D02*
X026684Y011735D01*
X026684Y011660D02*
X026233Y011660D01*
X026233Y011585D02*
X026233Y011735D01*
X026308Y011892D02*
X026609Y011892D01*
X026684Y011967D01*
X026684Y012117D01*
X026609Y012192D01*
X026609Y012352D02*
X026534Y012352D01*
X026458Y012427D01*
X026458Y012578D01*
X026534Y012653D01*
X026609Y012653D01*
X026684Y012578D01*
X026684Y012427D01*
X026609Y012352D01*
X026458Y012427D02*
X026383Y012352D01*
X026308Y012352D01*
X026233Y012427D01*
X026233Y012578D01*
X026308Y012653D01*
X026383Y012653D01*
X026458Y012578D01*
X026308Y012192D02*
X026233Y012117D01*
X026233Y011967D01*
X026308Y011892D01*
X025528Y014935D02*
X025528Y015235D01*
X025528Y015085D02*
X025978Y015085D01*
X025978Y015395D02*
X025528Y015395D01*
X025528Y015620D01*
X025603Y015695D01*
X025753Y015695D01*
X025828Y015620D01*
X025828Y015395D01*
X025753Y015856D02*
X025753Y016156D01*
X025978Y016081D02*
X025528Y016081D01*
X025753Y015856D01*
X025891Y015908D02*
X027860Y015908D01*
X027860Y018664D01*
X025891Y018664D01*
X025891Y015908D01*
X024425Y017769D02*
X024425Y018070D01*
X024425Y017920D02*
X024876Y017920D01*
X024876Y018230D02*
X024425Y018230D01*
X024425Y018455D01*
X024500Y018530D01*
X024651Y018530D01*
X024726Y018455D01*
X024726Y018230D01*
X024801Y018690D02*
X024876Y018765D01*
X024876Y018915D01*
X024801Y018991D01*
X024651Y018991D01*
X024576Y018915D01*
X024576Y018840D01*
X024651Y018690D01*
X024425Y018690D01*
X024425Y018991D01*
X022576Y022569D02*
X022576Y024144D01*
X029269Y024144D01*
X029269Y022569D01*
X022576Y022569D01*
X023436Y024319D02*
X023436Y024669D01*
X023436Y024494D02*
X023670Y024494D01*
X023670Y024669D02*
X023670Y024319D01*
X023804Y024377D02*
X023863Y024319D01*
X023979Y024319D01*
X024038Y024377D01*
X024173Y024494D02*
X024406Y024494D01*
X024541Y024377D02*
X024541Y024611D01*
X024599Y024669D01*
X024716Y024669D01*
X024774Y024611D01*
X024541Y024377D01*
X024599Y024319D01*
X024716Y024319D01*
X024774Y024377D01*
X024774Y024611D01*
X024909Y024494D02*
X024909Y024377D01*
X024968Y024319D01*
X025084Y024319D01*
X025143Y024377D01*
X025143Y024435D01*
X025084Y024494D01*
X024909Y024494D01*
X025026Y024611D01*
X025143Y024669D01*
X025646Y024669D02*
X025646Y024319D01*
X025821Y024319D01*
X025879Y024377D01*
X025879Y024435D01*
X025821Y024494D01*
X025646Y024494D01*
X025646Y024669D02*
X025821Y024669D01*
X025879Y024611D01*
X025879Y024552D01*
X025821Y024494D01*
X026014Y024669D02*
X026073Y024669D01*
X026073Y024319D01*
X026131Y024319D02*
X026014Y024319D01*
X026260Y024377D02*
X026260Y024552D01*
X026260Y024377D02*
X026318Y024319D01*
X026493Y024319D01*
X026493Y024552D01*
X026628Y024494D02*
X026628Y024377D01*
X026686Y024319D01*
X026803Y024319D01*
X026862Y024435D02*
X026628Y024435D01*
X026628Y024494D02*
X026686Y024552D01*
X026803Y024552D01*
X026862Y024494D01*
X026862Y024435D01*
X026996Y024552D02*
X027113Y024552D01*
X027055Y024611D02*
X027055Y024377D01*
X027113Y024319D01*
X027242Y024377D02*
X027300Y024319D01*
X027417Y024319D01*
X027475Y024377D01*
X027475Y024494D01*
X027417Y024552D01*
X027300Y024552D01*
X027242Y024494D01*
X027242Y024377D01*
X027610Y024377D02*
X027610Y024494D01*
X027669Y024552D01*
X027785Y024552D01*
X027844Y024494D01*
X027844Y024377D01*
X027785Y024319D01*
X027669Y024319D01*
X027610Y024377D01*
X027979Y024552D02*
X028095Y024552D01*
X028037Y024611D02*
X028037Y024377D01*
X028095Y024319D01*
X028224Y024319D02*
X028224Y024669D01*
X028282Y024552D02*
X028224Y024494D01*
X028282Y024552D02*
X028399Y024552D01*
X028458Y024494D01*
X028458Y024319D01*
X030517Y024374D02*
X030592Y024299D01*
X030667Y024299D01*
X030742Y024374D01*
X030742Y024524D01*
X030817Y024599D01*
X030892Y024599D01*
X030968Y024524D01*
X030968Y024374D01*
X030892Y024299D01*
X030517Y024374D02*
X030517Y024524D01*
X030592Y024599D01*
X030517Y024909D02*
X030517Y025059D01*
X030517Y024984D02*
X030892Y024984D01*
X030968Y024909D01*
X030968Y024834D01*
X030892Y024759D01*
X030968Y025219D02*
X030667Y025520D01*
X030592Y025520D01*
X030517Y025445D01*
X030517Y025294D01*
X030592Y025219D01*
X030968Y025219D02*
X030968Y025520D01*
X030872Y023719D02*
X031372Y023719D01*
X031572Y023519D01*
X031772Y023719D01*
X032372Y023719D01*
X032572Y023519D01*
X032772Y023719D01*
X033272Y023719D01*
X033572Y023419D01*
X033572Y022019D01*
X033272Y021719D01*
X032772Y021719D01*
X032572Y021919D01*
X032372Y021719D01*
X031772Y021719D01*
X031572Y021919D01*
X031372Y021719D01*
X030872Y021719D01*
X030572Y022019D01*
X030572Y023419D01*
X030872Y023719D01*
X036935Y023428D02*
X036935Y022325D01*
X038549Y022325D01*
X038549Y023428D01*
X036935Y023428D01*
X037305Y023211D02*
X038179Y023211D01*
X038179Y022542D01*
X037305Y022542D01*
X037305Y023211D01*
X036935Y021223D02*
X036935Y020120D01*
X038549Y020120D01*
X038549Y021223D01*
X036935Y021223D01*
X037305Y021006D02*
X037305Y020337D01*
X038179Y020337D01*
X038179Y021006D01*
X037305Y021006D01*
X036935Y019491D02*
X036935Y018388D01*
X038549Y018388D01*
X038549Y019491D01*
X036935Y019491D01*
X037305Y019274D02*
X037305Y018605D01*
X038179Y018605D01*
X038179Y019274D01*
X037305Y019274D01*
X024038Y024611D02*
X023979Y024669D01*
X023863Y024669D01*
X023804Y024611D01*
X023804Y024377D01*
X024189Y028982D02*
X024489Y028982D01*
X024339Y028982D02*
X024339Y029432D01*
X024189Y029282D01*
X031189Y029282D02*
X031189Y029357D01*
X031264Y029432D01*
X031414Y029432D01*
X031489Y029357D01*
X031489Y029282D01*
X031414Y029207D01*
X031264Y029207D01*
X031189Y029282D01*
X031264Y029207D02*
X031189Y029132D01*
X031189Y029057D01*
X031264Y028982D01*
X031414Y028982D01*
X031489Y029057D01*
X031489Y029132D01*
X031414Y029207D01*
X017112Y029491D02*
X017112Y028333D01*
X017112Y027742D02*
X017112Y026584D01*
X017112Y025994D02*
X017112Y024836D01*
X017112Y024245D02*
X017112Y023087D01*
X017112Y022497D02*
X017112Y021339D01*
X017112Y020748D02*
X017112Y019590D01*
X017112Y019000D02*
X017112Y017842D01*
X017112Y017251D02*
X017112Y016093D01*
X017112Y015503D02*
X017112Y014345D01*
X017112Y013754D02*
X017112Y012596D01*
X003346Y022625D02*
X003271Y022550D01*
X003346Y022625D02*
X003346Y022700D01*
X003271Y022775D01*
X002896Y022775D01*
X002896Y022700D02*
X002896Y022850D01*
X002896Y023011D02*
X002896Y023236D01*
X002971Y023311D01*
X003121Y023311D01*
X003196Y023236D01*
X003196Y023011D01*
X003346Y023011D02*
X002896Y023011D01*
X003046Y023471D02*
X002896Y023621D01*
X003346Y023621D01*
X003346Y023471D02*
X003346Y023771D01*
X003103Y025681D02*
X003103Y025831D01*
X003103Y025756D02*
X002653Y025756D01*
X002653Y025681D02*
X002653Y025831D01*
X002728Y025988D02*
X003028Y025988D01*
X003103Y026063D01*
X003103Y026213D01*
X003028Y026288D01*
X003103Y026448D02*
X003103Y026748D01*
X003103Y026598D02*
X002653Y026598D01*
X002803Y026448D01*
X002728Y026288D02*
X002653Y026213D01*
X002653Y026063D01*
X002728Y025988D01*
X007123Y023752D02*
X007423Y023752D01*
X007273Y023752D02*
X007273Y023301D01*
X007583Y023301D02*
X007583Y023752D01*
X007809Y023752D01*
X007884Y023677D01*
X007884Y023527D01*
X007809Y023451D01*
X007583Y023451D01*
X008044Y023301D02*
X008344Y023301D01*
X008194Y023301D02*
X008194Y023752D01*
X008044Y023602D01*
X011261Y023909D02*
X014017Y023909D01*
X014017Y026271D01*
X012836Y026271D01*
X012836Y025877D01*
X012442Y025877D01*
X012442Y026271D01*
X011261Y026271D01*
X011261Y023909D01*
D15*
X005901Y025660D02*
X003441Y025660D01*
X003441Y027022D01*
X005901Y027022D01*
X005901Y025660D01*
X002651Y024099D02*
X002651Y023599D01*
X002401Y023349D01*
X002651Y023099D01*
X002651Y022599D01*
X002401Y022349D01*
X001901Y022349D01*
X001651Y022599D01*
X001651Y023099D01*
X001901Y023349D01*
X001651Y023599D01*
X001651Y024099D01*
X001901Y024349D01*
X002401Y024349D01*
X002651Y024099D01*
X002401Y023349D02*
X001901Y023349D01*
X009740Y013321D02*
X012200Y013321D01*
X012200Y011959D01*
X009740Y011959D01*
X009740Y013321D01*
X002131Y006202D02*
X002024Y006309D01*
X001918Y006309D01*
X001811Y006202D01*
X001811Y005882D01*
X002024Y005882D01*
X002131Y005988D01*
X002131Y006202D01*
X001811Y005882D02*
X001597Y006095D01*
X001490Y006309D01*
X001597Y005664D02*
X001490Y005557D01*
X001490Y005344D01*
X001597Y005237D01*
X001704Y005237D01*
X001811Y005344D01*
X001811Y005557D01*
X001918Y005664D01*
X002024Y005664D01*
X002131Y005557D01*
X002131Y005344D01*
X002024Y005237D01*
X023134Y011725D02*
X023554Y011725D01*
X023954Y011725D01*
X024374Y011725D01*
X024397Y011727D01*
X024420Y011732D01*
X024442Y011741D01*
X024462Y011754D01*
X024480Y011769D01*
X024495Y011787D01*
X024508Y011807D01*
X024517Y011829D01*
X024522Y011852D01*
X024524Y011875D01*
X023954Y011725D02*
X023952Y011752D01*
X023947Y011779D01*
X023937Y011805D01*
X023925Y011829D01*
X023909Y011851D01*
X023891Y011871D01*
X023869Y011888D01*
X023846Y011903D01*
X023821Y011913D01*
X023795Y011921D01*
X023768Y011925D01*
X023740Y011925D01*
X023713Y011921D01*
X023687Y011913D01*
X023662Y011903D01*
X023639Y011888D01*
X023617Y011871D01*
X023599Y011851D01*
X023583Y011829D01*
X023571Y011805D01*
X023561Y011779D01*
X023556Y011752D01*
X023554Y011725D01*
X023134Y011725D02*
X023111Y011727D01*
X023088Y011732D01*
X023066Y011741D01*
X023046Y011754D01*
X023028Y011769D01*
X023013Y011787D01*
X023000Y011807D01*
X022991Y011829D01*
X022986Y011852D01*
X022984Y011875D01*
X022984Y015075D02*
X022986Y015098D01*
X022991Y015121D01*
X023000Y015143D01*
X023013Y015163D01*
X023028Y015181D01*
X023046Y015196D01*
X023066Y015209D01*
X023088Y015218D01*
X023111Y015223D01*
X023134Y015225D01*
X024374Y015225D01*
X024397Y015223D01*
X024420Y015218D01*
X024442Y015209D01*
X024462Y015196D01*
X024480Y015181D01*
X024495Y015163D01*
X024508Y015143D01*
X024517Y015121D01*
X024522Y015098D01*
X024524Y015075D01*
X030843Y020859D02*
X031270Y020859D01*
X031056Y020859D02*
X031056Y021500D01*
X030843Y021286D01*
X030168Y022699D02*
X029568Y022699D01*
X029551Y022701D01*
X029534Y022705D01*
X029518Y022712D01*
X029504Y022722D01*
X029491Y022735D01*
X029481Y022749D01*
X029474Y022765D01*
X029470Y022782D01*
X029468Y022799D01*
X029468Y023899D01*
X029470Y023916D01*
X029474Y023933D01*
X029481Y023949D01*
X029491Y023963D01*
X029504Y023976D01*
X029518Y023986D01*
X029534Y023993D01*
X029551Y023997D01*
X029568Y023999D01*
X030168Y023999D01*
X030185Y023997D01*
X030202Y023993D01*
X030218Y023986D01*
X030232Y023976D01*
X030245Y023963D01*
X030255Y023949D01*
X030262Y023933D01*
X030266Y023916D01*
X030268Y023899D01*
X030268Y022799D01*
X030266Y022782D01*
X030262Y022765D01*
X030255Y022749D01*
X030245Y022735D01*
X030232Y022722D01*
X030218Y022712D01*
X030202Y022705D01*
X030185Y022701D01*
X030168Y022699D01*
X024183Y027001D02*
X023756Y027001D01*
X023969Y027001D02*
X023969Y027641D01*
X023756Y027428D01*
X023864Y027857D02*
X024764Y027857D01*
X024864Y027957D01*
X024964Y027857D01*
X025764Y027857D01*
X025864Y027957D01*
X025964Y027857D01*
X026764Y027857D01*
X026864Y027957D01*
X026964Y027857D01*
X027764Y027857D01*
X027864Y027957D01*
X027964Y027857D01*
X028764Y027857D01*
X028864Y027957D01*
X028964Y027857D01*
X029764Y027857D01*
X029864Y027957D01*
X029964Y027857D01*
X030764Y027857D01*
X030864Y027957D01*
X030964Y027857D01*
X031864Y027857D01*
X031864Y028857D01*
X030964Y028857D01*
X030864Y028757D01*
X030764Y028857D01*
X029964Y028857D01*
X029864Y028757D01*
X029764Y028857D01*
X028964Y028857D01*
X028864Y028757D01*
X028764Y028857D01*
X027964Y028857D01*
X027864Y028757D01*
X027764Y028857D01*
X026964Y028857D01*
X026864Y028757D01*
X026764Y028857D01*
X025964Y028857D01*
X025864Y028757D01*
X025764Y028857D01*
X024964Y028857D01*
X024864Y028757D01*
X024764Y028857D01*
X023864Y028857D01*
X023864Y027857D01*
X023250Y025087D02*
X023250Y024647D01*
X022957Y025087D01*
X022957Y024647D01*
X022790Y024647D02*
X022496Y024647D01*
X022496Y025087D01*
X022790Y025087D01*
X022643Y024867D02*
X022496Y024867D01*
X032102Y028210D02*
X032102Y028317D01*
X032209Y028423D01*
X032423Y028423D01*
X032529Y028317D01*
X032529Y028210D01*
X032423Y028103D01*
X032209Y028103D01*
X032102Y028210D01*
X032209Y028423D02*
X032102Y028530D01*
X032102Y028637D01*
X032209Y028744D01*
X032423Y028744D01*
X032529Y028637D01*
X032529Y028530D01*
X032423Y028423D01*
X036057Y017053D02*
X035906Y016902D01*
X035906Y016751D01*
X035752Y016597D02*
X035601Y016597D01*
X035450Y016446D01*
X035450Y016295D01*
X035752Y015993D01*
X035903Y015993D01*
X036054Y016144D01*
X036054Y016295D01*
X036284Y016373D02*
X036284Y016977D01*
X036208Y017053D01*
X036057Y017053D01*
X036585Y016675D02*
X036284Y016373D01*
X035675Y015765D02*
X035524Y015614D01*
X035599Y015689D02*
X035146Y016142D01*
X035071Y016067D02*
X035222Y016218D01*
X031798Y009116D02*
X031798Y008716D01*
X031498Y008916D02*
X031500Y008950D01*
X031506Y008984D01*
X031515Y009017D01*
X031529Y009048D01*
X031546Y009078D01*
X031566Y009106D01*
X031589Y009131D01*
X031615Y009154D01*
X031643Y009173D01*
X031673Y009189D01*
X031705Y009201D01*
X031738Y009210D01*
X031772Y009215D01*
X031807Y009216D01*
X031841Y009213D01*
X031874Y009206D01*
X031907Y009196D01*
X031938Y009181D01*
X031967Y009164D01*
X031994Y009143D01*
X032019Y009119D01*
X032041Y009092D01*
X032059Y009064D01*
X032074Y009033D01*
X032086Y009001D01*
X032094Y008967D01*
X032098Y008933D01*
X032098Y008899D01*
X032094Y008865D01*
X032086Y008831D01*
X032074Y008799D01*
X032059Y008768D01*
X032041Y008740D01*
X032019Y008713D01*
X031994Y008689D01*
X031967Y008668D01*
X031938Y008651D01*
X031907Y008636D01*
X031874Y008626D01*
X031841Y008619D01*
X031807Y008616D01*
X031772Y008617D01*
X031738Y008622D01*
X031705Y008631D01*
X031673Y008643D01*
X031643Y008659D01*
X031615Y008678D01*
X031589Y008701D01*
X031566Y008726D01*
X031546Y008754D01*
X031529Y008784D01*
X031515Y008815D01*
X031506Y008848D01*
X031500Y008882D01*
X031498Y008916D01*
X031598Y008916D02*
X031998Y008916D01*
X028098Y007916D02*
X028100Y008014D01*
X028106Y008112D01*
X028116Y008209D01*
X028130Y008306D01*
X028148Y008402D01*
X028170Y008498D01*
X028195Y008592D01*
X028225Y008686D01*
X028258Y008778D01*
X028295Y008868D01*
X028336Y008957D01*
X028380Y009045D01*
X028428Y009130D01*
X028479Y009214D01*
X028534Y009295D01*
X028591Y009374D01*
X028653Y009450D01*
X028717Y009524D01*
X028784Y009596D01*
X028854Y009664D01*
X028926Y009730D01*
X029002Y009792D01*
X029079Y009852D01*
X029160Y009908D01*
X029242Y009961D01*
X029326Y010011D01*
X029413Y010057D01*
X029501Y010099D01*
X029591Y010138D01*
X029682Y010173D01*
X029775Y010205D01*
X029869Y010232D01*
X029964Y010256D01*
X030060Y010276D01*
X030156Y010292D01*
X030254Y010304D01*
X030351Y010312D01*
X030449Y010316D01*
X030547Y010316D01*
X030645Y010312D01*
X030742Y010304D01*
X030840Y010292D01*
X030936Y010276D01*
X031032Y010256D01*
X031127Y010232D01*
X031221Y010205D01*
X031314Y010173D01*
X031405Y010138D01*
X031495Y010099D01*
X031583Y010057D01*
X031670Y010011D01*
X031754Y009961D01*
X031836Y009908D01*
X031917Y009852D01*
X031994Y009792D01*
X032070Y009730D01*
X032142Y009664D01*
X032212Y009596D01*
X032279Y009524D01*
X032343Y009450D01*
X032405Y009374D01*
X032462Y009295D01*
X032517Y009214D01*
X032568Y009130D01*
X032616Y009045D01*
X032660Y008957D01*
X032701Y008868D01*
X032738Y008778D01*
X032771Y008686D01*
X032801Y008592D01*
X032826Y008498D01*
X032848Y008402D01*
X032866Y008306D01*
X032880Y008209D01*
X032890Y008112D01*
X032896Y008014D01*
X032898Y007916D01*
X032896Y007818D01*
X032890Y007720D01*
X032880Y007623D01*
X032866Y007526D01*
X032848Y007430D01*
X032826Y007334D01*
X032801Y007240D01*
X032771Y007146D01*
X032738Y007054D01*
X032701Y006964D01*
X032660Y006875D01*
X032616Y006787D01*
X032568Y006702D01*
X032517Y006618D01*
X032462Y006537D01*
X032405Y006458D01*
X032343Y006382D01*
X032279Y006308D01*
X032212Y006236D01*
X032142Y006168D01*
X032070Y006102D01*
X031994Y006040D01*
X031917Y005980D01*
X031836Y005924D01*
X031754Y005871D01*
X031670Y005821D01*
X031583Y005775D01*
X031495Y005733D01*
X031405Y005694D01*
X031314Y005659D01*
X031221Y005627D01*
X031127Y005600D01*
X031032Y005576D01*
X030936Y005556D01*
X030840Y005540D01*
X030742Y005528D01*
X030645Y005520D01*
X030547Y005516D01*
X030449Y005516D01*
X030351Y005520D01*
X030254Y005528D01*
X030156Y005540D01*
X030060Y005556D01*
X029964Y005576D01*
X029869Y005600D01*
X029775Y005627D01*
X029682Y005659D01*
X029591Y005694D01*
X029501Y005733D01*
X029413Y005775D01*
X029326Y005821D01*
X029242Y005871D01*
X029160Y005924D01*
X029079Y005980D01*
X029002Y006040D01*
X028926Y006102D01*
X028854Y006168D01*
X028784Y006236D01*
X028717Y006308D01*
X028653Y006382D01*
X028591Y006458D01*
X028534Y006537D01*
X028479Y006618D01*
X028428Y006702D01*
X028380Y006787D01*
X028336Y006875D01*
X028295Y006964D01*
X028258Y007054D01*
X028225Y007146D01*
X028195Y007240D01*
X028170Y007334D01*
X028148Y007430D01*
X028130Y007526D01*
X028116Y007623D01*
X028106Y007720D01*
X028100Y007818D01*
X028098Y007916D01*
X029998Y007916D02*
X030000Y007960D01*
X030006Y008004D01*
X030016Y008047D01*
X030029Y008089D01*
X030046Y008130D01*
X030067Y008169D01*
X030091Y008206D01*
X030118Y008241D01*
X030148Y008273D01*
X030181Y008303D01*
X030217Y008329D01*
X030254Y008353D01*
X030294Y008372D01*
X030335Y008389D01*
X030378Y008401D01*
X030421Y008410D01*
X030465Y008415D01*
X030509Y008416D01*
X030553Y008413D01*
X030597Y008406D01*
X030640Y008395D01*
X030682Y008381D01*
X030722Y008363D01*
X030761Y008341D01*
X030797Y008317D01*
X030831Y008289D01*
X030863Y008258D01*
X030892Y008224D01*
X030918Y008188D01*
X030940Y008150D01*
X030959Y008110D01*
X030974Y008068D01*
X030986Y008026D01*
X030994Y007982D01*
X030998Y007938D01*
X030998Y007894D01*
X030994Y007850D01*
X030986Y007806D01*
X030974Y007764D01*
X030959Y007722D01*
X030940Y007682D01*
X030918Y007644D01*
X030892Y007608D01*
X030863Y007574D01*
X030831Y007543D01*
X030797Y007515D01*
X030761Y007491D01*
X030722Y007469D01*
X030682Y007451D01*
X030640Y007437D01*
X030597Y007426D01*
X030553Y007419D01*
X030509Y007416D01*
X030465Y007417D01*
X030421Y007422D01*
X030378Y007431D01*
X030335Y007443D01*
X030294Y007460D01*
X030254Y007479D01*
X030217Y007503D01*
X030181Y007529D01*
X030148Y007559D01*
X030118Y007591D01*
X030091Y007626D01*
X030067Y007663D01*
X030046Y007702D01*
X030029Y007743D01*
X030016Y007785D01*
X030006Y007828D01*
X030000Y007872D01*
X029998Y007916D01*
X029964Y001857D02*
X030764Y001857D01*
X030864Y001757D01*
X030964Y001857D01*
X031864Y001857D01*
X031864Y000857D01*
X030964Y000857D01*
X030864Y000957D01*
X030764Y000857D01*
X029964Y000857D01*
X029864Y000957D01*
X029764Y000857D01*
X028964Y000857D01*
X028864Y000957D01*
X028764Y000857D01*
X027964Y000857D01*
X027864Y000957D01*
X027764Y000857D01*
X026964Y000857D01*
X026864Y000957D01*
X026764Y000857D01*
X025964Y000857D01*
X025864Y000957D01*
X025764Y000857D01*
X024964Y000857D01*
X024864Y000957D01*
X024764Y000857D01*
X023864Y000857D01*
X023864Y001857D01*
X024764Y001857D01*
X024864Y001757D01*
X024964Y001857D01*
X025764Y001857D01*
X025864Y001757D01*
X025964Y001857D01*
X026764Y001857D01*
X026864Y001757D01*
X026964Y001857D01*
X027764Y001857D01*
X027864Y001757D01*
X027964Y001857D01*
X028764Y001857D01*
X028864Y001757D01*
X028964Y001857D01*
X029764Y001857D01*
X029864Y001757D01*
X029964Y001857D01*
D16*
X017811Y010856D02*
X017520Y010856D01*
X017520Y011001D01*
X017569Y011049D01*
X017665Y011049D01*
X017714Y011001D01*
X017714Y010856D01*
X017714Y010952D02*
X017811Y011049D01*
X017859Y011150D02*
X017859Y011344D01*
X017811Y011445D02*
X017520Y011445D01*
X017617Y011542D01*
X017520Y011638D01*
X017811Y011638D01*
X017762Y011740D02*
X017811Y011788D01*
X017811Y011885D01*
X017762Y011933D01*
X017569Y011933D01*
X017520Y011885D01*
X017520Y011788D01*
X017569Y011740D01*
X017762Y011740D01*
X017520Y012034D02*
X017520Y012228D01*
X017520Y012131D02*
X017811Y012131D01*
X017762Y012329D02*
X017811Y012377D01*
X017811Y012474D01*
X017762Y012522D01*
X017569Y012522D01*
X017520Y012474D01*
X017520Y012377D01*
X017569Y012329D01*
X017762Y012329D01*
X017714Y012624D02*
X017714Y012769D01*
X017665Y012817D01*
X017569Y012817D01*
X017520Y012769D01*
X017520Y012624D01*
X017811Y012624D01*
X017714Y012720D02*
X017811Y012817D01*
X017859Y012918D02*
X017859Y013112D01*
X017811Y013213D02*
X017811Y013358D01*
X017762Y013406D01*
X017714Y013406D01*
X017665Y013358D01*
X017665Y013213D01*
X017520Y013213D02*
X017811Y013213D01*
X017665Y013358D02*
X017617Y013406D01*
X017569Y013406D01*
X017520Y013358D01*
X017520Y013213D01*
X016678Y013112D02*
X016678Y012918D01*
X016629Y012817D02*
X016533Y012720D01*
X016533Y012769D02*
X016533Y012624D01*
X016629Y012624D02*
X016339Y012624D01*
X016339Y012769D01*
X016388Y012817D01*
X016484Y012817D01*
X016533Y012769D01*
X016581Y012522D02*
X016388Y012522D01*
X016339Y012474D01*
X016339Y012377D01*
X016388Y012329D01*
X016581Y012329D01*
X016629Y012377D01*
X016629Y012474D01*
X016581Y012522D01*
X016339Y012228D02*
X016339Y012034D01*
X016339Y012131D02*
X016629Y012131D01*
X016581Y011933D02*
X016388Y011933D01*
X016339Y011885D01*
X016339Y011788D01*
X016388Y011740D01*
X016581Y011740D01*
X016629Y011788D01*
X016629Y011885D01*
X016581Y011933D01*
X016629Y011638D02*
X016339Y011638D01*
X016436Y011542D01*
X016339Y011445D01*
X016629Y011445D01*
X016678Y011344D02*
X016678Y011150D01*
X016629Y011049D02*
X016533Y010952D01*
X016533Y011001D02*
X016533Y010856D01*
X016629Y010856D02*
X016339Y010856D01*
X016339Y011001D01*
X016388Y011049D01*
X016484Y011049D01*
X016533Y011001D01*
X016484Y013213D02*
X016484Y013406D01*
X016436Y013406D02*
X016629Y013406D01*
X016436Y013406D02*
X016339Y013310D01*
X016436Y013213D01*
X016629Y013213D01*
X016629Y016224D02*
X016629Y016417D01*
X016678Y016518D02*
X016678Y016712D01*
X016629Y016813D02*
X016339Y016813D01*
X016436Y016910D01*
X016339Y017007D01*
X016629Y017007D01*
X016581Y017108D02*
X016629Y017156D01*
X016629Y017253D01*
X016581Y017301D01*
X016388Y017301D01*
X016339Y017253D01*
X016339Y017156D01*
X016388Y017108D01*
X016581Y017108D01*
X016339Y017402D02*
X016339Y017596D01*
X016339Y017499D02*
X016629Y017499D01*
X016581Y017697D02*
X016629Y017745D01*
X016629Y017842D01*
X016581Y017890D01*
X016388Y017890D01*
X016339Y017842D01*
X016339Y017745D01*
X016388Y017697D01*
X016581Y017697D01*
X016533Y017992D02*
X016533Y018137D01*
X016484Y018185D01*
X016388Y018185D01*
X016339Y018137D01*
X016339Y017992D01*
X016629Y017992D01*
X016533Y018088D02*
X016629Y018185D01*
X016678Y018286D02*
X016678Y018480D01*
X016629Y018581D02*
X016629Y018726D01*
X016581Y018774D01*
X016533Y018774D01*
X016484Y018726D01*
X016484Y018581D01*
X016339Y018581D02*
X016339Y018726D01*
X016388Y018774D01*
X016436Y018774D01*
X016484Y018726D01*
X016629Y018581D02*
X016339Y018581D01*
X017520Y018678D02*
X017617Y018774D01*
X017811Y018774D01*
X017665Y018774D02*
X017665Y018581D01*
X017617Y018581D02*
X017520Y018678D01*
X017617Y018581D02*
X017811Y018581D01*
X017859Y018480D02*
X017859Y018286D01*
X017811Y018185D02*
X017714Y018088D01*
X017714Y018137D02*
X017714Y017992D01*
X017811Y017992D02*
X017520Y017992D01*
X017520Y018137D01*
X017569Y018185D01*
X017665Y018185D01*
X017714Y018137D01*
X017762Y017890D02*
X017569Y017890D01*
X017520Y017842D01*
X017520Y017745D01*
X017569Y017697D01*
X017762Y017697D01*
X017811Y017745D01*
X017811Y017842D01*
X017762Y017890D01*
X017520Y017596D02*
X017520Y017402D01*
X017520Y017499D02*
X017811Y017499D01*
X017762Y017301D02*
X017569Y017301D01*
X017520Y017253D01*
X017520Y017156D01*
X017569Y017108D01*
X017762Y017108D01*
X017811Y017156D01*
X017811Y017253D01*
X017762Y017301D01*
X017811Y017007D02*
X017520Y017007D01*
X017617Y016910D01*
X017520Y016813D01*
X017811Y016813D01*
X017859Y016712D02*
X017859Y016518D01*
X017811Y016417D02*
X017811Y016224D01*
X017520Y016224D01*
X016629Y016224D02*
X016339Y016224D01*
X011906Y017498D02*
X011906Y017621D01*
X011845Y017683D01*
X011906Y017804D02*
X011906Y018051D01*
X011906Y017928D02*
X011536Y017928D01*
X011659Y017804D01*
X011598Y017683D02*
X011536Y017621D01*
X011536Y017498D01*
X011598Y017436D01*
X011845Y017436D01*
X011906Y017498D01*
X011845Y018173D02*
X011906Y018234D01*
X011906Y018358D01*
X011845Y018420D01*
X011598Y018420D01*
X011536Y018358D01*
X011536Y018234D01*
X011598Y018173D01*
X011659Y018173D01*
X011721Y018234D01*
X011721Y018420D01*
X022629Y022872D02*
X022876Y022872D01*
X022752Y022872D02*
X022752Y023242D01*
X022629Y023119D01*
X030287Y021657D02*
X030657Y021657D01*
X030657Y021534D02*
X030657Y021781D01*
X030411Y021534D02*
X030287Y021657D01*
X036864Y023738D02*
X036926Y023676D01*
X037050Y023676D01*
X037111Y023738D01*
X037111Y023800D01*
X037050Y023862D01*
X036926Y023862D01*
X036864Y023923D01*
X036864Y023985D01*
X036926Y024047D01*
X037050Y024047D01*
X037111Y023985D01*
X037233Y024047D02*
X037233Y023676D01*
X037356Y023800D01*
X037480Y023676D01*
X037480Y024047D01*
X037601Y023985D02*
X037663Y024047D01*
X037786Y024047D01*
X037848Y023985D01*
X037848Y023923D01*
X037786Y023862D01*
X037848Y023800D01*
X037848Y023738D01*
X037786Y023676D01*
X037663Y023676D01*
X037601Y023738D01*
X037724Y023862D02*
X037786Y023862D01*
X039227Y021143D02*
X039227Y020896D01*
X039227Y020774D02*
X038856Y020774D01*
X038980Y020896D02*
X038856Y021019D01*
X039227Y021019D01*
X039227Y020774D02*
X039103Y020651D01*
X039227Y020527D01*
X038856Y020527D01*
X038918Y020406D02*
X038856Y020344D01*
X038856Y020221D01*
X038918Y020159D01*
X038980Y020159D01*
X039042Y020221D01*
X039042Y020344D01*
X039103Y020406D01*
X039165Y020406D01*
X039227Y020344D01*
X039227Y020221D01*
X039165Y020159D01*
X039227Y019410D02*
X039227Y019163D01*
X038980Y019410D01*
X038918Y019410D01*
X038856Y019349D01*
X038856Y019225D01*
X038918Y019163D01*
X038856Y019042D02*
X039227Y019042D01*
X039103Y018919D01*
X039227Y018795D01*
X038856Y018795D01*
X038918Y018674D02*
X038856Y018612D01*
X038856Y018489D01*
X038918Y018427D01*
X038980Y018427D01*
X039042Y018489D01*
X039042Y018612D01*
X039103Y018674D01*
X039165Y018674D01*
X039227Y018612D01*
X039227Y018489D01*
X039165Y018427D01*
D17*
X035851Y018453D02*
X035797Y018398D01*
X035363Y018392D01*
X035583Y018178D01*
X035851Y018453D02*
X035850Y018561D01*
X035740Y018668D01*
X035631Y018667D01*
X035465Y018936D02*
X035144Y018607D01*
X035034Y018714D02*
X035254Y018500D01*
X035248Y018934D02*
X035465Y018936D01*
X035192Y019096D02*
X035191Y019204D01*
X035081Y019311D01*
X034972Y019310D01*
X034758Y019090D01*
X034759Y018982D01*
X034869Y018875D01*
X034978Y018876D01*
X033127Y019812D02*
X032667Y019812D01*
X032667Y020042D01*
X032744Y020119D01*
X032897Y020119D01*
X032974Y020042D01*
X032974Y019812D01*
X032974Y019965D02*
X033127Y020119D01*
X033051Y020272D02*
X033127Y020349D01*
X033127Y020502D01*
X033051Y020579D01*
X032744Y020579D01*
X032667Y020502D01*
X032667Y020349D01*
X032744Y020272D01*
X032820Y020272D01*
X032897Y020349D01*
X032897Y020579D01*
X034714Y021701D02*
X034714Y021932D01*
X034791Y022008D01*
X034944Y022008D01*
X035021Y021932D01*
X035021Y021701D01*
X035174Y021701D02*
X034714Y021701D01*
X035021Y021855D02*
X035174Y022008D01*
X035098Y022162D02*
X035174Y022239D01*
X035174Y022392D01*
X035098Y022469D01*
X035021Y022469D01*
X034944Y022392D01*
X034944Y022239D01*
X034868Y022162D01*
X034791Y022162D01*
X034714Y022239D01*
X034714Y022392D01*
X034791Y022469D01*
X034868Y022469D01*
X034944Y022392D01*
X034944Y022239D02*
X035021Y022162D01*
X035098Y022162D01*
X029984Y022280D02*
X029677Y021973D01*
X029677Y021896D01*
X029524Y021896D02*
X029370Y022050D01*
X029447Y022050D02*
X029217Y022050D01*
X029217Y021896D02*
X029217Y022357D01*
X029447Y022357D01*
X029524Y022280D01*
X029524Y022127D01*
X029447Y022050D01*
X029677Y022357D02*
X029984Y022357D01*
X029984Y022280D01*
X028018Y020624D02*
X027788Y020394D01*
X028094Y020394D01*
X028018Y020164D02*
X028018Y020624D01*
X027481Y020624D02*
X027481Y020164D01*
X027634Y020164D02*
X027327Y020164D01*
X027174Y020164D02*
X027020Y020318D01*
X027097Y020318D02*
X026867Y020318D01*
X026867Y020164D02*
X026867Y020624D01*
X027097Y020624D01*
X027174Y020548D01*
X027174Y020394D01*
X027097Y020318D01*
X027327Y020471D02*
X027481Y020624D01*
X026468Y019670D02*
X026468Y019593D01*
X026161Y019286D01*
X026161Y019209D01*
X026008Y019286D02*
X025931Y019209D01*
X025777Y019209D01*
X025701Y019286D01*
X025701Y019593D01*
X025777Y019670D01*
X025931Y019670D01*
X026008Y019593D01*
X026161Y019670D02*
X026468Y019670D01*
X024972Y019741D02*
X024972Y019818D01*
X024896Y019894D01*
X024666Y019894D01*
X024666Y019741D01*
X024742Y019664D01*
X024896Y019664D01*
X024972Y019741D01*
X024666Y019894D02*
X024819Y020048D01*
X024972Y020124D01*
X024512Y020048D02*
X024512Y019971D01*
X024435Y019894D01*
X024512Y019818D01*
X024512Y019741D01*
X024435Y019664D01*
X024282Y019664D01*
X024205Y019741D01*
X024052Y019664D02*
X023898Y019818D01*
X023975Y019818D02*
X023745Y019818D01*
X023745Y019664D02*
X023745Y020124D01*
X023975Y020124D01*
X024052Y020048D01*
X024052Y019894D01*
X023975Y019818D01*
X024205Y020048D02*
X024282Y020124D01*
X024435Y020124D01*
X024512Y020048D01*
X024435Y019894D02*
X024359Y019894D01*
X023529Y019920D02*
X023529Y019843D01*
X023222Y019536D01*
X023222Y019459D01*
X023068Y019459D02*
X022761Y019459D01*
X022915Y019459D02*
X022915Y019920D01*
X022761Y019766D01*
X022608Y019843D02*
X022531Y019920D01*
X022378Y019920D01*
X022301Y019843D01*
X022301Y019536D01*
X022378Y019459D01*
X022531Y019459D01*
X022608Y019536D01*
X023222Y019920D02*
X023529Y019920D01*
X024100Y020809D02*
X023549Y021361D01*
X023687Y021498D02*
X024238Y020947D01*
X023450Y021144D02*
X023452Y021185D01*
X023458Y021226D01*
X023468Y021266D01*
X023481Y021305D01*
X023498Y021342D01*
X023519Y021378D01*
X023543Y021412D01*
X023570Y021443D01*
X023599Y021471D01*
X023632Y021497D01*
X023666Y021519D01*
X023703Y021538D01*
X023741Y021553D01*
X023781Y021565D01*
X023821Y021573D01*
X023862Y021577D01*
X023904Y021577D01*
X023945Y021573D01*
X023985Y021565D01*
X024025Y021553D01*
X024063Y021538D01*
X024099Y021519D01*
X024134Y021497D01*
X024167Y021471D01*
X024196Y021443D01*
X024223Y021412D01*
X024247Y021378D01*
X024268Y021342D01*
X024285Y021305D01*
X024298Y021266D01*
X024308Y021226D01*
X024314Y021185D01*
X024316Y021144D01*
X024314Y021103D01*
X024308Y021062D01*
X024298Y021022D01*
X024285Y020983D01*
X024268Y020946D01*
X024247Y020910D01*
X024223Y020876D01*
X024196Y020845D01*
X024167Y020817D01*
X024134Y020791D01*
X024100Y020769D01*
X024063Y020750D01*
X024025Y020735D01*
X023985Y020723D01*
X023945Y020715D01*
X023904Y020711D01*
X023862Y020711D01*
X023821Y020715D01*
X023781Y020723D01*
X023741Y020735D01*
X023703Y020750D01*
X023667Y020769D01*
X023632Y020791D01*
X023599Y020817D01*
X023570Y020845D01*
X023543Y020876D01*
X023519Y020910D01*
X023498Y020946D01*
X023481Y020983D01*
X023468Y021022D01*
X023458Y021062D01*
X023452Y021103D01*
X023450Y021144D01*
X023304Y022883D02*
X022998Y022883D01*
X022921Y022960D01*
X022921Y023113D01*
X022998Y023190D01*
X023304Y023190D01*
X023381Y023113D01*
X023381Y022960D01*
X023304Y022883D01*
X023228Y023037D02*
X023381Y023190D01*
X023304Y023343D02*
X023381Y023420D01*
X023381Y023574D01*
X023304Y023650D01*
X023228Y023650D01*
X023151Y023574D01*
X023151Y023343D01*
X023304Y023343D01*
X023151Y023343D02*
X022998Y023497D01*
X022921Y023650D01*
X021084Y023812D02*
X020624Y023812D01*
X020624Y024043D01*
X020700Y024119D01*
X020854Y024119D01*
X020930Y024043D01*
X020930Y023812D01*
X020930Y023966D02*
X021084Y024119D01*
X021007Y024273D02*
X021084Y024350D01*
X021084Y024503D01*
X021007Y024580D01*
X020930Y024580D01*
X020854Y024503D01*
X020854Y024426D01*
X020854Y024503D02*
X020777Y024580D01*
X020700Y024580D01*
X020624Y024503D01*
X020624Y024350D01*
X020700Y024273D01*
X020700Y024733D02*
X020624Y024810D01*
X020624Y024963D01*
X020700Y025040D01*
X021007Y024733D01*
X021084Y024810D01*
X021084Y024963D01*
X021007Y025040D01*
X020700Y025040D01*
X020700Y024733D02*
X021007Y024733D01*
X025449Y022199D02*
X025449Y021739D01*
X025449Y021892D02*
X025680Y021892D01*
X025756Y021969D01*
X025756Y022123D01*
X025680Y022199D01*
X025449Y022199D01*
X025603Y021892D02*
X025756Y021739D01*
X025910Y021739D02*
X026217Y021739D01*
X026063Y021739D02*
X026063Y022199D01*
X025910Y022046D01*
X026370Y021969D02*
X026524Y022046D01*
X026600Y022046D01*
X026677Y021969D01*
X026677Y021816D01*
X026600Y021739D01*
X026447Y021739D01*
X026370Y021816D01*
X026370Y021969D02*
X026370Y022199D01*
X026677Y022199D01*
X029309Y019918D02*
X029386Y019995D01*
X029540Y019995D01*
X029616Y019918D01*
X029770Y019764D02*
X030000Y019764D01*
X030077Y019688D01*
X030077Y019611D01*
X030000Y019534D01*
X029847Y019534D01*
X029770Y019611D01*
X029770Y019764D01*
X029923Y019918D01*
X030077Y019995D01*
X029616Y019611D02*
X029540Y019534D01*
X029386Y019534D01*
X029309Y019611D01*
X029309Y019918D01*
X029093Y019092D02*
X029093Y018658D01*
X029201Y018658D01*
X029310Y018766D01*
X029310Y018875D01*
X029093Y019092D01*
X028984Y019092D01*
X028876Y018983D01*
X028876Y018875D01*
X029093Y018658D01*
X029038Y018495D02*
X028821Y018278D01*
X028930Y018386D02*
X028604Y018712D01*
X028604Y018495D01*
X028442Y018441D02*
X028333Y018441D01*
X028225Y018332D01*
X028225Y018224D01*
X028442Y018007D01*
X028550Y018007D01*
X028659Y018115D01*
X028659Y018224D01*
X028334Y018798D02*
X028027Y018798D01*
X027950Y018875D01*
X027950Y019029D01*
X028027Y019105D01*
X028334Y019105D01*
X028411Y019029D01*
X028411Y018875D01*
X028334Y018798D01*
X028257Y018952D02*
X028411Y019105D01*
X028411Y019259D02*
X028104Y019566D01*
X028027Y019566D01*
X027950Y019489D01*
X027950Y019336D01*
X028027Y019259D01*
X028411Y019259D02*
X028411Y019566D01*
X024159Y016536D02*
X024159Y016459D01*
X024082Y016382D01*
X023929Y016382D01*
X023852Y016459D01*
X023852Y016536D01*
X023929Y016613D01*
X024082Y016613D01*
X024159Y016536D01*
X024082Y016382D02*
X024159Y016306D01*
X024159Y016229D01*
X024082Y016152D01*
X023929Y016152D01*
X023852Y016229D01*
X023852Y016306D01*
X023929Y016382D01*
X023698Y016152D02*
X023391Y016152D01*
X023545Y016152D02*
X023545Y016613D01*
X023391Y016459D01*
X023238Y016536D02*
X023161Y016613D01*
X023008Y016613D01*
X022931Y016536D01*
X022931Y016229D01*
X023008Y016152D01*
X023161Y016152D01*
X023238Y016229D01*
X020532Y016604D02*
X020532Y016757D01*
X020532Y016681D02*
X020071Y016681D01*
X020071Y016757D02*
X020071Y016604D01*
X020148Y016911D02*
X020455Y016911D01*
X020532Y016988D01*
X020532Y017141D01*
X020455Y017218D01*
X020532Y017371D02*
X020532Y017678D01*
X020532Y017525D02*
X020071Y017525D01*
X020225Y017371D01*
X020148Y017218D02*
X020071Y017141D01*
X020071Y016988D01*
X020148Y016911D01*
X020225Y017832D02*
X020071Y017985D01*
X020532Y017985D01*
X020532Y017832D02*
X020532Y018139D01*
X027118Y014711D02*
X027118Y014404D01*
X027195Y014327D01*
X027348Y014327D01*
X027425Y014404D01*
X027578Y014404D02*
X027578Y014481D01*
X027655Y014558D01*
X027809Y014558D01*
X027885Y014481D01*
X027885Y014404D01*
X027809Y014327D01*
X027655Y014327D01*
X027578Y014404D01*
X027655Y014558D02*
X027578Y014634D01*
X027578Y014711D01*
X027655Y014788D01*
X027809Y014788D01*
X027885Y014711D01*
X027885Y014634D01*
X027809Y014558D01*
X027425Y014711D02*
X027348Y014788D01*
X027195Y014788D01*
X027118Y014711D01*
X028846Y013596D02*
X029171Y013271D01*
X029063Y013162D02*
X029280Y013379D01*
X028846Y013379D02*
X028846Y013596D01*
X028520Y013271D02*
X028846Y012945D01*
X028954Y013054D02*
X028737Y012836D01*
X028575Y012782D02*
X028575Y012674D01*
X028466Y012565D01*
X028358Y012565D01*
X028141Y012782D01*
X028141Y012891D01*
X028249Y012999D01*
X028358Y012999D01*
X028520Y013054D02*
X028520Y013271D01*
X025964Y009858D02*
X026041Y009782D01*
X026041Y009628D01*
X025964Y009551D01*
X026041Y009398D02*
X026041Y009091D01*
X026041Y009244D02*
X025580Y009244D01*
X025734Y009091D01*
X025810Y008938D02*
X025887Y008861D01*
X025887Y008631D01*
X025887Y008784D02*
X026041Y008938D01*
X025810Y008938D02*
X025657Y008938D01*
X025580Y008861D01*
X025580Y008631D01*
X026041Y008631D01*
X025657Y009551D02*
X025580Y009628D01*
X025580Y009782D01*
X025657Y009858D01*
X025734Y009858D01*
X025810Y009782D01*
X025887Y009858D01*
X025964Y009858D01*
X025810Y009782D02*
X025810Y009705D01*
X025260Y009997D02*
X024953Y009690D01*
X024953Y009613D01*
X024799Y009613D02*
X024493Y009613D01*
X024799Y009920D01*
X024799Y009997D01*
X024723Y010073D01*
X024569Y010073D01*
X024493Y009997D01*
X024339Y009997D02*
X024339Y009843D01*
X024262Y009766D01*
X024032Y009766D01*
X024032Y009613D02*
X024032Y010073D01*
X024262Y010073D01*
X024339Y009997D01*
X024186Y009766D02*
X024339Y009613D01*
X024953Y010073D02*
X025260Y010073D01*
X025260Y009997D01*
X023528Y009997D02*
X023528Y009920D01*
X023451Y009843D01*
X023297Y009843D01*
X023221Y009920D01*
X023221Y009997D01*
X023297Y010073D01*
X023451Y010073D01*
X023528Y009997D01*
X023451Y009843D02*
X023528Y009766D01*
X023528Y009690D01*
X023451Y009613D01*
X023297Y009613D01*
X023221Y009690D01*
X023221Y009766D01*
X023297Y009843D01*
X023067Y009920D02*
X022760Y009613D01*
X023067Y009613D01*
X023067Y009920D02*
X023067Y009997D01*
X022990Y010073D01*
X022837Y010073D01*
X022760Y009997D01*
X022607Y009997D02*
X022607Y009843D01*
X022530Y009766D01*
X022300Y009766D01*
X022300Y009613D02*
X022300Y010073D01*
X022530Y010073D01*
X022607Y009997D01*
X022453Y009766D02*
X022607Y009613D01*
X023391Y008762D02*
X023943Y008211D01*
X024080Y008349D02*
X023529Y008900D01*
X023293Y008546D02*
X023295Y008587D01*
X023301Y008628D01*
X023311Y008668D01*
X023324Y008707D01*
X023341Y008744D01*
X023362Y008780D01*
X023386Y008814D01*
X023413Y008845D01*
X023442Y008873D01*
X023475Y008899D01*
X023509Y008921D01*
X023546Y008940D01*
X023584Y008955D01*
X023624Y008967D01*
X023664Y008975D01*
X023705Y008979D01*
X023747Y008979D01*
X023788Y008975D01*
X023828Y008967D01*
X023868Y008955D01*
X023906Y008940D01*
X023942Y008921D01*
X023977Y008899D01*
X024010Y008873D01*
X024039Y008845D01*
X024066Y008814D01*
X024090Y008780D01*
X024111Y008744D01*
X024128Y008707D01*
X024141Y008668D01*
X024151Y008628D01*
X024157Y008587D01*
X024159Y008546D01*
X024157Y008505D01*
X024151Y008464D01*
X024141Y008424D01*
X024128Y008385D01*
X024111Y008348D01*
X024090Y008312D01*
X024066Y008278D01*
X024039Y008247D01*
X024010Y008219D01*
X023977Y008193D01*
X023943Y008171D01*
X023906Y008152D01*
X023868Y008137D01*
X023828Y008125D01*
X023788Y008117D01*
X023747Y008113D01*
X023705Y008113D01*
X023664Y008117D01*
X023624Y008125D01*
X023584Y008137D01*
X023546Y008152D01*
X023510Y008171D01*
X023475Y008193D01*
X023442Y008219D01*
X023413Y008247D01*
X023386Y008278D01*
X023362Y008312D01*
X023341Y008348D01*
X023324Y008385D01*
X023311Y008424D01*
X023301Y008464D01*
X023295Y008505D01*
X023293Y008546D01*
X023345Y006739D02*
X023115Y006739D01*
X023115Y006278D01*
X023115Y006432D02*
X023345Y006432D01*
X023422Y006508D01*
X023422Y006662D01*
X023345Y006739D01*
X023575Y006662D02*
X023652Y006739D01*
X023805Y006739D01*
X023882Y006662D01*
X023882Y006585D01*
X023805Y006508D01*
X023882Y006432D01*
X023882Y006355D01*
X023805Y006278D01*
X023652Y006278D01*
X023575Y006355D01*
X023422Y006278D02*
X023268Y006432D01*
X023729Y006508D02*
X023805Y006508D01*
X024036Y006508D02*
X024189Y006585D01*
X024266Y006585D01*
X024343Y006508D01*
X024343Y006355D01*
X024266Y006278D01*
X024112Y006278D01*
X024036Y006355D01*
X024036Y006508D02*
X024036Y006739D01*
X024343Y006739D01*
X026725Y006762D02*
X026802Y006686D01*
X026955Y006686D01*
X027032Y006762D01*
X027032Y007069D01*
X026955Y007146D01*
X026802Y007146D01*
X026725Y007069D01*
X026725Y006762D01*
X026878Y006839D02*
X027032Y006686D01*
X027185Y006762D02*
X027262Y006686D01*
X027415Y006686D01*
X027492Y006762D01*
X027492Y006839D01*
X027415Y006916D01*
X027339Y006916D01*
X027415Y006916D02*
X027492Y006993D01*
X027492Y007069D01*
X027415Y007146D01*
X027262Y007146D01*
X027185Y007069D01*
X026828Y004504D02*
X026828Y004197D01*
X026828Y004044D02*
X026828Y003737D01*
X026828Y003890D02*
X026368Y003890D01*
X026521Y003737D01*
X026444Y003583D02*
X026598Y003583D01*
X026675Y003506D01*
X026675Y003276D01*
X026828Y003276D02*
X026368Y003276D01*
X026368Y003506D01*
X026444Y003583D01*
X026675Y003430D02*
X026828Y003583D01*
X026521Y004197D02*
X026368Y004351D01*
X026828Y004351D01*
X029071Y004247D02*
X029071Y003786D01*
X029071Y003940D02*
X029302Y003940D01*
X029378Y004016D01*
X029378Y004170D01*
X029302Y004247D01*
X029071Y004247D01*
X029225Y003940D02*
X029378Y003786D01*
X029532Y003786D02*
X029839Y003786D01*
X029685Y003786D02*
X029685Y004247D01*
X029532Y004093D01*
X029992Y004170D02*
X029992Y003863D01*
X030299Y004170D01*
X030299Y003863D01*
X030222Y003786D01*
X030069Y003786D01*
X029992Y003863D01*
X029992Y004170D02*
X030069Y004247D01*
X030222Y004247D01*
X030299Y004170D01*
X031224Y004121D02*
X031301Y004044D01*
X031455Y004044D01*
X031531Y004121D01*
X031531Y004428D01*
X031455Y004504D01*
X031301Y004504D01*
X031224Y004428D01*
X031224Y004121D01*
X031378Y004197D02*
X031531Y004044D01*
X031685Y004121D02*
X031761Y004044D01*
X031915Y004044D01*
X031992Y004121D01*
X031992Y004274D01*
X031915Y004351D01*
X031838Y004351D01*
X031685Y004274D01*
X031685Y004504D01*
X031992Y004504D01*
X033260Y005759D02*
X033260Y006219D01*
X033490Y006219D01*
X033567Y006142D01*
X033567Y005989D01*
X033490Y005912D01*
X033260Y005912D01*
X033413Y005912D02*
X033567Y005759D01*
X033720Y005835D02*
X033797Y005759D01*
X033950Y005759D01*
X034027Y005835D01*
X034027Y005912D01*
X033950Y005989D01*
X033874Y005989D01*
X033950Y005989D02*
X034027Y006065D01*
X034027Y006142D01*
X033950Y006219D01*
X033797Y006219D01*
X033720Y006142D01*
X034872Y007843D02*
X034872Y008073D01*
X034948Y008150D01*
X035102Y008150D01*
X035179Y008073D01*
X035179Y007843D01*
X035332Y007843D02*
X034872Y007843D01*
X035179Y007997D02*
X035332Y008150D01*
X035255Y008304D02*
X035332Y008380D01*
X035332Y008534D01*
X035255Y008611D01*
X035102Y008611D01*
X035025Y008534D01*
X035025Y008457D01*
X035102Y008304D01*
X034872Y008304D01*
X034872Y008611D01*
X033777Y008985D02*
X033700Y008908D01*
X033547Y008908D01*
X033470Y008985D01*
X033317Y008985D02*
X033240Y008908D01*
X033086Y008908D01*
X033010Y008985D01*
X033010Y009292D01*
X033086Y009369D01*
X033240Y009369D01*
X033317Y009292D01*
X033470Y009369D02*
X033470Y009138D01*
X033624Y009215D01*
X033700Y009215D01*
X033777Y009138D01*
X033777Y008985D01*
X033777Y009369D02*
X033470Y009369D01*
X034020Y010575D02*
X034327Y010575D01*
X034480Y010575D02*
X034787Y010575D01*
X034633Y010575D02*
X034633Y011036D01*
X034480Y010882D01*
X034020Y011036D02*
X034020Y010575D01*
X035896Y012663D02*
X036005Y012663D01*
X036222Y012880D01*
X036222Y012988D01*
X036113Y013097D01*
X036005Y013097D01*
X035950Y013043D01*
X035950Y012934D01*
X036113Y012771D01*
X035896Y012663D02*
X035788Y012771D01*
X035788Y012880D01*
X035679Y012988D02*
X035571Y012988D01*
X035462Y013097D01*
X035462Y013205D01*
X035679Y013422D01*
X035788Y013422D01*
X035896Y013314D01*
X035896Y013205D01*
X033838Y003087D02*
X033761Y003087D01*
X033684Y003010D01*
X033684Y002780D01*
X033838Y002780D01*
X033915Y002856D01*
X033915Y003010D01*
X033838Y003087D01*
X033531Y002933D02*
X033684Y002780D01*
X033608Y002626D02*
X033531Y002626D01*
X033454Y002550D01*
X033454Y002396D01*
X033531Y002319D01*
X033531Y002166D02*
X033684Y002166D01*
X033761Y002089D01*
X033761Y001859D01*
X033761Y002012D02*
X033915Y002166D01*
X033915Y002319D02*
X033608Y002626D01*
X033915Y002626D02*
X033915Y002319D01*
X033531Y002166D02*
X033454Y002089D01*
X033454Y001859D01*
X033915Y001859D01*
X033531Y002933D02*
X033454Y003087D01*
X012976Y014406D02*
X012669Y014099D01*
X012669Y014022D01*
X012516Y014099D02*
X012439Y014022D01*
X012286Y014022D01*
X012209Y014099D01*
X012056Y014022D02*
X011902Y014176D01*
X011979Y014176D02*
X011749Y014176D01*
X011749Y014022D02*
X011749Y014483D01*
X011979Y014483D01*
X012056Y014406D01*
X012056Y014253D01*
X011979Y014176D01*
X012209Y014406D02*
X012286Y014483D01*
X012439Y014483D01*
X012516Y014406D01*
X012516Y014329D01*
X012439Y014253D01*
X012516Y014176D01*
X012516Y014099D01*
X012439Y014253D02*
X012363Y014253D01*
X012669Y014483D02*
X012976Y014483D01*
X012976Y014406D01*
X011738Y016557D02*
X011502Y016557D01*
X011738Y016557D02*
X012407Y017227D01*
X012407Y019117D01*
X011502Y019117D01*
X010754Y019117D02*
X009848Y019117D01*
X009848Y017227D01*
X010517Y016557D01*
X010754Y016557D01*
X010754Y016676D02*
X010690Y016698D01*
X010627Y016725D01*
X010565Y016755D01*
X010506Y016788D01*
X010448Y016824D01*
X010392Y016864D01*
X010339Y016907D01*
X010288Y016952D01*
X010240Y017000D01*
X010195Y017051D01*
X010152Y017105D01*
X010113Y017161D01*
X010076Y017218D01*
X010043Y017278D01*
X010014Y017340D01*
X009988Y017403D01*
X009965Y017467D01*
X009946Y017533D01*
X009931Y017600D01*
X009920Y017667D01*
X009912Y017735D01*
X009908Y017803D01*
X009908Y017871D01*
X009912Y017939D01*
X009920Y018007D01*
X009931Y018074D01*
X009946Y018141D01*
X009965Y018207D01*
X009988Y018271D01*
X010014Y018334D01*
X010043Y018396D01*
X010076Y018456D01*
X010113Y018513D01*
X010152Y018569D01*
X010195Y018623D01*
X010240Y018674D01*
X010288Y018722D01*
X010339Y018767D01*
X010392Y018810D01*
X010448Y018850D01*
X010506Y018886D01*
X010565Y018919D01*
X010627Y018949D01*
X010690Y018976D01*
X010754Y018998D01*
X011502Y018998D02*
X011566Y018976D01*
X011629Y018949D01*
X011691Y018919D01*
X011750Y018886D01*
X011808Y018850D01*
X011864Y018810D01*
X011917Y018767D01*
X011968Y018722D01*
X012016Y018674D01*
X012061Y018623D01*
X012104Y018569D01*
X012143Y018513D01*
X012180Y018456D01*
X012213Y018396D01*
X012242Y018334D01*
X012268Y018271D01*
X012291Y018207D01*
X012310Y018141D01*
X012325Y018074D01*
X012336Y018007D01*
X012344Y017939D01*
X012348Y017871D01*
X012348Y017803D01*
X012344Y017735D01*
X012336Y017667D01*
X012325Y017600D01*
X012310Y017533D01*
X012291Y017467D01*
X012268Y017403D01*
X012242Y017340D01*
X012213Y017278D01*
X012180Y017218D01*
X012143Y017161D01*
X012104Y017105D01*
X012061Y017051D01*
X012016Y017000D01*
X011968Y016952D01*
X011917Y016907D01*
X011864Y016864D01*
X011808Y016824D01*
X011750Y016788D01*
X011691Y016755D01*
X011629Y016725D01*
X011566Y016698D01*
X011502Y016676D01*
X009115Y015450D02*
X009115Y015296D01*
X009039Y015219D01*
X008732Y015526D01*
X009039Y015526D01*
X009115Y015450D01*
X009039Y015219D02*
X008732Y015219D01*
X008655Y015296D01*
X008655Y015450D01*
X008732Y015526D01*
X008732Y015066D02*
X008655Y014989D01*
X008655Y014836D01*
X008732Y014759D01*
X008732Y014606D02*
X008655Y014529D01*
X008655Y014375D01*
X008732Y014299D01*
X009039Y014299D01*
X009115Y014375D01*
X009115Y014529D01*
X009039Y014606D01*
X009115Y014759D02*
X008809Y015066D01*
X008732Y015066D01*
X009115Y015066D02*
X009115Y014759D01*
X008963Y010546D02*
X008809Y010546D01*
X008732Y010469D01*
X008732Y010392D01*
X008809Y010316D01*
X009039Y010316D01*
X009039Y010469D02*
X009039Y010162D01*
X008963Y010085D01*
X008809Y010085D01*
X008732Y010162D01*
X008579Y010085D02*
X008272Y010085D01*
X008579Y010392D01*
X008579Y010469D01*
X008502Y010546D01*
X008349Y010546D01*
X008272Y010469D01*
X008119Y010469D02*
X008119Y010316D01*
X008042Y010239D01*
X007812Y010239D01*
X007965Y010239D02*
X008119Y010085D01*
X007812Y010085D02*
X007812Y010546D01*
X008042Y010546D01*
X008119Y010469D01*
X008963Y010546D02*
X009039Y010469D01*
X008958Y008813D02*
X009035Y008737D01*
X009035Y008430D01*
X008958Y008353D01*
X008804Y008353D01*
X008728Y008430D01*
X008728Y008737D01*
X008804Y008813D01*
X008958Y008813D01*
X009188Y008813D02*
X009495Y008813D01*
X009342Y008813D02*
X009342Y008353D01*
X009649Y008276D02*
X009955Y008276D01*
X010109Y008353D02*
X010109Y008813D01*
X010416Y008813D01*
X010569Y008813D02*
X010569Y008353D01*
X010876Y008353D01*
X010846Y008111D02*
X010923Y008034D01*
X010923Y007881D01*
X010846Y007804D01*
X010539Y007804D01*
X010462Y007881D01*
X010462Y008034D01*
X010539Y008111D01*
X010262Y008583D02*
X010109Y008583D01*
X011030Y008813D02*
X011337Y008813D01*
X011183Y008813D02*
X011183Y008353D01*
X010923Y007650D02*
X010462Y007650D01*
X010462Y007344D02*
X010923Y007650D01*
X010923Y007344D02*
X010462Y007344D01*
X010462Y007190D02*
X010462Y006883D01*
X010923Y006883D01*
X010923Y007190D01*
X010692Y007037D02*
X010692Y006883D01*
X010999Y006730D02*
X010999Y006423D01*
X010846Y006269D02*
X010923Y006193D01*
X010923Y006039D01*
X010846Y005962D01*
X010539Y006269D01*
X010846Y006269D01*
X010846Y005962D02*
X010539Y005962D01*
X010462Y006039D01*
X010462Y006193D01*
X010539Y006269D01*
X010539Y005809D02*
X010846Y005502D01*
X010923Y005502D01*
X010923Y005195D02*
X010692Y005195D01*
X010539Y005348D01*
X010462Y005348D01*
X010462Y005502D02*
X010462Y005809D01*
X010539Y005809D01*
X010692Y005195D02*
X010539Y005042D01*
X010462Y005042D01*
X010462Y004888D02*
X010923Y004888D01*
X010462Y004581D01*
X010923Y004581D01*
X010846Y004428D02*
X010923Y004351D01*
X010923Y004197D01*
X010846Y004121D01*
X010539Y004121D01*
X010462Y004197D01*
X010462Y004351D01*
X010539Y004428D01*
X011860Y004450D02*
X011936Y004373D01*
X012243Y004373D01*
X012320Y004450D01*
X012320Y004603D01*
X012243Y004680D01*
X012243Y004834D02*
X012320Y004910D01*
X012320Y005064D01*
X012243Y005141D01*
X011936Y005141D01*
X011860Y005064D01*
X011860Y004910D01*
X011936Y004834D01*
X012013Y004834D01*
X012090Y004910D01*
X012090Y005141D01*
X011936Y004680D02*
X011860Y004603D01*
X011860Y004450D01*
X011860Y004220D02*
X011860Y004066D01*
X011860Y004143D02*
X012320Y004143D01*
X012320Y004066D02*
X012320Y004220D01*
X007285Y003128D02*
X007285Y002888D01*
X007045Y003128D01*
X006985Y003128D01*
X006925Y003068D01*
X006925Y002948D01*
X006985Y002888D01*
X006925Y002759D02*
X006925Y002639D01*
X006925Y002699D02*
X007225Y002699D01*
X007285Y002639D01*
X007285Y002579D01*
X007225Y002519D01*
X007141Y001886D02*
X007141Y001645D01*
X007141Y001765D02*
X006781Y001765D01*
X006901Y001645D01*
X006781Y001517D02*
X006781Y001397D01*
X006781Y001457D02*
X007081Y001457D01*
X007141Y001397D01*
X007141Y001337D01*
X007081Y001277D01*
X008267Y008353D02*
X008267Y008813D01*
X008421Y008660D01*
X008574Y008813D01*
X008574Y008353D01*
X008336Y021562D02*
X007876Y021562D01*
X007876Y021792D01*
X007952Y021869D01*
X008106Y021869D01*
X008182Y021792D01*
X008182Y021562D01*
X008182Y021715D02*
X008336Y021869D01*
X008259Y022022D02*
X008336Y022099D01*
X008336Y022252D01*
X008259Y022329D01*
X008182Y022329D01*
X008106Y022252D01*
X008106Y022176D01*
X008106Y022252D02*
X008029Y022329D01*
X007952Y022329D01*
X007876Y022252D01*
X007876Y022099D01*
X007952Y022022D01*
X007952Y022482D02*
X008029Y022482D01*
X008106Y022559D01*
X008106Y022713D01*
X008182Y022789D01*
X008259Y022789D01*
X008336Y022713D01*
X008336Y022559D01*
X008259Y022482D01*
X008182Y022482D01*
X008106Y022559D01*
X008106Y022713D02*
X008029Y022789D01*
X007952Y022789D01*
X007876Y022713D01*
X007876Y022559D01*
X007952Y022482D01*
X009061Y022502D02*
X009612Y023054D01*
X009750Y022916D02*
X009198Y022365D01*
X008962Y022719D02*
X008964Y022760D01*
X008970Y022801D01*
X008980Y022841D01*
X008993Y022880D01*
X009010Y022917D01*
X009031Y022953D01*
X009055Y022987D01*
X009082Y023018D01*
X009111Y023046D01*
X009144Y023072D01*
X009178Y023094D01*
X009215Y023113D01*
X009253Y023128D01*
X009293Y023140D01*
X009333Y023148D01*
X009374Y023152D01*
X009416Y023152D01*
X009457Y023148D01*
X009497Y023140D01*
X009537Y023128D01*
X009575Y023113D01*
X009611Y023094D01*
X009646Y023072D01*
X009679Y023046D01*
X009708Y023018D01*
X009735Y022987D01*
X009759Y022953D01*
X009780Y022917D01*
X009797Y022880D01*
X009810Y022841D01*
X009820Y022801D01*
X009826Y022760D01*
X009828Y022719D01*
X009826Y022678D01*
X009820Y022637D01*
X009810Y022597D01*
X009797Y022558D01*
X009780Y022521D01*
X009759Y022485D01*
X009735Y022451D01*
X009708Y022420D01*
X009679Y022392D01*
X009646Y022366D01*
X009612Y022344D01*
X009575Y022325D01*
X009537Y022310D01*
X009497Y022298D01*
X009457Y022290D01*
X009416Y022286D01*
X009374Y022286D01*
X009333Y022290D01*
X009293Y022298D01*
X009253Y022310D01*
X009215Y022325D01*
X009179Y022344D01*
X009144Y022366D01*
X009111Y022392D01*
X009082Y022420D01*
X009055Y022451D01*
X009031Y022485D01*
X009010Y022521D01*
X008993Y022558D01*
X008980Y022597D01*
X008970Y022637D01*
X008964Y022678D01*
X008962Y022719D01*
X010545Y022851D02*
X010622Y022851D01*
X010775Y022697D01*
X011005Y022697D01*
X010775Y022697D02*
X010622Y022544D01*
X010545Y022544D01*
X010545Y022390D02*
X011005Y022390D01*
X010545Y022083D01*
X011005Y022083D01*
X010928Y021930D02*
X011005Y021853D01*
X011005Y021700D01*
X010928Y021623D01*
X010622Y021623D01*
X010545Y021700D01*
X010545Y021853D01*
X010622Y021930D01*
X010545Y023004D02*
X010545Y023311D01*
X010622Y023311D01*
X010928Y023004D01*
X011005Y023004D01*
X010928Y023464D02*
X010622Y023464D01*
X010545Y023541D01*
X010545Y023695D01*
X010622Y023771D01*
X010928Y023464D01*
X011005Y023541D01*
X011005Y023695D01*
X010928Y023771D01*
X010622Y023771D01*
X011082Y023925D02*
X011082Y024232D01*
X011005Y024385D02*
X010545Y024385D01*
X010545Y024692D01*
X010545Y024846D02*
X011005Y025153D01*
X010545Y025153D01*
X010622Y025306D02*
X010928Y025306D01*
X011005Y025383D01*
X011005Y025536D01*
X010928Y025613D01*
X010622Y025613D02*
X010545Y025536D01*
X010545Y025383D01*
X010622Y025306D01*
X010377Y024999D02*
X010071Y024999D01*
X010224Y024999D02*
X010224Y025459D01*
X010071Y025306D01*
X009917Y025382D02*
X009840Y025459D01*
X009687Y025459D01*
X009610Y025382D01*
X009610Y025075D01*
X009687Y024999D01*
X009840Y024999D01*
X009917Y025075D01*
X010545Y024846D02*
X011005Y024846D01*
X011005Y024692D02*
X011005Y024385D01*
X010775Y024385D02*
X010775Y024539D01*
X011824Y024432D02*
X011824Y024278D01*
X011824Y024355D02*
X012285Y024355D01*
X012285Y024278D02*
X012285Y024432D01*
X012208Y024585D02*
X012285Y024662D01*
X012285Y024815D01*
X012208Y024892D01*
X012285Y025046D02*
X012285Y025352D01*
X012285Y025199D02*
X011824Y025199D01*
X011978Y025046D01*
X011901Y024892D02*
X011824Y024815D01*
X011824Y024662D01*
X011901Y024585D01*
X012208Y024585D01*
X012208Y025506D02*
X011901Y025506D01*
X011824Y025583D01*
X011824Y025736D01*
X011901Y025813D01*
X012208Y025506D01*
X012285Y025583D01*
X012285Y025736D01*
X012208Y025813D01*
X011901Y025813D01*
X009730Y025731D02*
X009061Y025061D01*
X008824Y025061D01*
X008076Y025061D02*
X007840Y025061D01*
X007171Y025731D01*
X007171Y027620D01*
X008076Y027620D01*
X008824Y027620D02*
X009730Y027620D01*
X009730Y025731D01*
X008076Y025180D02*
X008012Y025202D01*
X007949Y025229D01*
X007887Y025259D01*
X007828Y025292D01*
X007770Y025328D01*
X007714Y025368D01*
X007661Y025411D01*
X007610Y025456D01*
X007562Y025504D01*
X007517Y025555D01*
X007474Y025609D01*
X007435Y025665D01*
X007398Y025722D01*
X007365Y025782D01*
X007336Y025844D01*
X007310Y025907D01*
X007287Y025971D01*
X007268Y026037D01*
X007253Y026104D01*
X007242Y026171D01*
X007234Y026239D01*
X007230Y026307D01*
X007230Y026375D01*
X007234Y026443D01*
X007242Y026511D01*
X007253Y026578D01*
X007268Y026645D01*
X007287Y026711D01*
X007310Y026775D01*
X007336Y026838D01*
X007365Y026900D01*
X007398Y026960D01*
X007435Y027017D01*
X007474Y027073D01*
X007517Y027127D01*
X007562Y027178D01*
X007610Y027226D01*
X007661Y027271D01*
X007714Y027314D01*
X007770Y027354D01*
X007828Y027390D01*
X007887Y027423D01*
X007949Y027453D01*
X008012Y027480D01*
X008076Y027502D01*
X006753Y027180D02*
X006753Y026873D01*
X006446Y027180D01*
X006370Y027180D01*
X006293Y027103D01*
X006293Y026950D01*
X006370Y026873D01*
X006370Y026720D02*
X006293Y026643D01*
X006293Y026489D01*
X006370Y026413D01*
X006676Y026413D01*
X006753Y026489D01*
X006753Y026643D01*
X006676Y026720D01*
X008824Y027502D02*
X008888Y027480D01*
X008951Y027453D01*
X009013Y027423D01*
X009072Y027390D01*
X009130Y027354D01*
X009186Y027314D01*
X009239Y027271D01*
X009290Y027226D01*
X009338Y027178D01*
X009383Y027127D01*
X009426Y027073D01*
X009465Y027017D01*
X009502Y026960D01*
X009535Y026900D01*
X009564Y026838D01*
X009590Y026775D01*
X009613Y026711D01*
X009632Y026645D01*
X009647Y026578D01*
X009658Y026511D01*
X009666Y026443D01*
X009670Y026375D01*
X009670Y026307D01*
X009666Y026239D01*
X009658Y026171D01*
X009647Y026104D01*
X009632Y026037D01*
X009613Y025971D01*
X009590Y025907D01*
X009564Y025844D01*
X009535Y025782D01*
X009502Y025722D01*
X009465Y025665D01*
X009426Y025609D01*
X009383Y025555D01*
X009338Y025504D01*
X009290Y025456D01*
X009239Y025411D01*
X009186Y025368D01*
X009130Y025328D01*
X009072Y025292D01*
X009013Y025259D01*
X008951Y025229D01*
X008888Y025202D01*
X008824Y025180D01*
X005498Y023428D02*
X005498Y022207D01*
X005006Y022207D01*
X005451Y022048D02*
X005451Y021741D01*
X005527Y021664D01*
X005681Y021664D01*
X005758Y021741D01*
X005911Y021741D02*
X005988Y021664D01*
X006141Y021664D01*
X006218Y021741D01*
X006218Y021818D01*
X006141Y021894D01*
X006065Y021894D01*
X006141Y021894D02*
X006218Y021971D01*
X006218Y022048D01*
X006141Y022124D01*
X005988Y022124D01*
X005911Y022048D01*
X005758Y022048D02*
X005681Y022124D01*
X005527Y022124D01*
X005451Y022048D01*
X004336Y022207D02*
X003844Y022207D01*
X003844Y023428D01*
X004277Y023861D01*
X004333Y024211D02*
X004256Y024288D01*
X004256Y024595D01*
X004333Y024672D01*
X004486Y024672D01*
X004563Y024595D01*
X004716Y024442D02*
X005023Y024442D01*
X004946Y024672D02*
X004716Y024442D01*
X004563Y024288D02*
X004486Y024211D01*
X004333Y024211D01*
X004946Y024211D02*
X004946Y024672D01*
X005065Y023861D02*
X005498Y023428D01*
X004336Y023723D02*
X004288Y023697D01*
X004241Y023668D01*
X004196Y023635D01*
X004154Y023599D01*
X004115Y023560D01*
X004078Y023519D01*
X004045Y023475D01*
X004014Y023429D01*
X003988Y023380D01*
X003965Y023330D01*
X003945Y023278D01*
X003929Y023225D01*
X003917Y023171D01*
X003909Y023117D01*
X003905Y023062D01*
X003905Y023006D01*
X003909Y022951D01*
X003917Y022897D01*
X003929Y022843D01*
X003945Y022790D01*
X003965Y022738D01*
X003988Y022688D01*
X004014Y022639D01*
X004045Y022593D01*
X004078Y022549D01*
X004115Y022508D01*
X004154Y022469D01*
X004196Y022433D01*
X004241Y022400D01*
X004288Y022371D01*
X004336Y022345D01*
X005006Y022345D02*
X005054Y022371D01*
X005101Y022400D01*
X005146Y022433D01*
X005188Y022469D01*
X005227Y022508D01*
X005264Y022549D01*
X005297Y022593D01*
X005328Y022639D01*
X005354Y022688D01*
X005377Y022738D01*
X005397Y022790D01*
X005413Y022843D01*
X005425Y022897D01*
X005433Y022951D01*
X005437Y023006D01*
X005437Y023062D01*
X005433Y023117D01*
X005425Y023171D01*
X005413Y023225D01*
X005397Y023278D01*
X005377Y023330D01*
X005354Y023380D01*
X005328Y023429D01*
X005297Y023475D01*
X005264Y023519D01*
X005227Y023560D01*
X005188Y023599D01*
X005146Y023635D01*
X005101Y023668D01*
X005054Y023697D01*
X005006Y023723D01*
X005663Y028052D02*
X005663Y028283D01*
X005740Y028359D01*
X005893Y028359D01*
X005970Y028283D01*
X005970Y028052D01*
X006123Y028052D02*
X005663Y028052D01*
X005970Y028206D02*
X006123Y028359D01*
X005893Y028513D02*
X005893Y028820D01*
X005663Y028743D02*
X005893Y028513D01*
X006123Y028743D02*
X005663Y028743D01*
X025465Y027699D02*
X025465Y027392D01*
X025542Y027316D01*
X025695Y027316D01*
X025772Y027392D01*
X025772Y027699D01*
X025695Y027776D01*
X025542Y027776D01*
X025465Y027699D01*
X025618Y027469D02*
X025772Y027316D01*
X025925Y027546D02*
X026232Y027546D01*
X026156Y027316D02*
X026156Y027776D01*
X025925Y027546D01*
X025922Y025821D02*
X026152Y025821D01*
X026229Y025745D01*
X026229Y025591D01*
X026152Y025514D01*
X025922Y025514D01*
X025922Y025361D02*
X025922Y025821D01*
X026075Y025514D02*
X026229Y025361D01*
X026382Y025361D02*
X026689Y025361D01*
X026536Y025361D02*
X026536Y025821D01*
X026382Y025668D01*
X026843Y025745D02*
X026919Y025821D01*
X027073Y025821D01*
X027150Y025745D01*
X027150Y025668D01*
X026843Y025361D01*
X027150Y025361D01*
D18*
X006757Y028546D03*
D19*
X007838Y028527D02*
X008173Y028527D01*
X008285Y028639D01*
X008285Y028862D01*
X008173Y028974D01*
X007838Y028974D01*
X007838Y028303D01*
X008538Y028303D02*
X008761Y028527D01*
X008985Y028303D01*
X008985Y028974D01*
X009238Y028974D02*
X009573Y028974D01*
X009685Y028862D01*
X009685Y028639D01*
X009573Y028527D01*
X009238Y028527D01*
X009461Y028527D02*
X009685Y028303D01*
X009238Y028303D02*
X009238Y028974D01*
X008538Y028974D02*
X008538Y028303D01*
D20*
X029808Y027427D02*
X029808Y026837D01*
X030103Y026837D01*
X030202Y026935D01*
X030202Y027034D01*
X030103Y027132D01*
X029808Y027132D01*
X029808Y027427D02*
X030103Y027427D01*
X030202Y027329D01*
X030202Y027231D01*
X030103Y027132D01*
X030416Y026935D02*
X030514Y026837D01*
X030711Y026837D01*
X030810Y026935D01*
X030810Y027427D01*
X031024Y027329D02*
X031024Y027231D01*
X031122Y027132D01*
X031319Y027132D01*
X031417Y027034D01*
X031417Y026935D01*
X031319Y026837D01*
X031122Y026837D01*
X031024Y026935D01*
X031024Y027329D02*
X031122Y027427D01*
X031319Y027427D01*
X031417Y027329D01*
X031631Y027329D02*
X031730Y027427D01*
X031927Y027427D01*
X032025Y027329D01*
X032025Y027231D01*
X031631Y026837D01*
X032025Y026837D01*
X032662Y026786D02*
X032662Y026459D01*
X033153Y026459D01*
X033153Y026786D01*
X033153Y026975D02*
X033153Y027220D01*
X033071Y027302D01*
X032744Y027302D01*
X032662Y027220D01*
X032662Y026975D01*
X033153Y026975D01*
X032907Y026622D02*
X032907Y026459D01*
X033153Y026270D02*
X033153Y025943D01*
X032662Y025943D01*
X032831Y025107D02*
X033226Y025107D01*
X033358Y024975D01*
X033358Y024711D01*
X033226Y024579D01*
X032831Y024579D01*
X032831Y024316D02*
X032831Y025107D01*
X032566Y024975D02*
X032434Y025107D01*
X032170Y025107D01*
X032039Y024975D01*
X032039Y024843D01*
X032170Y024711D01*
X032434Y024711D01*
X032566Y024579D01*
X032566Y024448D01*
X032434Y024316D01*
X032170Y024316D01*
X032039Y024448D01*
X031774Y024316D02*
X031511Y024316D01*
X031643Y024316D02*
X031643Y025107D01*
X031774Y025107D02*
X031511Y025107D01*
X030416Y026935D02*
X030416Y027427D01*
X032662Y027490D02*
X032907Y027490D01*
X032826Y027654D01*
X032826Y027735D01*
X032907Y027817D01*
X033071Y027817D01*
X033153Y027735D01*
X033153Y027572D01*
X033071Y027490D01*
X032662Y027490D02*
X032662Y027817D01*
X008656Y003858D02*
X008656Y003571D01*
X008656Y003714D02*
X008226Y003714D01*
X008369Y003571D01*
X005810Y003569D02*
X005810Y003282D01*
X005523Y003569D01*
X005452Y003569D01*
X005380Y003497D01*
X005380Y003353D01*
X005452Y003282D01*
X008256Y001036D02*
X008256Y000893D01*
X008327Y000821D01*
X008256Y001036D02*
X008327Y001108D01*
X008399Y001108D01*
X008686Y000821D01*
X008686Y001108D01*
X005840Y000819D02*
X005840Y000532D01*
X005840Y000675D02*
X005410Y000675D01*
X005553Y000532D01*
X025084Y002042D02*
X025379Y002042D01*
X025477Y002140D01*
X025477Y002239D01*
X025379Y002337D01*
X025084Y002337D01*
X025379Y002337D02*
X025477Y002435D01*
X025477Y002534D01*
X025379Y002632D01*
X025084Y002632D01*
X025084Y002042D01*
X025692Y002140D02*
X025790Y002042D01*
X025987Y002042D01*
X026085Y002140D01*
X026085Y002632D01*
X026299Y002534D02*
X026299Y002435D01*
X026398Y002337D01*
X026595Y002337D01*
X026693Y002239D01*
X026693Y002140D01*
X026595Y002042D01*
X026398Y002042D01*
X026299Y002140D01*
X026299Y002534D02*
X026398Y002632D01*
X026595Y002632D01*
X026693Y002534D01*
X026907Y002435D02*
X027104Y002632D01*
X027104Y002042D01*
X026907Y002042D02*
X027301Y002042D01*
X025692Y002140D02*
X025692Y002632D01*
D21*
X010872Y009097D03*
X010872Y009569D03*
D22*
X010872Y009333D03*
D23*
X009600Y003246D02*
X008450Y003246D01*
X007300Y003246D01*
X007300Y002746D02*
X007700Y002746D01*
X007900Y002646D01*
X007900Y001846D01*
X007700Y001746D01*
X007700Y001846D01*
X007300Y001846D01*
X007300Y001746D02*
X007700Y001746D01*
X007700Y001846D02*
X007700Y002646D01*
X007300Y002646D01*
X007300Y002246D02*
X007300Y001746D01*
X007300Y001246D01*
X008450Y001246D01*
X009600Y001246D01*
X009600Y001496D01*
X009350Y001496D01*
X009350Y001996D01*
X009600Y001996D01*
X009600Y002496D01*
X009350Y002496D01*
X009350Y002996D01*
X009600Y002996D01*
X009600Y003246D01*
X009600Y002996D02*
X009600Y002496D01*
X009600Y002246D02*
X009600Y001246D01*
X007700Y002646D02*
X007700Y002746D01*
X006766Y002746D02*
X006766Y002246D01*
X006766Y001846D02*
X006366Y001846D01*
X006366Y001746D01*
X006166Y001846D01*
X006166Y002646D01*
X006366Y002746D01*
X006366Y002646D01*
X006766Y002646D01*
X006766Y002746D02*
X006366Y002746D01*
X006366Y002646D02*
X006366Y001846D01*
X006366Y001746D02*
X006766Y001746D01*
X006766Y001246D02*
X005616Y001246D01*
X004466Y001246D01*
X004466Y001496D01*
X004716Y001496D01*
X004716Y001996D01*
X004466Y001996D01*
X004466Y002496D01*
X004716Y002496D01*
X004716Y002996D01*
X004466Y002996D01*
X004466Y003246D01*
X004466Y002246D01*
X004466Y001996D02*
X004466Y001496D01*
X004466Y003246D02*
X005616Y003246D01*
X006766Y003246D01*
X006766Y002746D01*
X022880Y007699D02*
X024572Y007699D01*
X024572Y008506D02*
X024572Y008585D01*
X024572Y009392D02*
X022880Y009392D01*
X022880Y009057D01*
X022880Y008034D02*
X022880Y007699D01*
X031804Y017387D02*
X031806Y017407D01*
X031811Y017427D01*
X031821Y017445D01*
X031833Y017462D01*
X031848Y017476D01*
X031866Y017486D01*
X031885Y017494D01*
X031905Y017498D01*
X031925Y017498D01*
X031945Y017494D01*
X031964Y017486D01*
X031982Y017476D01*
X031997Y017462D01*
X032009Y017445D01*
X032019Y017427D01*
X032024Y017407D01*
X032026Y017387D01*
X032024Y017367D01*
X032019Y017347D01*
X032009Y017329D01*
X031997Y017312D01*
X031982Y017298D01*
X031964Y017288D01*
X031945Y017280D01*
X031925Y017276D01*
X031905Y017276D01*
X031885Y017280D01*
X031866Y017288D01*
X031848Y017298D01*
X031833Y017312D01*
X031821Y017329D01*
X031811Y017347D01*
X031806Y017367D01*
X031804Y017387D01*
X024730Y020298D02*
X023037Y020298D01*
X023037Y020632D01*
X023037Y021656D02*
X023037Y021991D01*
X024730Y021991D01*
X024730Y021183D02*
X024730Y021105D01*
X010242Y021872D02*
X010242Y023565D01*
X009907Y023565D01*
X008883Y023565D02*
X008549Y023565D01*
X008549Y021872D01*
X009356Y021872D02*
X009435Y021872D01*
D24*
X024384Y015225D02*
X024384Y011725D01*
X037161Y019737D02*
X037161Y019914D01*
X037191Y019825D02*
X037279Y019737D01*
X037342Y019737D02*
X037342Y019914D01*
X037401Y019855D01*
X037460Y019914D01*
X037460Y019737D01*
X037524Y019737D02*
X037524Y019914D01*
X037612Y019914D01*
X037642Y019884D01*
X037642Y019825D01*
X037612Y019796D01*
X037524Y019796D01*
X037583Y019796D02*
X037642Y019737D01*
X037705Y019737D02*
X037823Y019855D01*
X037823Y019884D01*
X037793Y019914D01*
X037734Y019914D01*
X037705Y019884D01*
X037705Y019737D02*
X037823Y019737D01*
X037886Y019737D02*
X038004Y019737D01*
X037945Y019737D02*
X037945Y019914D01*
X037886Y019855D01*
X038067Y019855D02*
X038126Y019914D01*
X038126Y019737D01*
X038067Y019737D02*
X038185Y019737D01*
X038249Y019766D02*
X038278Y019737D01*
X038337Y019737D01*
X038367Y019766D01*
X038367Y019825D01*
X038308Y019825D01*
X038367Y019884D02*
X038337Y019914D01*
X038278Y019914D01*
X038249Y019884D01*
X038249Y019766D01*
X037279Y019914D02*
X037161Y019796D01*
X037161Y021469D02*
X037161Y021646D01*
X037191Y021558D02*
X037279Y021469D01*
X037342Y021469D02*
X037342Y021646D01*
X037401Y021587D01*
X037460Y021646D01*
X037460Y021469D01*
X037524Y021469D02*
X037524Y021646D01*
X037612Y021646D01*
X037642Y021617D01*
X037642Y021558D01*
X037612Y021528D01*
X037524Y021528D01*
X037583Y021528D02*
X037642Y021469D01*
X037705Y021469D02*
X037823Y021587D01*
X037823Y021617D01*
X037793Y021646D01*
X037734Y021646D01*
X037705Y021617D01*
X037705Y021469D02*
X037823Y021469D01*
X037886Y021469D02*
X038004Y021469D01*
X037945Y021469D02*
X037945Y021646D01*
X037886Y021587D01*
X038067Y021587D02*
X038126Y021646D01*
X038126Y021469D01*
X038067Y021469D02*
X038185Y021469D01*
X038249Y021499D02*
X038278Y021469D01*
X038337Y021469D01*
X038367Y021499D01*
X038367Y021558D01*
X038308Y021558D01*
X038367Y021617D02*
X038337Y021646D01*
X038278Y021646D01*
X038249Y021617D01*
X038249Y021499D01*
X038250Y021902D02*
X038279Y021932D01*
X038279Y021991D01*
X038220Y021991D01*
X038161Y022050D02*
X038161Y021932D01*
X038191Y021902D01*
X038250Y021902D01*
X038279Y022050D02*
X038250Y022079D01*
X038191Y022079D01*
X038161Y022050D01*
X038039Y022079D02*
X038039Y021902D01*
X037980Y021902D02*
X038098Y021902D01*
X037980Y022020D02*
X038039Y022079D01*
X037858Y022079D02*
X037858Y021902D01*
X037799Y021902D02*
X037917Y021902D01*
X037799Y022020D02*
X037858Y022079D01*
X037735Y022050D02*
X037706Y022079D01*
X037647Y022079D01*
X037617Y022050D01*
X037554Y022050D02*
X037554Y021991D01*
X037524Y021961D01*
X037436Y021961D01*
X037436Y021902D02*
X037436Y022079D01*
X037524Y022079D01*
X037554Y022050D01*
X037495Y021961D02*
X037554Y021902D01*
X037617Y021902D02*
X037735Y022020D01*
X037735Y022050D01*
X037735Y021902D02*
X037617Y021902D01*
X037373Y021902D02*
X037373Y022079D01*
X037314Y022020D01*
X037255Y022079D01*
X037255Y021902D01*
X037191Y021902D02*
X037103Y021991D01*
X037073Y021961D02*
X037191Y022079D01*
X037073Y022079D02*
X037073Y021902D01*
X037279Y021646D02*
X037161Y021528D01*
D25*
X034435Y026656D03*
X034120Y026971D03*
D26*
X024986Y029491D02*
X023411Y029491D01*
X023411Y025947D01*
X010813Y025947D01*
X010813Y029491D01*
X009238Y029491D01*
X010813Y025947D02*
X023411Y025947D01*
X020065Y025908D02*
X020065Y022443D01*
X019564Y022443D01*
X019170Y022443D02*
X018670Y022443D01*
X018276Y022443D02*
X017775Y022443D01*
X017382Y022443D02*
X016881Y022443D01*
X016488Y022443D02*
X015987Y022443D01*
X015593Y022443D02*
X015093Y022443D01*
X014699Y022443D02*
X014198Y022443D01*
X013569Y022443D01*
X013569Y019097D01*
X014198Y019097D01*
X014198Y022443D01*
X014198Y025908D01*
X020065Y025908D01*
X019474Y025750D02*
X017702Y025750D01*
X017702Y029487D01*
X017702Y029491D02*
X017112Y029491D01*
X016521Y029491D01*
X016521Y029487D02*
X016521Y025750D01*
X014750Y025750D01*
X014750Y015514D01*
X019474Y015514D01*
X019474Y025750D01*
X017702Y025750D02*
X016521Y025750D01*
X020065Y022443D02*
X020655Y022443D01*
X020655Y019097D01*
X020065Y019097D01*
X020065Y022443D01*
X020655Y022443D02*
X020736Y022441D01*
X020816Y022435D01*
X020897Y022425D01*
X020976Y022412D01*
X021055Y022394D01*
X021133Y022373D01*
X021210Y022348D01*
X021286Y022319D01*
X021360Y022287D01*
X021432Y022251D01*
X021503Y022212D01*
X021572Y022169D01*
X021638Y022123D01*
X021703Y022074D01*
X021764Y022022D01*
X021824Y021967D01*
X021880Y021909D01*
X021934Y021849D01*
X021984Y021786D01*
X022032Y021720D01*
X022076Y021653D01*
X022117Y021583D01*
X022155Y021511D01*
X022189Y021438D01*
X022219Y021363D01*
X022246Y021287D01*
X022269Y021210D01*
X022289Y021131D01*
X022304Y021052D01*
X022316Y020972D01*
X022324Y020891D01*
X022328Y020810D01*
X022328Y020730D01*
X022324Y020649D01*
X022316Y020568D01*
X022304Y020488D01*
X022289Y020409D01*
X022269Y020330D01*
X022246Y020253D01*
X022219Y020177D01*
X022189Y020102D01*
X022155Y020029D01*
X022117Y019957D01*
X022076Y019887D01*
X022032Y019820D01*
X021984Y019754D01*
X021934Y019691D01*
X021880Y019631D01*
X021824Y019573D01*
X021764Y019518D01*
X021703Y019466D01*
X021638Y019417D01*
X021572Y019371D01*
X021503Y019328D01*
X021432Y019289D01*
X021360Y019253D01*
X021286Y019221D01*
X021210Y019192D01*
X021133Y019167D01*
X021055Y019146D01*
X020976Y019128D01*
X020897Y019115D01*
X020816Y019105D01*
X020736Y019099D01*
X020655Y019097D01*
X020065Y019097D02*
X014198Y019097D01*
X013569Y019097D02*
X013488Y019099D01*
X013408Y019105D01*
X013327Y019115D01*
X013248Y019128D01*
X013169Y019146D01*
X013091Y019167D01*
X013014Y019192D01*
X012938Y019221D01*
X012864Y019253D01*
X012792Y019289D01*
X012721Y019328D01*
X012652Y019371D01*
X012586Y019417D01*
X012521Y019466D01*
X012460Y019518D01*
X012400Y019573D01*
X012344Y019631D01*
X012290Y019691D01*
X012240Y019754D01*
X012192Y019820D01*
X012148Y019887D01*
X012107Y019957D01*
X012069Y020029D01*
X012035Y020102D01*
X012005Y020177D01*
X011978Y020253D01*
X011955Y020330D01*
X011935Y020409D01*
X011920Y020488D01*
X011908Y020568D01*
X011900Y020649D01*
X011896Y020730D01*
X011896Y020810D01*
X011900Y020891D01*
X011908Y020972D01*
X011920Y021052D01*
X011935Y021131D01*
X011955Y021210D01*
X011978Y021287D01*
X012005Y021363D01*
X012035Y021438D01*
X012069Y021511D01*
X012107Y021583D01*
X012148Y021653D01*
X012192Y021720D01*
X012240Y021786D01*
X012290Y021849D01*
X012344Y021909D01*
X012400Y021967D01*
X012460Y022022D01*
X012521Y022074D01*
X012586Y022123D01*
X012652Y022169D01*
X012721Y022212D01*
X012792Y022251D01*
X012864Y022287D01*
X012938Y022319D01*
X013014Y022348D01*
X013091Y022373D01*
X013169Y022394D01*
X013248Y022412D01*
X013327Y022425D01*
X013408Y022435D01*
X013488Y022441D01*
X013569Y022443D01*
X013404Y014924D02*
X014474Y014924D01*
X015064Y014924D02*
X016134Y014924D01*
X016725Y014924D02*
X017795Y014924D01*
X018385Y014924D02*
X019455Y014924D01*
X020046Y014924D02*
X021116Y014924D01*
X021706Y014924D02*
X022776Y014924D01*
X023367Y014924D02*
X024437Y014924D01*
X025027Y014924D02*
X026097Y014924D01*
X026688Y014924D02*
X027758Y014924D01*
X028348Y014924D02*
X029418Y014924D01*
X030009Y014924D02*
X031079Y014924D01*
X031669Y014924D02*
X032739Y014924D01*
X033330Y014924D02*
X034400Y014924D01*
X034990Y014924D02*
X036060Y014924D01*
X036651Y014924D02*
X037721Y014924D01*
X038311Y014924D02*
X039381Y014924D01*
X039972Y014924D02*
X041042Y014924D01*
X041632Y014924D02*
X042702Y014924D01*
X023411Y003900D02*
X010813Y003900D01*
X010813Y000357D01*
X009238Y000357D01*
X010813Y003900D02*
X023411Y003900D01*
X023411Y000357D01*
X024986Y000357D01*
X020065Y003939D02*
X020065Y007404D01*
X019671Y007404D01*
X020065Y007404D02*
X020655Y007404D01*
X020655Y010750D01*
X020065Y010750D01*
X020065Y007404D01*
X019277Y007404D02*
X018883Y007404D01*
X018490Y007404D02*
X018096Y007404D01*
X017702Y007404D02*
X017309Y007404D01*
X016915Y007404D02*
X016521Y007404D01*
X016128Y007404D02*
X015734Y007404D01*
X015340Y007404D02*
X014946Y007404D01*
X014553Y007404D02*
X014159Y007404D01*
X013569Y007404D01*
X013569Y010750D01*
X014159Y010750D01*
X014159Y007404D01*
X014159Y003939D01*
X020065Y003939D01*
X019474Y004097D02*
X019474Y014333D01*
X014750Y014333D01*
X014750Y004097D01*
X016521Y004097D01*
X016521Y000361D01*
X016521Y000357D02*
X017112Y000357D01*
X017702Y000357D01*
X017702Y000361D02*
X017702Y004097D01*
X019474Y004097D01*
X017702Y004097D02*
X016521Y004097D01*
X013569Y007404D02*
X013488Y007406D01*
X013408Y007412D01*
X013327Y007422D01*
X013248Y007435D01*
X013169Y007453D01*
X013091Y007474D01*
X013014Y007499D01*
X012938Y007528D01*
X012864Y007560D01*
X012792Y007596D01*
X012721Y007635D01*
X012652Y007678D01*
X012586Y007724D01*
X012521Y007773D01*
X012460Y007825D01*
X012400Y007880D01*
X012344Y007938D01*
X012290Y007998D01*
X012240Y008061D01*
X012192Y008127D01*
X012148Y008194D01*
X012107Y008264D01*
X012069Y008336D01*
X012035Y008409D01*
X012005Y008484D01*
X011978Y008560D01*
X011955Y008637D01*
X011935Y008716D01*
X011920Y008795D01*
X011908Y008875D01*
X011900Y008956D01*
X011896Y009037D01*
X011896Y009117D01*
X011900Y009198D01*
X011908Y009279D01*
X011920Y009359D01*
X011935Y009438D01*
X011955Y009517D01*
X011978Y009594D01*
X012005Y009670D01*
X012035Y009745D01*
X012069Y009818D01*
X012107Y009890D01*
X012148Y009960D01*
X012192Y010027D01*
X012240Y010093D01*
X012290Y010156D01*
X012344Y010216D01*
X012400Y010274D01*
X012460Y010329D01*
X012521Y010381D01*
X012586Y010430D01*
X012652Y010476D01*
X012721Y010519D01*
X012792Y010558D01*
X012864Y010594D01*
X012938Y010626D01*
X013014Y010655D01*
X013091Y010680D01*
X013169Y010701D01*
X013248Y010719D01*
X013327Y010732D01*
X013408Y010742D01*
X013488Y010748D01*
X013569Y010750D01*
X014159Y010750D02*
X020065Y010750D01*
X020655Y010750D02*
X020736Y010748D01*
X020816Y010742D01*
X020897Y010732D01*
X020976Y010719D01*
X021055Y010701D01*
X021133Y010680D01*
X021210Y010655D01*
X021286Y010626D01*
X021360Y010594D01*
X021432Y010558D01*
X021503Y010519D01*
X021572Y010476D01*
X021638Y010430D01*
X021703Y010381D01*
X021764Y010329D01*
X021824Y010274D01*
X021880Y010216D01*
X021934Y010156D01*
X021984Y010093D01*
X022032Y010027D01*
X022076Y009960D01*
X022117Y009890D01*
X022155Y009818D01*
X022189Y009745D01*
X022219Y009670D01*
X022246Y009594D01*
X022269Y009517D01*
X022289Y009438D01*
X022304Y009359D01*
X022316Y009279D01*
X022324Y009198D01*
X022328Y009117D01*
X022328Y009037D01*
X022324Y008956D01*
X022316Y008875D01*
X022304Y008795D01*
X022289Y008716D01*
X022269Y008637D01*
X022246Y008560D01*
X022219Y008484D01*
X022189Y008409D01*
X022155Y008336D01*
X022117Y008264D01*
X022076Y008194D01*
X022032Y008127D01*
X021984Y008061D01*
X021934Y007998D01*
X021880Y007938D01*
X021824Y007880D01*
X021764Y007825D01*
X021703Y007773D01*
X021638Y007724D01*
X021572Y007678D01*
X021503Y007635D01*
X021432Y007596D01*
X021360Y007560D01*
X021286Y007528D01*
X021210Y007499D01*
X021133Y007474D01*
X021055Y007453D01*
X020976Y007435D01*
X020897Y007422D01*
X020816Y007412D01*
X020736Y007406D01*
X020655Y007404D01*
X012813Y014924D02*
X011743Y014924D01*
X011153Y014924D02*
X010083Y014924D01*
X009492Y014924D02*
X008422Y014924D01*
X007832Y014924D02*
X006762Y014924D01*
X006171Y014924D02*
X005101Y014924D01*
X004511Y014924D02*
X003441Y014924D01*
X002850Y014924D02*
X001780Y014924D01*
X001190Y014924D02*
X000120Y014924D01*
D27*
X010025Y026341D02*
X010025Y029491D01*
X017112Y029491D01*
X024198Y029491D01*
X024198Y026341D01*
X010025Y026341D01*
X010025Y003506D02*
X024198Y003506D01*
X024198Y000357D01*
X017112Y000357D01*
X010025Y000357D01*
X010025Y003506D01*
M02*
