G75*
%MOIN*%
%OFA0B0*%
%FSLAX24Y24*%
%IPPOS*%
%LPD*%
%AMOC8*
5,1,8,0,0,1.08239X$1,22.5*
%
%ADD10C,0.0000*%
%ADD11C,0.0110*%
%ADD12C,0.0400*%
%ADD13C,0.0080*%
%ADD14C,0.0050*%
%ADD15C,0.0060*%
%ADD16C,0.0039*%
%ADD17C,0.0160*%
%ADD18C,0.0030*%
%ADD19C,0.0040*%
%ADD20R,0.0079X0.0079*%
%ADD21C,0.0090*%
%ADD22C,0.0070*%
%ADD23C,0.0100*%
%ADD24C,0.0079*%
%ADD25R,0.0118X0.0059*%
%ADD26R,0.0118X0.0118*%
%ADD27C,0.0020*%
%ADD28R,0.0157X0.0157*%
D10*
X006088Y000180D02*
X009238Y000180D01*
X006169Y000180D02*
X006034Y000184D01*
X005900Y000192D01*
X005765Y000204D01*
X005631Y000219D01*
X005497Y000239D01*
X005364Y000262D01*
X005232Y000289D01*
X005101Y000320D01*
X004970Y000355D01*
X004841Y000393D01*
X004712Y000435D01*
X004585Y000481D01*
X004460Y000530D01*
X004335Y000583D01*
X004213Y000640D01*
X004092Y000699D01*
X003972Y000763D01*
X003855Y000829D01*
X003739Y000899D01*
X003626Y000973D01*
X003515Y001049D01*
X003406Y001129D01*
X003299Y001211D01*
X003195Y001297D01*
X003093Y001386D01*
X002993Y001477D01*
X002897Y001572D01*
X002803Y001669D01*
X002712Y001769D01*
X002624Y001871D01*
X002539Y001975D01*
X002456Y002083D01*
X002377Y002192D01*
X002301Y002304D01*
X002229Y002417D01*
X002159Y002533D01*
X002093Y002651D01*
X002030Y002771D01*
X001971Y002892D01*
X001915Y003015D01*
X001863Y003139D01*
X001814Y003265D01*
X001769Y003393D01*
X001728Y003521D01*
X001690Y003651D01*
X001656Y003781D01*
X001626Y003913D01*
X001599Y004045D01*
X001576Y004178D01*
X001558Y004312D01*
X001542Y004446D01*
X001531Y004581D01*
X001524Y004716D01*
X001520Y004851D01*
X001521Y004986D01*
X001521Y024272D01*
X001520Y024411D01*
X001524Y024551D01*
X001532Y024690D01*
X001543Y024828D01*
X001558Y024967D01*
X001578Y025105D01*
X001601Y025242D01*
X001628Y025379D01*
X001658Y025514D01*
X001693Y025649D01*
X001731Y025783D01*
X001773Y025916D01*
X001819Y026047D01*
X001868Y026178D01*
X001921Y026306D01*
X001978Y026434D01*
X002038Y026559D01*
X002102Y026683D01*
X002169Y026805D01*
X002239Y026925D01*
X002313Y027043D01*
X002390Y027159D01*
X002471Y027273D01*
X002554Y027384D01*
X002641Y027493D01*
X002731Y027600D01*
X002823Y027704D01*
X002919Y027805D01*
X003017Y027904D01*
X003118Y027999D01*
X003222Y028092D01*
X003328Y028182D01*
X003437Y028269D01*
X003548Y028353D01*
X003661Y028434D01*
X003777Y028512D01*
X003894Y028586D01*
X004014Y028657D01*
X004136Y028725D01*
X004260Y028789D01*
X004385Y028849D01*
X004512Y028906D01*
X004640Y028960D01*
X004770Y029010D01*
X004902Y029056D01*
X005034Y029099D01*
X005168Y029137D01*
X005303Y029172D01*
X005438Y029204D01*
X005575Y029231D01*
X005712Y029255D01*
X005850Y029274D01*
X005988Y029290D01*
X006127Y029302D01*
X006266Y029310D01*
X006405Y029314D01*
X006364Y029314D02*
X009238Y029314D01*
X013119Y020593D02*
X013121Y020635D01*
X013127Y020677D01*
X013137Y020718D01*
X013150Y020758D01*
X013168Y020796D01*
X013188Y020833D01*
X013213Y020868D01*
X013240Y020900D01*
X013270Y020929D01*
X013303Y020956D01*
X013338Y020979D01*
X013375Y020999D01*
X013414Y021015D01*
X013454Y021028D01*
X013495Y021037D01*
X013537Y021042D01*
X013580Y021043D01*
X013622Y021040D01*
X013663Y021033D01*
X013704Y021022D01*
X013744Y021008D01*
X013782Y020990D01*
X013818Y020968D01*
X013852Y020943D01*
X013883Y020915D01*
X013912Y020884D01*
X013938Y020851D01*
X013960Y020815D01*
X013980Y020777D01*
X013995Y020738D01*
X014007Y020698D01*
X014015Y020656D01*
X014019Y020614D01*
X014019Y020572D01*
X014015Y020530D01*
X014007Y020488D01*
X013995Y020448D01*
X013980Y020409D01*
X013960Y020371D01*
X013938Y020335D01*
X013912Y020302D01*
X013883Y020271D01*
X013852Y020243D01*
X013818Y020218D01*
X013782Y020196D01*
X013744Y020178D01*
X013704Y020164D01*
X013663Y020153D01*
X013622Y020146D01*
X013580Y020143D01*
X013537Y020144D01*
X013495Y020149D01*
X013454Y020158D01*
X013414Y020171D01*
X013375Y020187D01*
X013338Y020207D01*
X013303Y020230D01*
X013270Y020257D01*
X013240Y020286D01*
X013213Y020318D01*
X013188Y020353D01*
X013168Y020390D01*
X013150Y020428D01*
X013137Y020468D01*
X013127Y020509D01*
X013121Y020551D01*
X013119Y020593D01*
X020205Y020593D02*
X020207Y020635D01*
X020213Y020677D01*
X020223Y020718D01*
X020236Y020758D01*
X020254Y020796D01*
X020274Y020833D01*
X020299Y020868D01*
X020326Y020900D01*
X020356Y020929D01*
X020389Y020956D01*
X020424Y020979D01*
X020461Y020999D01*
X020500Y021015D01*
X020540Y021028D01*
X020581Y021037D01*
X020623Y021042D01*
X020666Y021043D01*
X020708Y021040D01*
X020749Y021033D01*
X020790Y021022D01*
X020830Y021008D01*
X020868Y020990D01*
X020904Y020968D01*
X020938Y020943D01*
X020969Y020915D01*
X020998Y020884D01*
X021024Y020851D01*
X021046Y020815D01*
X021066Y020777D01*
X021081Y020738D01*
X021093Y020698D01*
X021101Y020656D01*
X021105Y020614D01*
X021105Y020572D01*
X021101Y020530D01*
X021093Y020488D01*
X021081Y020448D01*
X021066Y020409D01*
X021046Y020371D01*
X021024Y020335D01*
X020998Y020302D01*
X020969Y020271D01*
X020938Y020243D01*
X020904Y020218D01*
X020868Y020196D01*
X020830Y020178D01*
X020790Y020164D01*
X020749Y020153D01*
X020708Y020146D01*
X020666Y020143D01*
X020623Y020144D01*
X020581Y020149D01*
X020540Y020158D01*
X020500Y020171D01*
X020461Y020187D01*
X020424Y020207D01*
X020389Y020230D01*
X020356Y020257D01*
X020326Y020286D01*
X020299Y020318D01*
X020274Y020353D01*
X020254Y020390D01*
X020236Y020428D01*
X020223Y020468D01*
X020213Y020509D01*
X020207Y020551D01*
X020205Y020593D01*
X028923Y029315D02*
X029206Y029309D01*
X029489Y029297D01*
X029772Y029278D01*
X030055Y029252D01*
X030336Y029220D01*
X030617Y029180D01*
X030897Y029134D01*
X031175Y029081D01*
X031453Y029021D01*
X031728Y028955D01*
X032002Y028882D01*
X032274Y028802D01*
X032545Y028716D01*
X032812Y028623D01*
X033078Y028524D01*
X033341Y028419D01*
X033602Y028307D01*
X033860Y028189D01*
X034114Y028065D01*
X034366Y027934D01*
X034615Y027798D01*
X034860Y027655D01*
X035102Y027507D01*
X035340Y027353D01*
X035574Y027193D01*
X035804Y027028D01*
X036030Y026857D01*
X036252Y026680D01*
X036470Y026499D01*
X036683Y026312D01*
X036892Y026120D01*
X037096Y025923D01*
X037295Y025721D01*
X037489Y025515D01*
X037678Y025303D01*
X037862Y025088D01*
X038041Y024867D01*
X038214Y024643D01*
X038382Y024415D01*
X038545Y024182D01*
X038701Y023946D01*
X038852Y023706D01*
X038997Y023462D01*
X039136Y023215D01*
X039269Y022965D01*
X039396Y022711D01*
X039517Y022455D01*
X039632Y022195D01*
X039740Y021933D01*
X039842Y021669D01*
X039938Y021402D01*
X040027Y021133D01*
X040109Y020861D01*
X040185Y020588D01*
X040255Y020313D01*
X040317Y020037D01*
X040373Y019759D01*
X040423Y019480D01*
X040465Y019199D01*
X040501Y018918D01*
X040530Y018636D01*
X040552Y018353D01*
X040567Y018070D01*
X040575Y017787D01*
X040577Y017503D01*
X040576Y017503D02*
X040576Y011866D01*
X039238Y014704D02*
X039240Y014751D01*
X039246Y014797D01*
X039256Y014843D01*
X039269Y014888D01*
X039287Y014931D01*
X039308Y014973D01*
X039332Y015013D01*
X039360Y015050D01*
X039391Y015085D01*
X039425Y015118D01*
X039461Y015147D01*
X039500Y015173D01*
X039541Y015196D01*
X039584Y015215D01*
X039628Y015231D01*
X039673Y015243D01*
X039719Y015251D01*
X039766Y015255D01*
X039812Y015255D01*
X039859Y015251D01*
X039905Y015243D01*
X039950Y015231D01*
X039994Y015215D01*
X040037Y015196D01*
X040078Y015173D01*
X040117Y015147D01*
X040153Y015118D01*
X040187Y015085D01*
X040218Y015050D01*
X040246Y015013D01*
X040270Y014973D01*
X040291Y014931D01*
X040309Y014888D01*
X040322Y014843D01*
X040332Y014797D01*
X040338Y014751D01*
X040340Y014704D01*
X040338Y014657D01*
X040332Y014611D01*
X040322Y014565D01*
X040309Y014520D01*
X040291Y014477D01*
X040270Y014435D01*
X040246Y014395D01*
X040218Y014358D01*
X040187Y014323D01*
X040153Y014290D01*
X040117Y014261D01*
X040078Y014235D01*
X040037Y014212D01*
X039994Y014193D01*
X039950Y014177D01*
X039905Y014165D01*
X039859Y014157D01*
X039812Y014153D01*
X039766Y014153D01*
X039719Y014157D01*
X039673Y014165D01*
X039628Y014177D01*
X039584Y014193D01*
X039541Y014212D01*
X039500Y014235D01*
X039461Y014261D01*
X039425Y014290D01*
X039391Y014323D01*
X039360Y014358D01*
X039332Y014395D01*
X039308Y014435D01*
X039287Y014477D01*
X039269Y014520D01*
X039256Y014565D01*
X039246Y014611D01*
X039240Y014657D01*
X039238Y014704D01*
X040576Y011866D02*
X040574Y011585D01*
X040566Y011305D01*
X040551Y011025D01*
X040529Y010745D01*
X040501Y010466D01*
X040465Y010188D01*
X040423Y009911D01*
X040375Y009634D01*
X040319Y009359D01*
X040257Y009086D01*
X040189Y008814D01*
X040114Y008544D01*
X040032Y008275D01*
X039944Y008009D01*
X039849Y007745D01*
X039749Y007483D01*
X039641Y007224D01*
X039528Y006967D01*
X039408Y006714D01*
X039283Y006463D01*
X039151Y006215D01*
X039014Y005971D01*
X038870Y005730D01*
X038721Y005492D01*
X038566Y005258D01*
X038405Y005028D01*
X038239Y004802D01*
X038068Y004580D01*
X037891Y004363D01*
X037709Y004149D01*
X037522Y003940D01*
X037330Y003736D01*
X037133Y003536D01*
X036931Y003341D01*
X036725Y003151D01*
X036514Y002967D01*
X036298Y002787D01*
X036079Y002612D01*
X035855Y002443D01*
X035627Y002280D01*
X035395Y002121D01*
X035160Y001969D01*
X034921Y001822D01*
X034678Y001681D01*
X034433Y001546D01*
X034184Y001417D01*
X033931Y001294D01*
X033677Y001177D01*
X033419Y001067D01*
X033158Y000962D01*
X032896Y000864D01*
X032631Y000773D01*
X032363Y000687D01*
X032094Y000609D01*
X031823Y000536D01*
X031550Y000471D01*
X031276Y000412D01*
X031001Y000359D01*
X030724Y000313D01*
X030446Y000274D01*
X030168Y000242D01*
X029888Y000216D01*
X029608Y000198D01*
X029328Y000186D01*
X029048Y000180D01*
X029317Y000180D02*
X024986Y000180D01*
X020205Y008900D02*
X020207Y008942D01*
X020213Y008984D01*
X020223Y009025D01*
X020236Y009065D01*
X020254Y009103D01*
X020274Y009140D01*
X020299Y009175D01*
X020326Y009207D01*
X020356Y009236D01*
X020389Y009263D01*
X020424Y009286D01*
X020461Y009306D01*
X020500Y009322D01*
X020540Y009335D01*
X020581Y009344D01*
X020623Y009349D01*
X020666Y009350D01*
X020708Y009347D01*
X020749Y009340D01*
X020790Y009329D01*
X020830Y009315D01*
X020868Y009297D01*
X020904Y009275D01*
X020938Y009250D01*
X020969Y009222D01*
X020998Y009191D01*
X021024Y009158D01*
X021046Y009122D01*
X021066Y009084D01*
X021081Y009045D01*
X021093Y009005D01*
X021101Y008963D01*
X021105Y008921D01*
X021105Y008879D01*
X021101Y008837D01*
X021093Y008795D01*
X021081Y008755D01*
X021066Y008716D01*
X021046Y008678D01*
X021024Y008642D01*
X020998Y008609D01*
X020969Y008578D01*
X020938Y008550D01*
X020904Y008525D01*
X020868Y008503D01*
X020830Y008485D01*
X020790Y008471D01*
X020749Y008460D01*
X020708Y008453D01*
X020666Y008450D01*
X020623Y008451D01*
X020581Y008456D01*
X020540Y008465D01*
X020500Y008478D01*
X020461Y008494D01*
X020424Y008514D01*
X020389Y008537D01*
X020356Y008564D01*
X020326Y008593D01*
X020299Y008625D01*
X020274Y008660D01*
X020254Y008697D01*
X020236Y008735D01*
X020223Y008775D01*
X020213Y008816D01*
X020207Y008858D01*
X020205Y008900D01*
X013119Y008900D02*
X013121Y008942D01*
X013127Y008984D01*
X013137Y009025D01*
X013150Y009065D01*
X013168Y009103D01*
X013188Y009140D01*
X013213Y009175D01*
X013240Y009207D01*
X013270Y009236D01*
X013303Y009263D01*
X013338Y009286D01*
X013375Y009306D01*
X013414Y009322D01*
X013454Y009335D01*
X013495Y009344D01*
X013537Y009349D01*
X013580Y009350D01*
X013622Y009347D01*
X013663Y009340D01*
X013704Y009329D01*
X013744Y009315D01*
X013782Y009297D01*
X013818Y009275D01*
X013852Y009250D01*
X013883Y009222D01*
X013912Y009191D01*
X013938Y009158D01*
X013960Y009122D01*
X013980Y009084D01*
X013995Y009045D01*
X014007Y009005D01*
X014015Y008963D01*
X014019Y008921D01*
X014019Y008879D01*
X014015Y008837D01*
X014007Y008795D01*
X013995Y008755D01*
X013980Y008716D01*
X013960Y008678D01*
X013938Y008642D01*
X013912Y008609D01*
X013883Y008578D01*
X013852Y008550D01*
X013818Y008525D01*
X013782Y008503D01*
X013744Y008485D01*
X013704Y008471D01*
X013663Y008460D01*
X013622Y008453D01*
X013580Y008450D01*
X013537Y008451D01*
X013495Y008456D01*
X013454Y008465D01*
X013414Y008478D01*
X013375Y008494D01*
X013338Y008514D01*
X013303Y008537D01*
X013270Y008564D01*
X013240Y008593D01*
X013213Y008625D01*
X013188Y008660D01*
X013168Y008697D01*
X013150Y008735D01*
X013137Y008775D01*
X013127Y008816D01*
X013121Y008858D01*
X013119Y008900D01*
X002545Y010373D02*
X002547Y010423D01*
X002553Y010473D01*
X002563Y010522D01*
X002577Y010570D01*
X002594Y010617D01*
X002615Y010662D01*
X002640Y010706D01*
X002668Y010747D01*
X002700Y010786D01*
X002734Y010823D01*
X002771Y010857D01*
X002811Y010887D01*
X002853Y010914D01*
X002897Y010938D01*
X002943Y010959D01*
X002990Y010975D01*
X003038Y010988D01*
X003088Y010997D01*
X003137Y011002D01*
X003188Y011003D01*
X003238Y011000D01*
X003287Y010993D01*
X003336Y010982D01*
X003384Y010967D01*
X003430Y010949D01*
X003475Y010927D01*
X003518Y010901D01*
X003559Y010872D01*
X003598Y010840D01*
X003634Y010805D01*
X003666Y010767D01*
X003696Y010727D01*
X003723Y010684D01*
X003746Y010640D01*
X003765Y010594D01*
X003781Y010546D01*
X003793Y010497D01*
X003801Y010448D01*
X003805Y010398D01*
X003805Y010348D01*
X003801Y010298D01*
X003793Y010249D01*
X003781Y010200D01*
X003765Y010152D01*
X003746Y010106D01*
X003723Y010062D01*
X003696Y010019D01*
X003666Y009979D01*
X003634Y009941D01*
X003598Y009906D01*
X003559Y009874D01*
X003518Y009845D01*
X003475Y009819D01*
X003430Y009797D01*
X003384Y009779D01*
X003336Y009764D01*
X003287Y009753D01*
X003238Y009746D01*
X003188Y009743D01*
X003137Y009744D01*
X003088Y009749D01*
X003038Y009758D01*
X002990Y009771D01*
X002943Y009787D01*
X002897Y009808D01*
X002853Y009832D01*
X002811Y009859D01*
X002771Y009889D01*
X002734Y009923D01*
X002700Y009960D01*
X002668Y009999D01*
X002640Y010040D01*
X002615Y010084D01*
X002594Y010129D01*
X002577Y010176D01*
X002563Y010224D01*
X002553Y010273D01*
X002547Y010323D01*
X002545Y010373D01*
X002545Y019192D02*
X002547Y019242D01*
X002553Y019292D01*
X002563Y019341D01*
X002577Y019389D01*
X002594Y019436D01*
X002615Y019481D01*
X002640Y019525D01*
X002668Y019566D01*
X002700Y019605D01*
X002734Y019642D01*
X002771Y019676D01*
X002811Y019706D01*
X002853Y019733D01*
X002897Y019757D01*
X002943Y019778D01*
X002990Y019794D01*
X003038Y019807D01*
X003088Y019816D01*
X003137Y019821D01*
X003188Y019822D01*
X003238Y019819D01*
X003287Y019812D01*
X003336Y019801D01*
X003384Y019786D01*
X003430Y019768D01*
X003475Y019746D01*
X003518Y019720D01*
X003559Y019691D01*
X003598Y019659D01*
X003634Y019624D01*
X003666Y019586D01*
X003696Y019546D01*
X003723Y019503D01*
X003746Y019459D01*
X003765Y019413D01*
X003781Y019365D01*
X003793Y019316D01*
X003801Y019267D01*
X003805Y019217D01*
X003805Y019167D01*
X003801Y019117D01*
X003793Y019068D01*
X003781Y019019D01*
X003765Y018971D01*
X003746Y018925D01*
X003723Y018881D01*
X003696Y018838D01*
X003666Y018798D01*
X003634Y018760D01*
X003598Y018725D01*
X003559Y018693D01*
X003518Y018664D01*
X003475Y018638D01*
X003430Y018616D01*
X003384Y018598D01*
X003336Y018583D01*
X003287Y018572D01*
X003238Y018565D01*
X003188Y018562D01*
X003137Y018563D01*
X003088Y018568D01*
X003038Y018577D01*
X002990Y018590D01*
X002943Y018606D01*
X002897Y018627D01*
X002853Y018651D01*
X002811Y018678D01*
X002771Y018708D01*
X002734Y018742D01*
X002700Y018779D01*
X002668Y018818D01*
X002640Y018859D01*
X002615Y018903D01*
X002594Y018948D01*
X002577Y018995D01*
X002563Y019043D01*
X002553Y019092D01*
X002547Y019142D01*
X002545Y019192D01*
X024828Y029314D02*
X028923Y029314D01*
D11*
X006296Y004193D02*
X006296Y003542D01*
X005863Y004193D01*
X005863Y003542D01*
X005597Y003651D02*
X005597Y004084D01*
X005488Y004193D01*
X005271Y004193D01*
X005163Y004084D01*
X005163Y003651D01*
X005271Y003542D01*
X005488Y003542D01*
X005597Y003651D01*
X004897Y004193D02*
X004463Y003542D01*
X003980Y003867D02*
X003763Y003867D01*
X003763Y003542D02*
X003763Y004193D01*
X004197Y004193D01*
X003497Y004193D02*
X003063Y004193D01*
X003063Y003542D01*
X002797Y003651D02*
X002797Y004084D01*
X002689Y004193D01*
X002472Y004193D01*
X002364Y004084D01*
X002364Y003651D01*
X002472Y003542D01*
X002689Y003542D01*
X002797Y003651D01*
X003063Y003867D02*
X003280Y003867D01*
D12*
X003571Y007267D02*
X004506Y007267D01*
X005306Y007267D02*
X006241Y007267D01*
X007041Y007267D02*
X007975Y007267D01*
X008775Y007267D02*
X009710Y007267D01*
X009710Y008078D01*
X009710Y008878D02*
X009710Y009689D01*
X009710Y010489D02*
X009710Y011300D01*
X009710Y012100D02*
X009710Y012911D01*
X009710Y013711D02*
X009710Y014523D01*
X009710Y015323D02*
X009710Y016134D01*
X009710Y016934D02*
X009710Y017745D01*
X009710Y018545D02*
X009710Y019356D01*
X009710Y020156D02*
X009710Y020967D01*
X008775Y020967D01*
X007975Y020967D02*
X007041Y020967D01*
X006241Y020967D02*
X005306Y020967D01*
X004506Y020967D02*
X003571Y020967D01*
X002771Y020967D02*
X001836Y020967D01*
X001836Y020156D01*
X001836Y019356D02*
X001836Y018545D01*
X001836Y017745D02*
X001836Y016934D01*
X001836Y016134D02*
X001836Y015323D01*
X001836Y014523D02*
X001836Y013711D01*
X001836Y012911D02*
X001836Y012100D01*
X001836Y011300D02*
X001836Y010489D01*
X001836Y009689D02*
X001836Y008878D01*
X001836Y008078D02*
X001836Y007267D01*
X002771Y007267D01*
D13*
X004902Y009457D02*
X005006Y009354D01*
X005109Y009354D01*
X005213Y009457D01*
X005213Y009664D01*
X005316Y009768D01*
X005420Y009768D01*
X005523Y009664D01*
X005523Y009457D01*
X005420Y009354D01*
X004902Y009457D02*
X004902Y009664D01*
X005006Y009768D01*
X005109Y009998D02*
X005109Y010309D01*
X005213Y010412D01*
X005420Y010412D01*
X005523Y010309D01*
X005523Y009998D01*
X005730Y009998D02*
X005109Y009998D01*
X005213Y010643D02*
X005109Y010746D01*
X005109Y010953D01*
X005213Y011057D01*
X005316Y011057D01*
X005316Y010643D01*
X005213Y010643D02*
X005420Y010643D01*
X005523Y010746D01*
X005523Y010953D01*
X005952Y011073D02*
X006573Y011073D01*
X006573Y010842D02*
X006573Y010532D01*
X006470Y010428D01*
X006263Y010428D01*
X006159Y010532D01*
X006159Y010842D01*
X006263Y011073D02*
X006159Y011176D01*
X006159Y011383D01*
X006263Y011486D01*
X006573Y011486D01*
X006470Y011717D02*
X006366Y011821D01*
X006366Y012131D01*
X006263Y012131D02*
X006573Y012131D01*
X006573Y011821D01*
X006470Y011717D01*
X006159Y011821D02*
X006159Y012027D01*
X006263Y012131D01*
X006263Y012362D02*
X006159Y012465D01*
X006159Y012672D01*
X006263Y012775D01*
X006366Y012775D01*
X006366Y012362D01*
X006263Y012362D02*
X006470Y012362D01*
X006573Y012465D01*
X006573Y012672D01*
X006573Y013006D02*
X006573Y013213D01*
X006573Y013110D02*
X005952Y013110D01*
X005952Y013006D01*
X005730Y012887D02*
X005730Y012783D01*
X005730Y012887D02*
X005626Y012990D01*
X005109Y012990D01*
X005109Y012577D02*
X005420Y012577D01*
X005523Y012680D01*
X005523Y012990D01*
X005523Y012346D02*
X004902Y012346D01*
X005109Y012346D02*
X005109Y012035D01*
X005213Y011932D01*
X005420Y011932D01*
X005523Y012035D01*
X005523Y012346D01*
X005316Y011701D02*
X005316Y011288D01*
X005213Y011288D02*
X005109Y011391D01*
X005109Y011598D01*
X005213Y011701D01*
X005316Y011701D01*
X005523Y011598D02*
X005523Y011391D01*
X005420Y011288D01*
X005213Y011288D01*
X005849Y010102D02*
X005952Y010102D01*
X006159Y010102D02*
X006159Y009998D01*
X006159Y010102D02*
X006573Y010102D01*
X006573Y010205D02*
X006573Y009998D01*
X006573Y009768D02*
X005952Y009768D01*
X006159Y009561D01*
X005952Y009354D01*
X006573Y009354D01*
X007002Y009561D02*
X007209Y009768D01*
X007623Y009768D01*
X007520Y009998D02*
X007209Y009998D01*
X007313Y009768D02*
X007313Y009354D01*
X007209Y009354D02*
X007623Y009354D01*
X007209Y009354D02*
X007002Y009561D01*
X007520Y009998D02*
X007623Y010102D01*
X007623Y010412D01*
X007209Y010412D01*
X007313Y010643D02*
X007209Y010746D01*
X007209Y011057D01*
X007726Y011057D01*
X007830Y010953D01*
X007830Y010850D01*
X007623Y010746D02*
X007520Y010643D01*
X007313Y010643D01*
X007623Y010746D02*
X007623Y011057D01*
X007520Y011288D02*
X007209Y011288D01*
X007520Y011288D02*
X007623Y011391D01*
X007623Y011701D01*
X007209Y011701D01*
X007313Y011932D02*
X007209Y012035D01*
X007209Y012346D01*
X007209Y012577D02*
X007209Y012783D01*
X007106Y012680D02*
X007520Y012680D01*
X007623Y012783D01*
X007520Y012346D02*
X007416Y012242D01*
X007416Y012035D01*
X007313Y011932D01*
X007623Y011932D02*
X007623Y012242D01*
X007520Y012346D01*
X007623Y013651D02*
X007209Y014065D01*
X007106Y014065D01*
X007002Y013961D01*
X007002Y013754D01*
X007106Y013651D01*
X007623Y013651D02*
X007623Y014065D01*
X007520Y014295D02*
X007106Y014295D01*
X007002Y014399D01*
X007002Y014606D01*
X007106Y014709D01*
X007520Y014295D01*
X007623Y014399D01*
X007623Y014606D01*
X007520Y014709D01*
X007106Y014709D01*
X007209Y014940D02*
X007002Y015147D01*
X007623Y015147D01*
X007623Y014940D02*
X007623Y015354D01*
X007520Y015585D02*
X007623Y015688D01*
X007623Y015895D01*
X007520Y015998D01*
X007106Y015998D01*
X007002Y015895D01*
X007002Y015688D01*
X007106Y015585D01*
X007209Y015585D01*
X007313Y015688D01*
X007313Y015998D01*
X006573Y016014D02*
X006159Y016014D01*
X006366Y016014D02*
X006159Y016221D01*
X006159Y016324D01*
X006263Y016551D02*
X006159Y016655D01*
X006159Y016862D01*
X006263Y016965D01*
X006366Y016965D01*
X006366Y016551D01*
X006263Y016551D02*
X006470Y016551D01*
X006573Y016655D01*
X006573Y016862D01*
X006573Y017196D02*
X006573Y017403D01*
X006573Y017299D02*
X006159Y017299D01*
X006159Y017196D01*
X005952Y017299D02*
X005849Y017299D01*
X005523Y017287D02*
X005523Y016874D01*
X005109Y017287D01*
X005006Y017287D01*
X004902Y017184D01*
X004902Y016977D01*
X005006Y016874D01*
X004902Y016643D02*
X005316Y016643D01*
X005523Y016436D01*
X005316Y016229D01*
X004902Y016229D01*
X005109Y015362D02*
X005109Y015155D01*
X005006Y015258D02*
X005420Y015258D01*
X005523Y015362D01*
X005952Y015370D02*
X006573Y015370D01*
X006573Y015139D02*
X006573Y014829D01*
X006470Y014725D01*
X006263Y014725D01*
X006159Y014829D01*
X006159Y015139D01*
X006263Y015370D02*
X006159Y015473D01*
X006159Y015680D01*
X006263Y015783D01*
X006573Y015783D01*
X005523Y014821D02*
X005420Y014924D01*
X005213Y014924D01*
X005109Y014821D01*
X005109Y014614D01*
X005213Y014510D01*
X005420Y014510D01*
X005523Y014614D01*
X005523Y014821D01*
X005420Y014279D02*
X005523Y014176D01*
X005523Y013866D01*
X004902Y013866D01*
X004902Y014176D01*
X005006Y014279D01*
X005109Y014279D01*
X005213Y014176D01*
X005213Y013866D01*
X005213Y014176D02*
X005316Y014279D01*
X005420Y014279D01*
X005952Y014184D02*
X006056Y014081D01*
X006159Y014081D01*
X006263Y014184D01*
X006263Y014391D01*
X006366Y014494D01*
X006470Y014494D01*
X006573Y014391D01*
X006573Y014184D01*
X006470Y014081D01*
X006056Y014494D02*
X005952Y014391D01*
X005952Y014184D01*
X005952Y017626D02*
X006573Y017626D01*
X006573Y017936D01*
X006470Y018039D01*
X006263Y018039D01*
X006159Y017936D01*
X006159Y017626D01*
X006263Y018270D02*
X006159Y018374D01*
X006159Y018580D01*
X006263Y018684D01*
X006366Y018684D01*
X006366Y018270D01*
X006263Y018270D02*
X006470Y018270D01*
X006573Y018374D01*
X006573Y018580D01*
X006573Y018915D02*
X006159Y018915D01*
X006366Y018915D02*
X006159Y019122D01*
X006159Y019225D01*
X029511Y015095D02*
X031961Y017544D01*
X032184Y017544D01*
X034634Y015095D01*
X034634Y014872D01*
X032184Y012422D01*
X031961Y012422D01*
X029511Y014872D01*
X029511Y015095D01*
X036276Y017385D02*
X036677Y017385D01*
X036757Y017465D01*
X036757Y017626D01*
X036677Y017706D01*
X036276Y017706D01*
X036357Y017901D02*
X036437Y017901D01*
X036517Y017981D01*
X036517Y018141D01*
X036597Y018221D01*
X036677Y018221D01*
X036757Y018141D01*
X036757Y017981D01*
X036677Y017901D01*
X036357Y017901D02*
X036276Y017981D01*
X036276Y018141D01*
X036357Y018221D01*
X036276Y018417D02*
X036757Y018417D01*
X036757Y018737D01*
X036757Y018932D02*
X036276Y018932D01*
X036276Y019172D01*
X036357Y019253D01*
X036517Y019253D01*
X036597Y019172D01*
X036597Y018932D01*
X036597Y019092D02*
X036757Y019253D01*
X036276Y018737D02*
X036276Y018417D01*
X036517Y018417D02*
X036517Y018577D01*
X036437Y019590D02*
X036357Y019590D01*
X036276Y019670D01*
X036276Y019830D01*
X036357Y019910D01*
X036517Y019830D02*
X036597Y019910D01*
X036677Y019910D01*
X036757Y019830D01*
X036757Y019670D01*
X036677Y019590D01*
X036517Y019670D02*
X036517Y019830D01*
X036517Y019670D02*
X036437Y019590D01*
X036276Y020106D02*
X036276Y020426D01*
X036276Y020266D02*
X036757Y020266D01*
X036757Y020621D02*
X036437Y020621D01*
X036276Y020781D01*
X036437Y020942D01*
X036757Y020942D01*
X036757Y021137D02*
X036276Y021137D01*
X036276Y021377D01*
X036357Y021457D01*
X036517Y021457D01*
X036597Y021377D01*
X036597Y021137D01*
X036597Y021297D02*
X036757Y021457D01*
X036757Y021813D02*
X036276Y021813D01*
X036276Y021653D02*
X036276Y021973D01*
X036276Y022425D02*
X036276Y022665D01*
X036357Y022745D01*
X036517Y022745D01*
X036597Y022665D01*
X036597Y022425D01*
X036757Y022425D02*
X036276Y022425D01*
X036597Y022585D02*
X036757Y022745D01*
X036757Y022940D02*
X036276Y022940D01*
X036276Y023261D01*
X036357Y023456D02*
X036437Y023456D01*
X036517Y023536D01*
X036517Y023696D01*
X036597Y023776D01*
X036677Y023776D01*
X036757Y023696D01*
X036757Y023536D01*
X036677Y023456D01*
X036757Y023261D02*
X036757Y022940D01*
X036517Y022940D02*
X036517Y023101D01*
X036357Y023456D02*
X036276Y023536D01*
X036276Y023696D01*
X036357Y023776D01*
X036276Y023972D02*
X036757Y023972D01*
X036757Y024292D01*
X036517Y024132D02*
X036517Y023972D01*
X036276Y023972D02*
X036276Y024292D01*
X036276Y024487D02*
X036276Y024808D01*
X036276Y024647D02*
X036757Y024647D01*
X036517Y020942D02*
X036517Y020621D01*
D14*
X003344Y003203D02*
X003344Y002752D01*
X003654Y002752D02*
X003654Y003203D01*
X003879Y003203D01*
X003954Y003128D01*
X003954Y002977D01*
X003879Y002902D01*
X003654Y002902D01*
X003494Y003203D02*
X003194Y003203D01*
X004114Y003128D02*
X004189Y003203D01*
X004339Y003203D01*
X004415Y003128D01*
X004415Y003053D01*
X004114Y002752D01*
X004415Y002752D01*
X004354Y002592D02*
X004296Y002534D01*
X004296Y002359D01*
X004646Y002359D01*
X004646Y002534D01*
X004587Y002592D01*
X004354Y002592D01*
X004296Y002224D02*
X004646Y002224D01*
X004296Y001991D01*
X004646Y001991D01*
X004587Y001856D02*
X004471Y001856D01*
X004471Y001739D01*
X004587Y001622D02*
X004646Y001681D01*
X004646Y001797D01*
X004587Y001856D01*
X004354Y001856D02*
X004296Y001797D01*
X004296Y001681D01*
X004354Y001622D01*
X004587Y001622D01*
X006031Y004617D02*
X006331Y004917D01*
X006331Y004992D01*
X006256Y005067D01*
X006106Y005067D01*
X006031Y004992D01*
X006031Y004617D02*
X006331Y004617D01*
X006823Y006329D02*
X006748Y006404D01*
X006823Y006329D02*
X006973Y006329D01*
X007048Y006404D01*
X007048Y006480D01*
X006973Y006555D01*
X006823Y006555D01*
X006748Y006630D01*
X006748Y006705D01*
X006823Y006780D01*
X006973Y006780D01*
X007048Y006705D01*
X007208Y006630D02*
X007358Y006780D01*
X007358Y006329D01*
X007208Y006329D02*
X007508Y006329D01*
X009937Y006242D02*
X009937Y006467D01*
X010012Y006542D01*
X010162Y006542D01*
X010237Y006467D01*
X010237Y006242D01*
X010388Y006242D02*
X009937Y006242D01*
X009937Y006082D02*
X009937Y005782D01*
X009937Y005932D02*
X010388Y005932D01*
X011387Y005762D02*
X011387Y003400D01*
X012569Y003400D01*
X012569Y003793D01*
X012962Y003793D01*
X012962Y003400D01*
X014143Y003400D01*
X014143Y005762D01*
X011387Y005762D01*
X010388Y006778D02*
X010313Y006703D01*
X010388Y006778D02*
X010388Y006928D01*
X010313Y007003D01*
X010237Y007003D01*
X010162Y006928D01*
X010162Y006853D01*
X010162Y006928D02*
X010087Y007003D01*
X010012Y007003D01*
X009937Y006928D01*
X009937Y006778D01*
X010012Y006703D01*
X012537Y010383D02*
X012537Y010533D01*
X012537Y010458D02*
X012988Y010458D01*
X012988Y010383D02*
X012988Y010533D01*
X012913Y010690D02*
X012612Y010690D01*
X012537Y010765D01*
X012537Y010915D01*
X012612Y010990D01*
X012687Y011150D02*
X012537Y011300D01*
X012988Y011300D01*
X012988Y011150D02*
X012988Y011451D01*
X012988Y011611D02*
X012687Y011911D01*
X012612Y011911D01*
X012537Y011836D01*
X012537Y011686D01*
X012612Y011611D01*
X012988Y011611D02*
X012988Y011911D01*
X012913Y010990D02*
X012988Y010915D01*
X012988Y010765D01*
X012913Y010690D01*
X017112Y010671D02*
X017112Y011829D01*
X017112Y012419D02*
X017112Y013577D01*
X017112Y014168D02*
X017112Y015326D01*
X017112Y015916D02*
X017112Y017074D01*
X017112Y017665D02*
X017112Y018823D01*
X017112Y019413D02*
X017112Y020571D01*
X017112Y021162D02*
X017112Y022320D01*
X017112Y022910D02*
X017112Y024068D01*
X017112Y024659D02*
X017112Y025817D01*
X017112Y026407D02*
X017112Y027565D01*
X017112Y028156D02*
X017112Y029314D01*
X014175Y026094D02*
X012994Y026094D01*
X012994Y025701D01*
X012600Y025701D01*
X012600Y026094D01*
X011419Y026094D01*
X011419Y023732D01*
X014175Y023732D01*
X014175Y026094D01*
X008351Y023575D02*
X008351Y023125D01*
X008201Y023125D02*
X008502Y023125D01*
X008201Y023425D02*
X008351Y023575D01*
X008041Y023500D02*
X008041Y023350D01*
X007966Y023275D01*
X007741Y023275D01*
X007741Y023125D02*
X007741Y023575D01*
X007966Y023575D01*
X008041Y023500D01*
X007581Y023575D02*
X007281Y023575D01*
X007431Y023575D02*
X007431Y023125D01*
X003504Y023294D02*
X003504Y023595D01*
X003504Y023444D02*
X003053Y023444D01*
X003203Y023294D01*
X003128Y023134D02*
X003278Y023134D01*
X003354Y023059D01*
X003354Y022834D01*
X003504Y022834D02*
X003053Y022834D01*
X003053Y023059D01*
X003128Y023134D01*
X003053Y022674D02*
X003053Y022524D01*
X003053Y022599D02*
X003429Y022599D01*
X003504Y022524D01*
X003504Y022449D01*
X003429Y022374D01*
X003261Y025504D02*
X003261Y025654D01*
X003261Y025579D02*
X002810Y025579D01*
X002810Y025504D02*
X002810Y025654D01*
X002886Y025811D02*
X003186Y025811D01*
X003261Y025886D01*
X003261Y026036D01*
X003186Y026111D01*
X003261Y026272D02*
X003261Y026572D01*
X003261Y026422D02*
X002810Y026422D01*
X002961Y026272D01*
X002886Y026111D02*
X002810Y026036D01*
X002810Y025886D01*
X002886Y025811D01*
X022734Y023967D02*
X022734Y022393D01*
X029427Y022393D01*
X029427Y023967D01*
X022734Y023967D01*
X023594Y024142D02*
X023594Y024492D01*
X023594Y024317D02*
X023827Y024317D01*
X023827Y024492D02*
X023827Y024142D01*
X023962Y024200D02*
X024020Y024142D01*
X024137Y024142D01*
X024195Y024200D01*
X024330Y024317D02*
X024564Y024317D01*
X024698Y024200D02*
X024932Y024434D01*
X024932Y024200D01*
X024874Y024142D01*
X024757Y024142D01*
X024698Y024200D01*
X024698Y024434D01*
X024757Y024492D01*
X024874Y024492D01*
X024932Y024434D01*
X025067Y024317D02*
X025184Y024434D01*
X025300Y024492D01*
X025242Y024317D02*
X025067Y024317D01*
X025067Y024200D01*
X025125Y024142D01*
X025242Y024142D01*
X025300Y024200D01*
X025300Y024259D01*
X025242Y024317D01*
X025803Y024317D02*
X025979Y024317D01*
X026037Y024259D01*
X026037Y024200D01*
X025979Y024142D01*
X025803Y024142D01*
X025803Y024492D01*
X025979Y024492D01*
X026037Y024434D01*
X026037Y024376D01*
X025979Y024317D01*
X026172Y024142D02*
X026288Y024142D01*
X026230Y024142D02*
X026230Y024492D01*
X026172Y024492D01*
X026417Y024376D02*
X026417Y024200D01*
X026476Y024142D01*
X026651Y024142D01*
X026651Y024376D01*
X026786Y024317D02*
X026844Y024376D01*
X026961Y024376D01*
X027019Y024317D01*
X027019Y024259D01*
X026786Y024259D01*
X026786Y024317D02*
X026786Y024200D01*
X026844Y024142D01*
X026961Y024142D01*
X027212Y024200D02*
X027212Y024434D01*
X027154Y024376D02*
X027271Y024376D01*
X027399Y024317D02*
X027399Y024200D01*
X027458Y024142D01*
X027575Y024142D01*
X027633Y024200D01*
X027633Y024317D01*
X027575Y024376D01*
X027458Y024376D01*
X027399Y024317D01*
X027271Y024142D02*
X027212Y024200D01*
X027768Y024200D02*
X027826Y024142D01*
X027943Y024142D01*
X028001Y024200D01*
X028001Y024317D01*
X027943Y024376D01*
X027826Y024376D01*
X027768Y024317D01*
X027768Y024200D01*
X028136Y024376D02*
X028253Y024376D01*
X028194Y024434D02*
X028194Y024200D01*
X028253Y024142D01*
X028382Y024142D02*
X028382Y024492D01*
X028440Y024376D02*
X028557Y024376D01*
X028615Y024317D01*
X028615Y024142D01*
X028382Y024317D02*
X028440Y024376D01*
X029415Y024669D02*
X029490Y024594D01*
X029565Y024594D01*
X029640Y024669D01*
X029640Y024820D01*
X029715Y024895D01*
X029790Y024895D01*
X029865Y024820D01*
X029865Y024669D01*
X029790Y024594D01*
X029415Y024669D02*
X029415Y024820D01*
X029490Y024895D01*
X029415Y025205D02*
X029415Y025355D01*
X029415Y025280D02*
X029790Y025280D01*
X029865Y025205D01*
X029865Y025130D01*
X029790Y025055D01*
X029865Y025515D02*
X029565Y025815D01*
X029490Y025815D01*
X029415Y025740D01*
X029415Y025590D01*
X029490Y025515D01*
X029865Y025515D02*
X029865Y025815D01*
X031030Y023542D02*
X031530Y023542D01*
X031730Y023342D01*
X031930Y023542D01*
X032530Y023542D01*
X032730Y023342D01*
X032930Y023542D01*
X033430Y023542D01*
X033730Y023242D01*
X033730Y021842D01*
X033430Y021542D01*
X032930Y021542D01*
X032730Y021742D01*
X032530Y021542D01*
X031930Y021542D01*
X031730Y021742D01*
X031530Y021542D01*
X031030Y021542D01*
X030730Y021842D01*
X030730Y023242D01*
X031030Y023542D01*
X037092Y023251D02*
X037092Y022149D01*
X038706Y022149D01*
X038706Y023251D01*
X037092Y023251D01*
X037462Y023034D02*
X038336Y023034D01*
X038336Y022365D01*
X037462Y022365D01*
X037462Y023034D01*
X037092Y021046D02*
X037092Y019944D01*
X038706Y019944D01*
X038706Y021046D01*
X037092Y021046D01*
X037462Y020830D02*
X037462Y020160D01*
X038336Y020160D01*
X038336Y020830D01*
X037462Y020830D01*
X037092Y019314D02*
X037092Y018211D01*
X038706Y018211D01*
X038706Y019314D01*
X037092Y019314D01*
X037462Y019097D02*
X037462Y018428D01*
X038336Y018428D01*
X038336Y019097D01*
X037462Y019097D01*
X028017Y018487D02*
X028017Y015731D01*
X026049Y015731D01*
X026049Y018487D01*
X028017Y018487D01*
X025506Y018431D02*
X025431Y018356D01*
X025506Y018431D02*
X025506Y018581D01*
X025431Y018656D01*
X025281Y018656D01*
X025205Y018581D01*
X025205Y018506D01*
X025281Y018356D01*
X025055Y018356D01*
X025055Y018656D01*
X025130Y018196D02*
X025281Y018196D01*
X025356Y018121D01*
X025356Y017896D01*
X025506Y017896D02*
X025055Y017896D01*
X025055Y018121D01*
X025130Y018196D01*
X025055Y017736D02*
X025055Y017435D01*
X025055Y017585D02*
X025506Y017585D01*
X025910Y015979D02*
X025910Y015679D01*
X025685Y015904D01*
X026136Y015904D01*
X025910Y015519D02*
X025986Y015444D01*
X025986Y015219D01*
X026136Y015219D02*
X025685Y015219D01*
X025685Y015444D01*
X025760Y015519D01*
X025910Y015519D01*
X025685Y015058D02*
X025685Y014758D01*
X025685Y014908D02*
X026136Y014908D01*
X026466Y012476D02*
X026541Y012476D01*
X026616Y012401D01*
X026616Y012251D01*
X026541Y012176D01*
X026466Y012176D01*
X026391Y012251D01*
X026391Y012401D01*
X026466Y012476D01*
X026616Y012401D02*
X026691Y012476D01*
X026766Y012476D01*
X026841Y012401D01*
X026841Y012251D01*
X026766Y012176D01*
X026691Y012176D01*
X026616Y012251D01*
X026766Y012016D02*
X026841Y011941D01*
X026841Y011790D01*
X026766Y011715D01*
X026466Y011715D01*
X026391Y011790D01*
X026391Y011941D01*
X026466Y012016D01*
X026391Y011559D02*
X026391Y011408D01*
X026391Y011483D02*
X026841Y011483D01*
X026841Y011408D02*
X026841Y011559D01*
X028403Y005518D02*
X028328Y005443D01*
X028328Y005367D01*
X028403Y005292D01*
X028553Y005292D01*
X028628Y005217D01*
X028628Y005142D01*
X028553Y005067D01*
X028403Y005067D01*
X028328Y005142D01*
X028403Y005518D02*
X028553Y005518D01*
X028628Y005443D01*
X028788Y005518D02*
X028788Y005067D01*
X028788Y005217D02*
X029013Y005217D01*
X029088Y005292D01*
X029088Y005443D01*
X029013Y005518D01*
X028788Y005518D01*
X029249Y005367D02*
X029399Y005518D01*
X029399Y005067D01*
X029249Y005067D02*
X029549Y005067D01*
X031421Y002255D02*
X031571Y002255D01*
X031647Y002180D01*
X031647Y002105D01*
X031571Y002030D01*
X031421Y002030D01*
X031346Y002105D01*
X031346Y002180D01*
X031421Y002255D01*
X031421Y002030D02*
X031346Y001955D01*
X031346Y001880D01*
X031421Y001805D01*
X031571Y001805D01*
X031647Y001880D01*
X031647Y001955D01*
X031571Y002030D01*
X024647Y001805D02*
X024346Y001805D01*
X024496Y001805D02*
X024496Y002255D01*
X024346Y002105D01*
X017112Y001928D02*
X017112Y003086D01*
X017112Y003677D02*
X017112Y004835D01*
X017112Y005425D02*
X017112Y006583D01*
X017112Y007174D02*
X017112Y008332D01*
X017112Y008922D02*
X017112Y010080D01*
X017112Y001338D02*
X017112Y000180D01*
X002631Y004617D02*
X002331Y004617D01*
X002481Y004617D02*
X002481Y005067D01*
X002331Y004917D01*
X023962Y024200D02*
X023962Y024434D01*
X024020Y024492D01*
X024137Y024492D01*
X024195Y024434D01*
X024346Y028805D02*
X024647Y028805D01*
X024496Y028805D02*
X024496Y029255D01*
X024346Y029105D01*
X031346Y029105D02*
X031421Y029030D01*
X031571Y029030D01*
X031647Y028955D01*
X031647Y028880D01*
X031571Y028805D01*
X031421Y028805D01*
X031346Y028880D01*
X031346Y028955D01*
X031421Y029030D01*
X031346Y029105D02*
X031346Y029180D01*
X031421Y029255D01*
X031571Y029255D01*
X031647Y029180D01*
X031647Y029105D01*
X031571Y029030D01*
D15*
X031121Y028680D02*
X031021Y028580D01*
X030921Y028680D01*
X030121Y028680D01*
X030021Y028580D01*
X029921Y028680D01*
X029121Y028680D01*
X029021Y028580D01*
X028921Y028680D01*
X028121Y028680D01*
X028021Y028580D01*
X027921Y028680D01*
X027121Y028680D01*
X027021Y028580D01*
X026921Y028680D01*
X026121Y028680D01*
X026021Y028580D01*
X025921Y028680D01*
X025121Y028680D01*
X025021Y028580D01*
X024921Y028680D01*
X024021Y028680D01*
X024021Y027680D01*
X024921Y027680D01*
X025021Y027780D01*
X025121Y027680D01*
X025921Y027680D01*
X026021Y027780D01*
X026121Y027680D01*
X026921Y027680D01*
X027021Y027780D01*
X027121Y027680D01*
X027921Y027680D01*
X028021Y027780D01*
X028121Y027680D01*
X028921Y027680D01*
X029021Y027780D01*
X029121Y027680D01*
X029921Y027680D01*
X030021Y027780D01*
X030121Y027680D01*
X030921Y027680D01*
X031021Y027780D01*
X031121Y027680D01*
X032021Y027680D01*
X032021Y028680D01*
X031121Y028680D01*
X032260Y028460D02*
X032260Y028354D01*
X032367Y028247D01*
X032580Y028247D01*
X032687Y028140D01*
X032687Y028033D01*
X032580Y027927D01*
X032367Y027927D01*
X032260Y028033D01*
X032260Y028140D01*
X032367Y028247D01*
X032580Y028247D02*
X032687Y028354D01*
X032687Y028460D01*
X032580Y028567D01*
X032367Y028567D01*
X032260Y028460D01*
X030325Y023822D02*
X029725Y023822D01*
X029708Y023820D01*
X029691Y023816D01*
X029675Y023809D01*
X029661Y023799D01*
X029648Y023786D01*
X029638Y023772D01*
X029631Y023756D01*
X029627Y023739D01*
X029625Y023722D01*
X029625Y022622D01*
X029627Y022605D01*
X029631Y022588D01*
X029638Y022572D01*
X029648Y022558D01*
X029661Y022545D01*
X029675Y022535D01*
X029691Y022528D01*
X029708Y022524D01*
X029725Y022522D01*
X030325Y022522D01*
X030342Y022524D01*
X030359Y022528D01*
X030375Y022535D01*
X030389Y022545D01*
X030402Y022558D01*
X030412Y022572D01*
X030419Y022588D01*
X030423Y022605D01*
X030425Y022622D01*
X030425Y023722D01*
X030423Y023739D01*
X030419Y023756D01*
X030412Y023772D01*
X030402Y023786D01*
X030389Y023799D01*
X030375Y023809D01*
X030359Y023816D01*
X030342Y023820D01*
X030325Y023822D01*
X031214Y021323D02*
X031214Y020682D01*
X031427Y020682D02*
X031000Y020682D01*
X031000Y021109D02*
X031214Y021323D01*
X036064Y016725D02*
X036064Y016574D01*
X036064Y016725D02*
X036215Y016876D01*
X036366Y016876D01*
X036441Y016801D01*
X036441Y016197D01*
X036743Y016499D01*
X036212Y016118D02*
X036212Y015967D01*
X036061Y015816D01*
X035910Y015816D01*
X035608Y016118D01*
X035608Y016269D01*
X035759Y016420D01*
X035910Y016420D01*
X035379Y016041D02*
X035228Y015890D01*
X035304Y015965D02*
X035757Y015513D01*
X035832Y015588D02*
X035681Y015437D01*
X031955Y008939D02*
X031955Y008539D01*
X031655Y008739D02*
X031657Y008773D01*
X031663Y008807D01*
X031672Y008840D01*
X031686Y008871D01*
X031703Y008901D01*
X031723Y008929D01*
X031746Y008954D01*
X031772Y008977D01*
X031800Y008996D01*
X031830Y009012D01*
X031862Y009024D01*
X031895Y009033D01*
X031929Y009038D01*
X031964Y009039D01*
X031998Y009036D01*
X032031Y009029D01*
X032064Y009019D01*
X032095Y009004D01*
X032124Y008987D01*
X032151Y008966D01*
X032176Y008942D01*
X032198Y008915D01*
X032216Y008887D01*
X032231Y008856D01*
X032243Y008824D01*
X032251Y008790D01*
X032255Y008756D01*
X032255Y008722D01*
X032251Y008688D01*
X032243Y008654D01*
X032231Y008622D01*
X032216Y008591D01*
X032198Y008563D01*
X032176Y008536D01*
X032151Y008512D01*
X032124Y008491D01*
X032095Y008474D01*
X032064Y008459D01*
X032031Y008449D01*
X031998Y008442D01*
X031964Y008439D01*
X031929Y008440D01*
X031895Y008445D01*
X031862Y008454D01*
X031830Y008466D01*
X031800Y008482D01*
X031772Y008501D01*
X031746Y008524D01*
X031723Y008549D01*
X031703Y008577D01*
X031686Y008607D01*
X031672Y008638D01*
X031663Y008671D01*
X031657Y008705D01*
X031655Y008739D01*
X031755Y008739D02*
X032155Y008739D01*
X028255Y007739D02*
X028257Y007837D01*
X028263Y007935D01*
X028273Y008032D01*
X028287Y008129D01*
X028305Y008225D01*
X028327Y008321D01*
X028352Y008415D01*
X028382Y008509D01*
X028415Y008601D01*
X028452Y008691D01*
X028493Y008780D01*
X028537Y008868D01*
X028585Y008953D01*
X028636Y009037D01*
X028691Y009118D01*
X028748Y009197D01*
X028810Y009273D01*
X028874Y009347D01*
X028941Y009419D01*
X029011Y009487D01*
X029083Y009553D01*
X029159Y009615D01*
X029236Y009675D01*
X029317Y009731D01*
X029399Y009784D01*
X029483Y009834D01*
X029570Y009880D01*
X029658Y009922D01*
X029748Y009961D01*
X029839Y009996D01*
X029932Y010028D01*
X030026Y010055D01*
X030121Y010079D01*
X030217Y010099D01*
X030313Y010115D01*
X030411Y010127D01*
X030508Y010135D01*
X030606Y010139D01*
X030704Y010139D01*
X030802Y010135D01*
X030899Y010127D01*
X030997Y010115D01*
X031093Y010099D01*
X031189Y010079D01*
X031284Y010055D01*
X031378Y010028D01*
X031471Y009996D01*
X031562Y009961D01*
X031652Y009922D01*
X031740Y009880D01*
X031827Y009834D01*
X031911Y009784D01*
X031993Y009731D01*
X032074Y009675D01*
X032151Y009615D01*
X032227Y009553D01*
X032299Y009487D01*
X032369Y009419D01*
X032436Y009347D01*
X032500Y009273D01*
X032562Y009197D01*
X032619Y009118D01*
X032674Y009037D01*
X032725Y008953D01*
X032773Y008868D01*
X032817Y008780D01*
X032858Y008691D01*
X032895Y008601D01*
X032928Y008509D01*
X032958Y008415D01*
X032983Y008321D01*
X033005Y008225D01*
X033023Y008129D01*
X033037Y008032D01*
X033047Y007935D01*
X033053Y007837D01*
X033055Y007739D01*
X033053Y007641D01*
X033047Y007543D01*
X033037Y007446D01*
X033023Y007349D01*
X033005Y007253D01*
X032983Y007157D01*
X032958Y007063D01*
X032928Y006969D01*
X032895Y006877D01*
X032858Y006787D01*
X032817Y006698D01*
X032773Y006610D01*
X032725Y006525D01*
X032674Y006441D01*
X032619Y006360D01*
X032562Y006281D01*
X032500Y006205D01*
X032436Y006131D01*
X032369Y006059D01*
X032299Y005991D01*
X032227Y005925D01*
X032151Y005863D01*
X032074Y005803D01*
X031993Y005747D01*
X031911Y005694D01*
X031827Y005644D01*
X031740Y005598D01*
X031652Y005556D01*
X031562Y005517D01*
X031471Y005482D01*
X031378Y005450D01*
X031284Y005423D01*
X031189Y005399D01*
X031093Y005379D01*
X030997Y005363D01*
X030899Y005351D01*
X030802Y005343D01*
X030704Y005339D01*
X030606Y005339D01*
X030508Y005343D01*
X030411Y005351D01*
X030313Y005363D01*
X030217Y005379D01*
X030121Y005399D01*
X030026Y005423D01*
X029932Y005450D01*
X029839Y005482D01*
X029748Y005517D01*
X029658Y005556D01*
X029570Y005598D01*
X029483Y005644D01*
X029399Y005694D01*
X029317Y005747D01*
X029236Y005803D01*
X029159Y005863D01*
X029083Y005925D01*
X029011Y005991D01*
X028941Y006059D01*
X028874Y006131D01*
X028810Y006205D01*
X028748Y006281D01*
X028691Y006360D01*
X028636Y006441D01*
X028585Y006525D01*
X028537Y006610D01*
X028493Y006698D01*
X028452Y006787D01*
X028415Y006877D01*
X028382Y006969D01*
X028352Y007063D01*
X028327Y007157D01*
X028305Y007253D01*
X028287Y007349D01*
X028273Y007446D01*
X028263Y007543D01*
X028257Y007641D01*
X028255Y007739D01*
X030155Y007739D02*
X030157Y007783D01*
X030163Y007827D01*
X030173Y007870D01*
X030186Y007912D01*
X030203Y007953D01*
X030224Y007992D01*
X030248Y008029D01*
X030275Y008064D01*
X030305Y008096D01*
X030338Y008126D01*
X030374Y008152D01*
X030411Y008176D01*
X030451Y008195D01*
X030492Y008212D01*
X030535Y008224D01*
X030578Y008233D01*
X030622Y008238D01*
X030666Y008239D01*
X030710Y008236D01*
X030754Y008229D01*
X030797Y008218D01*
X030839Y008204D01*
X030879Y008186D01*
X030918Y008164D01*
X030954Y008140D01*
X030988Y008112D01*
X031020Y008081D01*
X031049Y008047D01*
X031075Y008011D01*
X031097Y007973D01*
X031116Y007933D01*
X031131Y007891D01*
X031143Y007849D01*
X031151Y007805D01*
X031155Y007761D01*
X031155Y007717D01*
X031151Y007673D01*
X031143Y007629D01*
X031131Y007587D01*
X031116Y007545D01*
X031097Y007505D01*
X031075Y007467D01*
X031049Y007431D01*
X031020Y007397D01*
X030988Y007366D01*
X030954Y007338D01*
X030918Y007314D01*
X030879Y007292D01*
X030839Y007274D01*
X030797Y007260D01*
X030754Y007249D01*
X030710Y007242D01*
X030666Y007239D01*
X030622Y007240D01*
X030578Y007245D01*
X030535Y007254D01*
X030492Y007266D01*
X030451Y007283D01*
X030411Y007302D01*
X030374Y007326D01*
X030338Y007352D01*
X030305Y007382D01*
X030275Y007414D01*
X030248Y007449D01*
X030224Y007486D01*
X030203Y007525D01*
X030186Y007566D01*
X030173Y007608D01*
X030163Y007651D01*
X030157Y007695D01*
X030155Y007739D01*
X024531Y011548D02*
X024111Y011548D01*
X023711Y011548D01*
X023291Y011548D01*
X023268Y011550D01*
X023245Y011555D01*
X023223Y011564D01*
X023203Y011577D01*
X023185Y011592D01*
X023170Y011610D01*
X023157Y011630D01*
X023148Y011652D01*
X023143Y011675D01*
X023141Y011698D01*
X023711Y011548D02*
X023713Y011575D01*
X023718Y011602D01*
X023728Y011628D01*
X023740Y011652D01*
X023756Y011674D01*
X023774Y011694D01*
X023796Y011711D01*
X023819Y011726D01*
X023844Y011736D01*
X023870Y011744D01*
X023897Y011748D01*
X023925Y011748D01*
X023952Y011744D01*
X023978Y011736D01*
X024003Y011726D01*
X024026Y011711D01*
X024048Y011694D01*
X024066Y011674D01*
X024082Y011652D01*
X024094Y011628D01*
X024104Y011602D01*
X024109Y011575D01*
X024111Y011548D01*
X024531Y011548D02*
X024554Y011550D01*
X024577Y011555D01*
X024599Y011564D01*
X024619Y011577D01*
X024637Y011592D01*
X024652Y011610D01*
X024665Y011630D01*
X024674Y011652D01*
X024679Y011675D01*
X024681Y011698D01*
X024681Y014898D02*
X024679Y014921D01*
X024674Y014944D01*
X024665Y014966D01*
X024652Y014986D01*
X024637Y015004D01*
X024619Y015019D01*
X024599Y015032D01*
X024577Y015041D01*
X024554Y015046D01*
X024531Y015048D01*
X023291Y015048D01*
X023268Y015046D01*
X023245Y015041D01*
X023223Y015032D01*
X023203Y015019D01*
X023185Y015004D01*
X023170Y014986D01*
X023157Y014966D01*
X023148Y014944D01*
X023143Y014921D01*
X023141Y014898D01*
X012357Y013144D02*
X012357Y011782D01*
X009898Y011782D01*
X009898Y013144D01*
X012357Y013144D01*
X006556Y006892D02*
X006556Y004492D01*
X002156Y004492D01*
X002156Y006892D01*
X006556Y006892D01*
X005856Y006292D02*
X004056Y006292D01*
X004056Y006192D01*
X004056Y006292D02*
X003856Y006292D01*
X003856Y005992D01*
X003856Y006292D02*
X003656Y006292D01*
X003456Y006292D01*
X003256Y006292D01*
X003256Y006092D01*
X003256Y006292D02*
X003056Y006292D01*
X003056Y006242D01*
X003056Y006292D02*
X002856Y006292D01*
X002856Y006242D01*
X003456Y006292D02*
X003456Y005092D01*
X003256Y005092D01*
X003056Y005092D01*
X002856Y005092D01*
X002856Y005142D01*
X003056Y005142D02*
X003056Y005092D01*
X003256Y005092D02*
X003256Y005292D01*
X003456Y005092D02*
X003656Y005092D01*
X003856Y005092D01*
X003856Y005392D01*
X004056Y005192D02*
X004056Y005092D01*
X003856Y005092D01*
X004056Y005092D02*
X005856Y005092D01*
X005856Y005142D01*
X005856Y006242D02*
X005856Y006292D01*
X003656Y006292D02*
X003656Y005092D01*
X024021Y001680D02*
X024021Y000680D01*
X024921Y000680D01*
X025021Y000780D01*
X025121Y000680D01*
X025921Y000680D01*
X026021Y000780D01*
X026121Y000680D01*
X026921Y000680D01*
X027021Y000780D01*
X027121Y000680D01*
X027921Y000680D01*
X028021Y000780D01*
X028121Y000680D01*
X028921Y000680D01*
X029021Y000780D01*
X029121Y000680D01*
X029921Y000680D01*
X030021Y000780D01*
X030121Y000680D01*
X030921Y000680D01*
X031021Y000780D01*
X031121Y000680D01*
X032021Y000680D01*
X032021Y001680D01*
X031121Y001680D01*
X031021Y001580D01*
X030921Y001680D01*
X030121Y001680D01*
X030021Y001580D01*
X029921Y001680D01*
X029121Y001680D01*
X029021Y001580D01*
X028921Y001680D01*
X028121Y001680D01*
X028021Y001580D01*
X027921Y001680D01*
X027121Y001680D01*
X027021Y001580D01*
X026921Y001680D01*
X026121Y001680D01*
X026021Y001580D01*
X025921Y001680D01*
X025121Y001680D01*
X025021Y001580D01*
X024921Y001680D01*
X024021Y001680D01*
X002809Y022422D02*
X002559Y022172D01*
X002059Y022172D01*
X001809Y022422D01*
X001809Y022922D01*
X002059Y023172D01*
X001809Y023422D01*
X001809Y023922D01*
X002059Y024172D01*
X002559Y024172D01*
X002809Y023922D01*
X002809Y023422D01*
X002559Y023172D01*
X002809Y022922D01*
X002809Y022422D01*
X002559Y023172D02*
X002059Y023172D01*
X003598Y025484D02*
X006058Y025484D01*
X006058Y026846D01*
X003598Y026846D01*
X003598Y025484D01*
X022654Y024910D02*
X022654Y024470D01*
X022947Y024470D01*
X023114Y024470D02*
X023114Y024910D01*
X023408Y024470D01*
X023408Y024910D01*
X022947Y024910D02*
X022654Y024910D01*
X022654Y024690D02*
X022800Y024690D01*
X023913Y026824D02*
X024340Y026824D01*
X024127Y026824D02*
X024127Y027465D01*
X023913Y027251D01*
D16*
X023805Y025771D02*
X010419Y025771D01*
X010419Y029314D01*
X009238Y029314D01*
X011994Y025771D02*
X022230Y025771D01*
X023805Y025771D02*
X023805Y029314D01*
X024986Y029314D01*
X020065Y025731D02*
X020065Y022267D01*
X019564Y022267D01*
X019170Y022267D02*
X018670Y022267D01*
X018276Y022267D02*
X017775Y022267D01*
X017382Y022267D02*
X016881Y022267D01*
X016488Y022267D02*
X015987Y022267D01*
X015593Y022267D02*
X015093Y022267D01*
X014699Y022267D02*
X014198Y022267D01*
X013569Y022267D01*
X013569Y018920D01*
X014198Y018920D01*
X014198Y022267D01*
X014198Y025731D01*
X020065Y025731D01*
X019474Y025574D02*
X017702Y025574D01*
X017702Y029310D01*
X017702Y029314D02*
X017112Y029314D01*
X016521Y029314D01*
X016521Y029310D02*
X016521Y025574D01*
X014750Y025574D01*
X014750Y015337D01*
X019474Y015337D01*
X019474Y025574D01*
X017702Y025574D02*
X016521Y025574D01*
X020065Y022267D02*
X020655Y022267D01*
X020655Y018920D01*
X020065Y018920D01*
X020065Y022267D01*
X020655Y022266D02*
X020736Y022264D01*
X020816Y022258D01*
X020897Y022248D01*
X020976Y022235D01*
X021055Y022217D01*
X021133Y022196D01*
X021210Y022171D01*
X021286Y022142D01*
X021360Y022110D01*
X021432Y022074D01*
X021503Y022035D01*
X021572Y021992D01*
X021638Y021946D01*
X021703Y021897D01*
X021764Y021845D01*
X021824Y021790D01*
X021880Y021732D01*
X021934Y021672D01*
X021984Y021609D01*
X022032Y021543D01*
X022076Y021476D01*
X022117Y021406D01*
X022155Y021334D01*
X022189Y021261D01*
X022219Y021186D01*
X022246Y021110D01*
X022269Y021033D01*
X022289Y020954D01*
X022304Y020875D01*
X022316Y020795D01*
X022324Y020714D01*
X022328Y020633D01*
X022328Y020553D01*
X022324Y020472D01*
X022316Y020391D01*
X022304Y020311D01*
X022289Y020232D01*
X022269Y020153D01*
X022246Y020076D01*
X022219Y020000D01*
X022189Y019925D01*
X022155Y019852D01*
X022117Y019780D01*
X022076Y019710D01*
X022032Y019643D01*
X021984Y019577D01*
X021934Y019514D01*
X021880Y019454D01*
X021824Y019396D01*
X021764Y019341D01*
X021703Y019289D01*
X021638Y019240D01*
X021572Y019194D01*
X021503Y019151D01*
X021432Y019112D01*
X021360Y019076D01*
X021286Y019044D01*
X021210Y019015D01*
X021133Y018990D01*
X021055Y018969D01*
X020976Y018951D01*
X020897Y018938D01*
X020816Y018928D01*
X020736Y018922D01*
X020655Y018920D01*
X020065Y018920D02*
X014198Y018920D01*
X013569Y018920D02*
X013488Y018922D01*
X013408Y018928D01*
X013327Y018938D01*
X013248Y018951D01*
X013169Y018969D01*
X013091Y018990D01*
X013014Y019015D01*
X012938Y019044D01*
X012864Y019076D01*
X012792Y019112D01*
X012721Y019151D01*
X012652Y019194D01*
X012586Y019240D01*
X012521Y019289D01*
X012460Y019341D01*
X012400Y019396D01*
X012344Y019454D01*
X012290Y019514D01*
X012240Y019577D01*
X012192Y019643D01*
X012148Y019710D01*
X012107Y019780D01*
X012069Y019852D01*
X012035Y019925D01*
X012005Y020000D01*
X011978Y020076D01*
X011955Y020153D01*
X011935Y020232D01*
X011920Y020311D01*
X011908Y020391D01*
X011900Y020472D01*
X011896Y020553D01*
X011896Y020633D01*
X011900Y020714D01*
X011908Y020795D01*
X011920Y020875D01*
X011935Y020954D01*
X011955Y021033D01*
X011978Y021110D01*
X012005Y021186D01*
X012035Y021261D01*
X012069Y021334D01*
X012107Y021406D01*
X012148Y021476D01*
X012192Y021543D01*
X012240Y021609D01*
X012290Y021672D01*
X012344Y021732D01*
X012400Y021790D01*
X012460Y021845D01*
X012521Y021897D01*
X012586Y021946D01*
X012652Y021992D01*
X012721Y022035D01*
X012792Y022074D01*
X012864Y022110D01*
X012938Y022142D01*
X013014Y022171D01*
X013091Y022196D01*
X013169Y022217D01*
X013248Y022235D01*
X013327Y022248D01*
X013408Y022258D01*
X013488Y022264D01*
X013569Y022266D01*
X013404Y014747D02*
X014474Y014747D01*
X015064Y014747D02*
X016134Y014747D01*
X016725Y014747D02*
X017795Y014747D01*
X018385Y014747D02*
X019455Y014747D01*
X020046Y014747D02*
X021116Y014747D01*
X021706Y014747D02*
X022776Y014747D01*
X023367Y014747D02*
X024437Y014747D01*
X025027Y014747D02*
X026097Y014747D01*
X026688Y014747D02*
X027758Y014747D01*
X028348Y014747D02*
X029418Y014747D01*
X030009Y014747D02*
X031079Y014747D01*
X031669Y014747D02*
X032739Y014747D01*
X033330Y014747D02*
X034400Y014747D01*
X034990Y014747D02*
X036060Y014747D01*
X036651Y014747D02*
X037721Y014747D01*
X038311Y014747D02*
X039381Y014747D01*
X039972Y014747D02*
X041042Y014747D01*
X041632Y014747D02*
X042702Y014747D01*
X023805Y003723D02*
X010419Y003723D01*
X010419Y000180D01*
X009238Y000180D01*
X012387Y003723D02*
X022230Y003723D01*
X023805Y003723D02*
X023805Y000180D01*
X024986Y000180D01*
X020065Y003763D02*
X020065Y007227D01*
X019671Y007227D01*
X020065Y007227D02*
X020655Y007227D01*
X020655Y010574D01*
X020065Y010574D01*
X020065Y007227D01*
X019277Y007227D02*
X018883Y007227D01*
X018490Y007227D02*
X018096Y007227D01*
X017702Y007227D02*
X017309Y007227D01*
X016915Y007227D02*
X016521Y007227D01*
X016128Y007227D02*
X015734Y007227D01*
X015340Y007227D02*
X014946Y007227D01*
X014553Y007227D02*
X014159Y007227D01*
X013569Y007227D01*
X013569Y010574D01*
X014159Y010574D01*
X014159Y007227D01*
X014159Y003763D01*
X020065Y003763D01*
X019474Y003920D02*
X019474Y014156D01*
X014750Y014156D01*
X014750Y003920D01*
X016521Y003920D01*
X016521Y000184D01*
X016521Y000180D02*
X017112Y000180D01*
X017702Y000180D01*
X017702Y000184D02*
X017702Y003920D01*
X019474Y003920D01*
X017702Y003920D02*
X016521Y003920D01*
X013569Y007227D02*
X013488Y007229D01*
X013408Y007235D01*
X013327Y007245D01*
X013248Y007258D01*
X013169Y007276D01*
X013091Y007297D01*
X013014Y007322D01*
X012938Y007351D01*
X012864Y007383D01*
X012792Y007419D01*
X012721Y007458D01*
X012652Y007501D01*
X012586Y007547D01*
X012521Y007596D01*
X012460Y007648D01*
X012400Y007703D01*
X012344Y007761D01*
X012290Y007821D01*
X012240Y007884D01*
X012192Y007950D01*
X012148Y008017D01*
X012107Y008087D01*
X012069Y008159D01*
X012035Y008232D01*
X012005Y008307D01*
X011978Y008383D01*
X011955Y008460D01*
X011935Y008539D01*
X011920Y008618D01*
X011908Y008698D01*
X011900Y008779D01*
X011896Y008860D01*
X011896Y008940D01*
X011900Y009021D01*
X011908Y009102D01*
X011920Y009182D01*
X011935Y009261D01*
X011955Y009340D01*
X011978Y009417D01*
X012005Y009493D01*
X012035Y009568D01*
X012069Y009641D01*
X012107Y009713D01*
X012148Y009783D01*
X012192Y009850D01*
X012240Y009916D01*
X012290Y009979D01*
X012344Y010039D01*
X012400Y010097D01*
X012460Y010152D01*
X012521Y010204D01*
X012586Y010253D01*
X012652Y010299D01*
X012721Y010342D01*
X012792Y010381D01*
X012864Y010417D01*
X012938Y010449D01*
X013014Y010478D01*
X013091Y010503D01*
X013169Y010524D01*
X013248Y010542D01*
X013327Y010555D01*
X013408Y010565D01*
X013488Y010571D01*
X013569Y010573D01*
X014159Y010574D02*
X020065Y010574D01*
X020655Y010573D02*
X020736Y010571D01*
X020816Y010565D01*
X020897Y010555D01*
X020976Y010542D01*
X021055Y010524D01*
X021133Y010503D01*
X021210Y010478D01*
X021286Y010449D01*
X021360Y010417D01*
X021432Y010381D01*
X021503Y010342D01*
X021572Y010299D01*
X021638Y010253D01*
X021703Y010204D01*
X021764Y010152D01*
X021824Y010097D01*
X021880Y010039D01*
X021934Y009979D01*
X021984Y009916D01*
X022032Y009850D01*
X022076Y009783D01*
X022117Y009713D01*
X022155Y009641D01*
X022189Y009568D01*
X022219Y009493D01*
X022246Y009417D01*
X022269Y009340D01*
X022289Y009261D01*
X022304Y009182D01*
X022316Y009102D01*
X022324Y009021D01*
X022328Y008940D01*
X022328Y008860D01*
X022324Y008779D01*
X022316Y008698D01*
X022304Y008618D01*
X022289Y008539D01*
X022269Y008460D01*
X022246Y008383D01*
X022219Y008307D01*
X022189Y008232D01*
X022155Y008159D01*
X022117Y008087D01*
X022076Y008017D01*
X022032Y007950D01*
X021984Y007884D01*
X021934Y007821D01*
X021880Y007761D01*
X021824Y007703D01*
X021764Y007648D01*
X021703Y007596D01*
X021638Y007547D01*
X021572Y007501D01*
X021503Y007458D01*
X021432Y007419D01*
X021360Y007383D01*
X021286Y007351D01*
X021210Y007322D01*
X021133Y007297D01*
X021055Y007276D01*
X020976Y007258D01*
X020897Y007245D01*
X020816Y007235D01*
X020736Y007229D01*
X020655Y007227D01*
X012813Y014747D02*
X011743Y014747D01*
X011153Y014747D02*
X010083Y014747D01*
X009492Y014747D02*
X008422Y014747D01*
X007832Y014747D02*
X006762Y014747D01*
X006171Y014747D02*
X005101Y014747D01*
X004511Y014747D02*
X003441Y014747D01*
X002850Y014747D02*
X001780Y014747D01*
X001190Y014747D02*
X000120Y014747D01*
D17*
X010834Y003330D02*
X023411Y003330D01*
X023411Y000180D01*
X017112Y000180D01*
X010834Y000180D01*
X010834Y003330D01*
X010813Y026164D02*
X010813Y029314D01*
X017112Y029314D01*
X023411Y029314D01*
X023411Y026164D01*
X010813Y026164D01*
D18*
X011023Y018202D02*
X011120Y018105D01*
X011217Y018202D01*
X011217Y017912D01*
X011318Y017960D02*
X011366Y017912D01*
X011463Y017912D01*
X011511Y017960D01*
X011511Y018153D01*
X011463Y018202D01*
X011366Y018202D01*
X011318Y018153D01*
X011318Y017960D01*
X011023Y017912D02*
X011023Y018202D01*
X010922Y017863D02*
X010729Y017863D01*
X010627Y017912D02*
X010434Y017912D01*
X010434Y018202D01*
X011613Y018202D02*
X011806Y018202D01*
X011755Y018243D02*
X011693Y018181D01*
X011693Y018058D01*
X011755Y017996D01*
X011817Y017996D01*
X011879Y018058D01*
X011879Y018243D01*
X011956Y018202D02*
X011907Y018153D01*
X011907Y017960D01*
X011956Y017912D01*
X012052Y017912D01*
X012101Y017960D01*
X012101Y018153D01*
X012052Y018202D01*
X011956Y018202D01*
X012002Y018243D02*
X011755Y018243D01*
X011709Y018202D02*
X011709Y017912D01*
X011693Y017751D02*
X012064Y017751D01*
X012064Y017628D02*
X012064Y017875D01*
X012002Y017996D02*
X012064Y018058D01*
X012064Y018181D01*
X012002Y018243D01*
X012202Y018202D02*
X012347Y018202D01*
X012395Y018153D01*
X012395Y018057D01*
X012347Y018008D01*
X012202Y018008D01*
X012202Y017912D02*
X012202Y018202D01*
X012299Y018008D02*
X012395Y017912D01*
X012496Y017863D02*
X012690Y017863D01*
X012791Y017912D02*
X012936Y017912D01*
X012985Y017960D01*
X012985Y018008D01*
X012936Y018057D01*
X012791Y018057D01*
X012791Y017912D02*
X012791Y018202D01*
X012936Y018202D01*
X012985Y018153D01*
X012985Y018105D01*
X012936Y018057D01*
X012064Y017445D02*
X012002Y017506D01*
X012064Y017445D02*
X012064Y017321D01*
X012002Y017259D01*
X011755Y017259D01*
X011693Y017321D01*
X011693Y017445D01*
X011755Y017506D01*
X011817Y017628D02*
X011693Y017751D01*
X011709Y016627D02*
X011709Y016337D01*
X011511Y016385D02*
X011511Y016579D01*
X011463Y016627D01*
X011366Y016627D01*
X011318Y016579D01*
X011318Y016385D01*
X011366Y016337D01*
X011463Y016337D01*
X011511Y016385D01*
X011613Y016627D02*
X011806Y016627D01*
X011907Y016579D02*
X011956Y016627D01*
X012052Y016627D01*
X012101Y016579D01*
X012101Y016385D01*
X012052Y016337D01*
X011956Y016337D01*
X011907Y016385D01*
X011907Y016579D01*
X012202Y016627D02*
X012347Y016627D01*
X012395Y016579D01*
X012395Y016482D01*
X012347Y016433D01*
X012202Y016433D01*
X012202Y016337D02*
X012202Y016627D01*
X012299Y016433D02*
X012395Y016337D01*
X012496Y016288D02*
X012690Y016288D01*
X012791Y016337D02*
X012791Y016530D01*
X012888Y016627D01*
X012985Y016530D01*
X012985Y016337D01*
X012985Y016482D02*
X012791Y016482D01*
X011217Y016627D02*
X011217Y016337D01*
X011023Y016337D02*
X011023Y016627D01*
X011120Y016530D01*
X011217Y016627D01*
X010922Y016288D02*
X010729Y016288D01*
X010627Y016337D02*
X010434Y016337D01*
X010434Y016627D01*
X010435Y013084D02*
X010484Y013035D01*
X010484Y012939D01*
X010435Y012890D01*
X010290Y012890D01*
X010290Y012793D02*
X010290Y013084D01*
X010435Y013084D01*
X010387Y012890D02*
X010484Y012793D01*
X010585Y012745D02*
X010778Y012745D01*
X010880Y012793D02*
X010880Y013084D01*
X010976Y012987D01*
X011073Y013084D01*
X011073Y012793D01*
X011174Y012842D02*
X011223Y012793D01*
X011319Y012793D01*
X011368Y012842D01*
X011368Y013035D01*
X011319Y013084D01*
X011223Y013084D01*
X011174Y013035D01*
X011174Y012842D01*
X011469Y013084D02*
X011662Y013084D01*
X011566Y013084D02*
X011566Y012793D01*
X011763Y012842D02*
X011812Y012793D01*
X011909Y012793D01*
X011957Y012842D01*
X011957Y013035D01*
X011909Y013084D01*
X011812Y013084D01*
X011763Y013035D01*
X011763Y012842D01*
X012058Y012890D02*
X012203Y012890D01*
X012252Y012939D01*
X012252Y013035D01*
X012203Y013084D01*
X012058Y013084D01*
X012058Y012793D01*
X012155Y012890D02*
X012252Y012793D01*
X012353Y012745D02*
X012546Y012745D01*
X012647Y012793D02*
X012793Y012793D01*
X012841Y012842D01*
X012841Y012890D01*
X012793Y012939D01*
X012647Y012939D01*
X012647Y013084D02*
X012647Y012793D01*
X012793Y012939D02*
X012841Y012987D01*
X012841Y013035D01*
X012793Y013084D01*
X012647Y013084D01*
X012744Y011509D02*
X012841Y011412D01*
X012841Y011219D01*
X012841Y011364D02*
X012647Y011364D01*
X012647Y011412D02*
X012744Y011509D01*
X012647Y011412D02*
X012647Y011219D01*
X012546Y011170D02*
X012353Y011170D01*
X012252Y011219D02*
X012155Y011315D01*
X012203Y011315D02*
X012058Y011315D01*
X012058Y011219D02*
X012058Y011509D01*
X012203Y011509D01*
X012252Y011460D01*
X012252Y011364D01*
X012203Y011315D01*
X011957Y011267D02*
X011957Y011460D01*
X011909Y011509D01*
X011812Y011509D01*
X011763Y011460D01*
X011763Y011267D01*
X011812Y011219D01*
X011909Y011219D01*
X011957Y011267D01*
X011662Y011509D02*
X011469Y011509D01*
X011566Y011509D02*
X011566Y011219D01*
X011368Y011267D02*
X011368Y011460D01*
X011319Y011509D01*
X011223Y011509D01*
X011174Y011460D01*
X011174Y011267D01*
X011223Y011219D01*
X011319Y011219D01*
X011368Y011267D01*
X011073Y011219D02*
X011073Y011509D01*
X010976Y011412D01*
X010880Y011509D01*
X010880Y011219D01*
X010778Y011170D02*
X010585Y011170D01*
X010484Y011219D02*
X010387Y011315D01*
X010435Y011315D02*
X010290Y011315D01*
X010290Y011219D02*
X010290Y011509D01*
X010435Y011509D01*
X010484Y011460D01*
X010484Y011364D01*
X010435Y011315D01*
X022786Y022695D02*
X023033Y022695D01*
X022910Y022695D02*
X022910Y023065D01*
X022786Y022942D01*
X030445Y021481D02*
X030568Y021357D01*
X030445Y021481D02*
X030815Y021481D01*
X030815Y021604D02*
X030815Y021357D01*
X037337Y023561D02*
X037399Y023500D01*
X037522Y023500D01*
X037584Y023561D01*
X037584Y023623D01*
X037522Y023685D01*
X037399Y023685D01*
X037337Y023747D01*
X037337Y023808D01*
X037399Y023870D01*
X037522Y023870D01*
X037584Y023808D01*
X037705Y023870D02*
X037705Y023500D01*
X037829Y023623D01*
X037952Y023500D01*
X037952Y023870D01*
X038073Y023808D02*
X038135Y023870D01*
X038259Y023870D01*
X038320Y023808D01*
X038320Y023747D01*
X038259Y023685D01*
X038320Y023623D01*
X038320Y023561D01*
X038259Y023500D01*
X038135Y023500D01*
X038073Y023561D01*
X038197Y023685D02*
X038259Y023685D01*
X039014Y020842D02*
X039384Y020842D01*
X039384Y020719D02*
X039384Y020966D01*
X039137Y020719D02*
X039014Y020842D01*
X039014Y020598D02*
X039384Y020598D01*
X039261Y020474D01*
X039384Y020351D01*
X039014Y020351D01*
X039076Y020229D02*
X039014Y020168D01*
X039014Y020044D01*
X039076Y019982D01*
X039137Y019982D01*
X039199Y020044D01*
X039199Y020168D01*
X039261Y020229D01*
X039322Y020229D01*
X039384Y020168D01*
X039384Y020044D01*
X039322Y019982D01*
X039384Y019234D02*
X039384Y018987D01*
X039137Y019234D01*
X039076Y019234D01*
X039014Y019172D01*
X039014Y019048D01*
X039076Y018987D01*
X039014Y018865D02*
X039384Y018865D01*
X039261Y018742D01*
X039384Y018618D01*
X039014Y018618D01*
X039076Y018497D02*
X039014Y018435D01*
X039014Y018312D01*
X039076Y018250D01*
X039137Y018250D01*
X039199Y018312D01*
X039199Y018435D01*
X039261Y018497D01*
X039322Y018497D01*
X039384Y018435D01*
X039384Y018312D01*
X039322Y018250D01*
D19*
X035535Y018069D02*
X035425Y018177D01*
X035316Y018175D01*
X035535Y018069D02*
X035536Y017961D01*
X035482Y017906D01*
X035048Y017901D01*
X035268Y017686D01*
X034939Y018008D02*
X034719Y018222D01*
X034829Y018115D02*
X035150Y018445D01*
X034933Y018442D01*
X034877Y018604D02*
X034876Y018713D01*
X034766Y018820D01*
X034657Y018818D01*
X034443Y018599D01*
X034444Y018490D01*
X034554Y018383D01*
X034663Y018384D01*
X033285Y019635D02*
X032824Y019635D01*
X032824Y019865D01*
X032901Y019942D01*
X033055Y019942D01*
X033131Y019865D01*
X033131Y019635D01*
X033131Y019789D02*
X033285Y019942D01*
X033208Y020095D02*
X033285Y020172D01*
X033285Y020326D01*
X033208Y020402D01*
X032901Y020402D01*
X032824Y020326D01*
X032824Y020172D01*
X032901Y020095D01*
X032978Y020095D01*
X033055Y020172D01*
X033055Y020402D01*
X034872Y021525D02*
X034872Y021755D01*
X034948Y021832D01*
X035102Y021832D01*
X035179Y021755D01*
X035179Y021525D01*
X035332Y021525D02*
X034872Y021525D01*
X035179Y021678D02*
X035332Y021832D01*
X035255Y021985D02*
X035179Y021985D01*
X035102Y022062D01*
X035102Y022215D01*
X035179Y022292D01*
X035255Y022292D01*
X035332Y022215D01*
X035332Y022062D01*
X035255Y021985D01*
X035102Y022062D02*
X035025Y021985D01*
X034948Y021985D01*
X034872Y022062D01*
X034872Y022215D01*
X034948Y022292D01*
X035025Y022292D01*
X035102Y022215D01*
X030142Y022180D02*
X030142Y022103D01*
X029835Y021796D01*
X029835Y021720D01*
X029681Y021720D02*
X029528Y021873D01*
X029605Y021873D02*
X029374Y021873D01*
X029374Y021720D02*
X029374Y022180D01*
X029605Y022180D01*
X029681Y022103D01*
X029681Y021950D01*
X029605Y021873D01*
X029835Y022180D02*
X030142Y022180D01*
X028175Y020448D02*
X027945Y020218D01*
X028252Y020218D01*
X028175Y020448D02*
X028175Y019987D01*
X027792Y019987D02*
X027485Y019987D01*
X027638Y019987D02*
X027638Y020448D01*
X027485Y020294D01*
X027331Y020218D02*
X027254Y020141D01*
X027024Y020141D01*
X027024Y019987D02*
X027024Y020448D01*
X027254Y020448D01*
X027331Y020371D01*
X027331Y020218D01*
X027178Y020141D02*
X027331Y019987D01*
X028108Y019312D02*
X028108Y019159D01*
X028185Y019082D01*
X028185Y018929D02*
X028491Y018929D01*
X028568Y018852D01*
X028568Y018698D01*
X028491Y018622D01*
X028185Y018622D01*
X028108Y018698D01*
X028108Y018852D01*
X028185Y018929D01*
X028415Y018775D02*
X028568Y018929D01*
X028568Y019082D02*
X028261Y019389D01*
X028185Y019389D01*
X028108Y019312D01*
X028568Y019389D02*
X028568Y019082D01*
X029033Y018807D02*
X029142Y018915D01*
X029250Y018915D01*
X029250Y018481D01*
X029359Y018481D01*
X029467Y018590D01*
X029467Y018698D01*
X029250Y018915D01*
X029033Y018807D02*
X029033Y018698D01*
X029250Y018481D01*
X029196Y018318D02*
X028979Y018101D01*
X029087Y018210D02*
X028762Y018535D01*
X028762Y018318D01*
X028599Y018264D02*
X028491Y018264D01*
X028382Y018156D01*
X028382Y018047D01*
X028599Y017830D01*
X028708Y017830D01*
X028816Y017938D01*
X028816Y018047D01*
X029544Y019357D02*
X029697Y019357D01*
X029774Y019434D01*
X029927Y019434D02*
X030004Y019357D01*
X030158Y019357D01*
X030234Y019434D01*
X030234Y019511D01*
X030158Y019588D01*
X029927Y019588D01*
X029927Y019434D01*
X029927Y019588D02*
X030081Y019741D01*
X030234Y019818D01*
X029774Y019741D02*
X029697Y019818D01*
X029544Y019818D01*
X029467Y019741D01*
X029467Y019434D01*
X029544Y019357D01*
X026311Y019416D02*
X026004Y019109D01*
X026004Y019033D01*
X025850Y019109D02*
X025773Y019033D01*
X025620Y019033D01*
X025543Y019109D01*
X025543Y019416D01*
X025620Y019493D01*
X025773Y019493D01*
X025850Y019416D01*
X026004Y019493D02*
X026311Y019493D01*
X026311Y019416D01*
X025130Y019564D02*
X025130Y019641D01*
X025053Y019718D01*
X024823Y019718D01*
X024823Y019564D01*
X024900Y019487D01*
X025053Y019487D01*
X025130Y019564D01*
X024976Y019871D02*
X024823Y019718D01*
X024670Y019794D02*
X024593Y019718D01*
X024670Y019641D01*
X024670Y019564D01*
X024593Y019487D01*
X024439Y019487D01*
X024363Y019564D01*
X024209Y019487D02*
X024056Y019641D01*
X024132Y019641D02*
X023902Y019641D01*
X023902Y019487D02*
X023902Y019948D01*
X024132Y019948D01*
X024209Y019871D01*
X024209Y019718D01*
X024132Y019641D01*
X024363Y019871D02*
X024439Y019948D01*
X024593Y019948D01*
X024670Y019871D01*
X024670Y019794D01*
X024593Y019718D02*
X024516Y019718D01*
X024976Y019871D02*
X025130Y019948D01*
X024257Y020633D02*
X023706Y021184D01*
X023844Y021322D02*
X024395Y020771D01*
X023608Y020967D02*
X023610Y021008D01*
X023616Y021049D01*
X023626Y021089D01*
X023639Y021128D01*
X023656Y021165D01*
X023677Y021201D01*
X023701Y021235D01*
X023728Y021266D01*
X023757Y021294D01*
X023790Y021320D01*
X023824Y021342D01*
X023861Y021361D01*
X023899Y021376D01*
X023939Y021388D01*
X023979Y021396D01*
X024020Y021400D01*
X024062Y021400D01*
X024103Y021396D01*
X024143Y021388D01*
X024183Y021376D01*
X024221Y021361D01*
X024257Y021342D01*
X024292Y021320D01*
X024325Y021294D01*
X024354Y021266D01*
X024381Y021235D01*
X024405Y021201D01*
X024426Y021165D01*
X024443Y021128D01*
X024456Y021089D01*
X024466Y021049D01*
X024472Y021008D01*
X024474Y020967D01*
X024472Y020926D01*
X024466Y020885D01*
X024456Y020845D01*
X024443Y020806D01*
X024426Y020769D01*
X024405Y020733D01*
X024381Y020699D01*
X024354Y020668D01*
X024325Y020640D01*
X024292Y020614D01*
X024258Y020592D01*
X024221Y020573D01*
X024183Y020558D01*
X024143Y020546D01*
X024103Y020538D01*
X024062Y020534D01*
X024020Y020534D01*
X023979Y020538D01*
X023939Y020546D01*
X023899Y020558D01*
X023861Y020573D01*
X023825Y020592D01*
X023790Y020614D01*
X023757Y020640D01*
X023728Y020668D01*
X023701Y020699D01*
X023677Y020733D01*
X023656Y020769D01*
X023639Y020806D01*
X023626Y020845D01*
X023616Y020885D01*
X023610Y020926D01*
X023608Y020967D01*
X023686Y019743D02*
X023379Y019743D01*
X023072Y019743D02*
X023072Y019283D01*
X022919Y019283D02*
X023226Y019283D01*
X023379Y019283D02*
X023379Y019359D01*
X023686Y019666D01*
X023686Y019743D01*
X023072Y019743D02*
X022919Y019590D01*
X022766Y019666D02*
X022689Y019743D01*
X022535Y019743D01*
X022459Y019666D01*
X022459Y019359D01*
X022535Y019283D01*
X022689Y019283D01*
X022766Y019359D01*
X025607Y021562D02*
X025607Y022023D01*
X025837Y022023D01*
X025914Y021946D01*
X025914Y021792D01*
X025837Y021716D01*
X025607Y021716D01*
X025760Y021716D02*
X025914Y021562D01*
X026067Y021562D02*
X026374Y021562D01*
X026221Y021562D02*
X026221Y022023D01*
X026067Y021869D01*
X026528Y021792D02*
X026528Y022023D01*
X026835Y022023D01*
X026758Y021869D02*
X026835Y021792D01*
X026835Y021639D01*
X026758Y021562D01*
X026604Y021562D01*
X026528Y021639D01*
X026528Y021792D02*
X026681Y021869D01*
X026758Y021869D01*
X026835Y025184D02*
X026528Y025184D01*
X026835Y025491D01*
X026835Y025568D01*
X026758Y025645D01*
X026604Y025645D01*
X026528Y025568D01*
X026221Y025645D02*
X026221Y025184D01*
X026374Y025184D02*
X026067Y025184D01*
X025914Y025184D02*
X025760Y025338D01*
X025837Y025338D02*
X025607Y025338D01*
X025607Y025184D02*
X025607Y025645D01*
X025837Y025645D01*
X025914Y025568D01*
X025914Y025414D01*
X025837Y025338D01*
X026067Y025491D02*
X026221Y025645D01*
X024373Y025652D02*
X023913Y025652D01*
X024143Y025422D01*
X024143Y025729D01*
X023990Y025269D02*
X024297Y025269D01*
X024373Y025192D01*
X024373Y025039D01*
X024297Y024962D01*
X023990Y024962D01*
X023913Y025039D01*
X023913Y025192D01*
X023990Y025269D01*
X024220Y025115D02*
X024373Y025269D01*
X022031Y025032D02*
X021878Y024956D01*
X021724Y024802D01*
X021954Y024802D01*
X022031Y024726D01*
X022031Y024649D01*
X021954Y024572D01*
X021801Y024572D01*
X021724Y024649D01*
X021724Y024802D01*
X021571Y024649D02*
X021494Y024572D01*
X021340Y024572D01*
X021264Y024649D01*
X021264Y024956D01*
X021340Y025032D01*
X021494Y025032D01*
X021571Y024956D01*
X021571Y024649D01*
X021571Y024572D02*
X021417Y024726D01*
X020844Y024739D02*
X020767Y024662D01*
X020844Y024739D02*
X020844Y024893D01*
X020767Y024969D01*
X020690Y024969D01*
X020614Y024893D01*
X020614Y024816D01*
X020614Y024893D02*
X020537Y024969D01*
X020460Y024969D01*
X020383Y024893D01*
X020383Y024739D01*
X020460Y024662D01*
X020460Y024509D02*
X020614Y024509D01*
X020690Y024432D01*
X020690Y024202D01*
X020690Y024355D02*
X020844Y024509D01*
X020844Y024202D02*
X020383Y024202D01*
X020383Y024432D01*
X020460Y024509D01*
X020460Y025123D02*
X020383Y025199D01*
X020383Y025353D01*
X020460Y025430D01*
X020767Y025123D01*
X020844Y025199D01*
X020844Y025353D01*
X020767Y025430D01*
X020460Y025430D01*
X020460Y025123D02*
X020767Y025123D01*
X011812Y023355D02*
X011812Y023201D01*
X011736Y023125D01*
X011429Y023431D01*
X011736Y023431D01*
X011812Y023355D01*
X011736Y023125D02*
X011429Y023125D01*
X011352Y023201D01*
X011352Y023355D01*
X011429Y023431D01*
X011163Y023365D02*
X011086Y023288D01*
X010779Y023595D01*
X011086Y023595D01*
X011163Y023518D01*
X011163Y023365D01*
X011086Y023288D02*
X010779Y023288D01*
X010702Y023365D01*
X010702Y023518D01*
X010779Y023595D01*
X011239Y023748D02*
X011239Y024055D01*
X011163Y024209D02*
X011163Y024516D01*
X011163Y024669D02*
X010702Y024669D01*
X011163Y024976D01*
X010702Y024976D01*
X010779Y025129D02*
X010702Y025206D01*
X010702Y025360D01*
X010779Y025436D01*
X010779Y025129D02*
X011086Y025129D01*
X011163Y025206D01*
X011163Y025360D01*
X011086Y025436D01*
X009887Y025554D02*
X009218Y024885D01*
X008982Y024885D01*
X009057Y024495D02*
X008980Y024418D01*
X008980Y024111D01*
X009057Y024035D01*
X009210Y024035D01*
X009287Y024111D01*
X009441Y024035D02*
X009748Y024035D01*
X009594Y024035D02*
X009594Y024495D01*
X009441Y024342D01*
X009287Y024418D02*
X009210Y024495D01*
X009057Y024495D01*
X008234Y024885D02*
X007998Y024885D01*
X007328Y025554D01*
X007328Y027444D01*
X008234Y027444D01*
X008982Y027444D02*
X009887Y027444D01*
X009887Y025554D01*
X008234Y025003D02*
X008170Y025025D01*
X008107Y025052D01*
X008045Y025082D01*
X007986Y025115D01*
X007928Y025151D01*
X007872Y025191D01*
X007819Y025234D01*
X007768Y025279D01*
X007720Y025327D01*
X007675Y025378D01*
X007632Y025432D01*
X007593Y025488D01*
X007556Y025545D01*
X007523Y025605D01*
X007494Y025667D01*
X007468Y025730D01*
X007445Y025794D01*
X007426Y025860D01*
X007411Y025927D01*
X007400Y025994D01*
X007392Y026062D01*
X007388Y026130D01*
X007388Y026198D01*
X007392Y026266D01*
X007400Y026334D01*
X007411Y026401D01*
X007426Y026468D01*
X007445Y026534D01*
X007468Y026598D01*
X007494Y026661D01*
X007523Y026723D01*
X007556Y026783D01*
X007593Y026840D01*
X007632Y026896D01*
X007675Y026950D01*
X007720Y027001D01*
X007768Y027049D01*
X007819Y027094D01*
X007872Y027137D01*
X007928Y027177D01*
X007986Y027213D01*
X008045Y027246D01*
X008107Y027276D01*
X008170Y027303D01*
X008234Y027325D01*
X006911Y027003D02*
X006911Y026696D01*
X006604Y027003D01*
X006527Y027003D01*
X006450Y026926D01*
X006450Y026773D01*
X006527Y026696D01*
X006527Y026543D02*
X006450Y026466D01*
X006450Y026313D01*
X006527Y026236D01*
X006834Y026236D01*
X006911Y026313D01*
X006911Y026466D01*
X006834Y026543D01*
X008982Y027325D02*
X009046Y027303D01*
X009109Y027276D01*
X009171Y027246D01*
X009230Y027213D01*
X009288Y027177D01*
X009344Y027137D01*
X009397Y027094D01*
X009448Y027049D01*
X009496Y027001D01*
X009541Y026950D01*
X009584Y026896D01*
X009623Y026840D01*
X009660Y026783D01*
X009693Y026723D01*
X009722Y026661D01*
X009748Y026598D01*
X009771Y026534D01*
X009790Y026468D01*
X009805Y026401D01*
X009816Y026334D01*
X009824Y026266D01*
X009828Y026198D01*
X009828Y026130D01*
X009824Y026062D01*
X009816Y025994D01*
X009805Y025927D01*
X009790Y025860D01*
X009771Y025794D01*
X009748Y025730D01*
X009722Y025667D01*
X009693Y025605D01*
X009660Y025545D01*
X009623Y025488D01*
X009584Y025432D01*
X009541Y025378D01*
X009496Y025327D01*
X009448Y025279D01*
X009397Y025234D01*
X009344Y025191D01*
X009288Y025151D01*
X009230Y025115D01*
X009171Y025082D01*
X009109Y025052D01*
X009046Y025025D01*
X008982Y025003D01*
X010702Y024516D02*
X010702Y024209D01*
X011163Y024209D01*
X010932Y024209D02*
X010932Y024362D01*
X010779Y023134D02*
X010702Y023134D01*
X010702Y022827D01*
X010702Y022674D02*
X010779Y022674D01*
X010932Y022520D01*
X011163Y022520D01*
X011352Y022434D02*
X011352Y022281D01*
X011429Y022204D01*
X011736Y022204D01*
X011812Y022281D01*
X011812Y022434D01*
X011736Y022511D01*
X011812Y022664D02*
X011812Y022971D01*
X011812Y022818D02*
X011352Y022818D01*
X011505Y022664D01*
X011429Y022511D02*
X011352Y022434D01*
X011163Y022214D02*
X010702Y022214D01*
X010702Y022367D02*
X010779Y022367D01*
X010932Y022520D01*
X011086Y022827D02*
X011163Y022827D01*
X011086Y022827D02*
X010779Y023134D01*
X009907Y022739D02*
X009356Y022188D01*
X009218Y022326D02*
X009769Y022877D01*
X009120Y022542D02*
X009122Y022583D01*
X009128Y022624D01*
X009138Y022664D01*
X009151Y022703D01*
X009168Y022740D01*
X009189Y022776D01*
X009213Y022810D01*
X009240Y022841D01*
X009269Y022869D01*
X009302Y022895D01*
X009336Y022917D01*
X009373Y022936D01*
X009411Y022951D01*
X009451Y022963D01*
X009491Y022971D01*
X009532Y022975D01*
X009574Y022975D01*
X009615Y022971D01*
X009655Y022963D01*
X009695Y022951D01*
X009733Y022936D01*
X009769Y022917D01*
X009804Y022895D01*
X009837Y022869D01*
X009866Y022841D01*
X009893Y022810D01*
X009917Y022776D01*
X009938Y022740D01*
X009955Y022703D01*
X009968Y022664D01*
X009978Y022624D01*
X009984Y022583D01*
X009986Y022542D01*
X009984Y022501D01*
X009978Y022460D01*
X009968Y022420D01*
X009955Y022381D01*
X009938Y022344D01*
X009917Y022308D01*
X009893Y022274D01*
X009866Y022243D01*
X009837Y022215D01*
X009804Y022189D01*
X009770Y022167D01*
X009733Y022148D01*
X009695Y022133D01*
X009655Y022121D01*
X009615Y022113D01*
X009574Y022109D01*
X009532Y022109D01*
X009491Y022113D01*
X009451Y022121D01*
X009411Y022133D01*
X009373Y022148D01*
X009337Y022167D01*
X009302Y022189D01*
X009269Y022215D01*
X009240Y022243D01*
X009213Y022274D01*
X009189Y022308D01*
X009168Y022344D01*
X009151Y022381D01*
X009138Y022420D01*
X009128Y022460D01*
X009122Y022501D01*
X009120Y022542D01*
X008493Y022536D02*
X008493Y022383D01*
X008417Y022306D01*
X008340Y022306D01*
X008263Y022383D01*
X008263Y022536D01*
X008340Y022613D01*
X008417Y022613D01*
X008493Y022536D01*
X008263Y022536D02*
X008186Y022613D01*
X008110Y022613D01*
X008033Y022536D01*
X008033Y022383D01*
X008110Y022306D01*
X008186Y022306D01*
X008263Y022383D01*
X008186Y022152D02*
X008110Y022152D01*
X008033Y022076D01*
X008033Y021922D01*
X008110Y021845D01*
X008110Y021692D02*
X008263Y021692D01*
X008340Y021615D01*
X008340Y021385D01*
X008493Y021385D02*
X008033Y021385D01*
X008033Y021615D01*
X008110Y021692D01*
X008340Y021539D02*
X008493Y021692D01*
X008417Y021845D02*
X008493Y021922D01*
X008493Y022076D01*
X008417Y022152D01*
X008340Y022152D01*
X008263Y022076D01*
X008263Y021999D01*
X008263Y022076D02*
X008186Y022152D01*
X007478Y022113D02*
X007478Y022037D01*
X007401Y021960D01*
X007248Y021960D01*
X007171Y022037D01*
X007017Y022037D02*
X006941Y021960D01*
X006787Y021960D01*
X006711Y022037D01*
X006711Y022344D01*
X006787Y022420D01*
X006941Y022420D01*
X007017Y022344D01*
X007171Y022344D02*
X007248Y022420D01*
X007401Y022420D01*
X007478Y022344D01*
X007478Y022267D01*
X007401Y022190D01*
X007478Y022113D01*
X007401Y022190D02*
X007324Y022190D01*
X005655Y022030D02*
X005655Y023251D01*
X005222Y023684D01*
X005104Y024035D02*
X005104Y024495D01*
X004874Y024265D01*
X005181Y024265D01*
X004720Y024418D02*
X004644Y024495D01*
X004490Y024495D01*
X004413Y024418D01*
X004413Y024111D01*
X004490Y024035D01*
X004644Y024035D01*
X004720Y024111D01*
X004435Y023684D02*
X004002Y023251D01*
X004002Y022030D01*
X004494Y022030D01*
X005163Y022030D02*
X005655Y022030D01*
X004493Y022168D02*
X004445Y022194D01*
X004398Y022223D01*
X004353Y022256D01*
X004311Y022292D01*
X004272Y022331D01*
X004235Y022372D01*
X004202Y022416D01*
X004171Y022462D01*
X004145Y022511D01*
X004122Y022561D01*
X004102Y022613D01*
X004086Y022666D01*
X004074Y022720D01*
X004066Y022774D01*
X004062Y022829D01*
X004062Y022885D01*
X004066Y022940D01*
X004074Y022994D01*
X004086Y023048D01*
X004102Y023101D01*
X004122Y023153D01*
X004145Y023203D01*
X004171Y023252D01*
X004202Y023298D01*
X004235Y023342D01*
X004272Y023383D01*
X004311Y023422D01*
X004353Y023458D01*
X004398Y023491D01*
X004445Y023520D01*
X004493Y023546D01*
X005163Y023546D02*
X005211Y023520D01*
X005258Y023491D01*
X005303Y023458D01*
X005345Y023422D01*
X005384Y023383D01*
X005421Y023342D01*
X005454Y023298D01*
X005485Y023252D01*
X005511Y023203D01*
X005534Y023153D01*
X005554Y023101D01*
X005570Y023048D01*
X005582Y022994D01*
X005590Y022940D01*
X005594Y022885D01*
X005594Y022829D01*
X005590Y022774D01*
X005582Y022720D01*
X005570Y022666D01*
X005554Y022613D01*
X005534Y022561D01*
X005511Y022511D01*
X005485Y022462D01*
X005454Y022416D01*
X005421Y022372D01*
X005384Y022331D01*
X005345Y022292D01*
X005303Y022256D01*
X005258Y022223D01*
X005211Y022194D01*
X005163Y022168D01*
X010006Y018940D02*
X010911Y018940D01*
X011659Y018940D02*
X012565Y018940D01*
X012565Y017050D01*
X011895Y016381D01*
X011659Y016381D01*
X010911Y016381D02*
X010675Y016381D01*
X010006Y017050D01*
X010006Y018940D01*
X010911Y018821D02*
X010847Y018799D01*
X010784Y018772D01*
X010722Y018742D01*
X010663Y018709D01*
X010605Y018673D01*
X010549Y018633D01*
X010496Y018590D01*
X010445Y018545D01*
X010397Y018497D01*
X010352Y018446D01*
X010309Y018392D01*
X010270Y018336D01*
X010233Y018279D01*
X010200Y018219D01*
X010171Y018157D01*
X010145Y018094D01*
X010122Y018030D01*
X010103Y017964D01*
X010088Y017897D01*
X010077Y017830D01*
X010069Y017762D01*
X010065Y017694D01*
X010065Y017626D01*
X010069Y017558D01*
X010077Y017490D01*
X010088Y017423D01*
X010103Y017356D01*
X010122Y017290D01*
X010145Y017226D01*
X010171Y017163D01*
X010200Y017101D01*
X010233Y017041D01*
X010270Y016984D01*
X010309Y016928D01*
X010352Y016874D01*
X010397Y016823D01*
X010445Y016775D01*
X010496Y016730D01*
X010549Y016687D01*
X010605Y016647D01*
X010663Y016611D01*
X010722Y016578D01*
X010784Y016548D01*
X010847Y016521D01*
X010911Y016499D01*
X011659Y016499D02*
X011723Y016521D01*
X011786Y016548D01*
X011848Y016578D01*
X011907Y016611D01*
X011965Y016647D01*
X012021Y016687D01*
X012074Y016730D01*
X012125Y016775D01*
X012173Y016823D01*
X012218Y016874D01*
X012261Y016928D01*
X012300Y016984D01*
X012337Y017041D01*
X012370Y017101D01*
X012399Y017163D01*
X012425Y017226D01*
X012448Y017290D01*
X012467Y017356D01*
X012482Y017423D01*
X012493Y017490D01*
X012501Y017558D01*
X012505Y017626D01*
X012505Y017694D01*
X012501Y017762D01*
X012493Y017830D01*
X012482Y017897D01*
X012467Y017964D01*
X012448Y018030D01*
X012425Y018094D01*
X012399Y018157D01*
X012370Y018219D01*
X012337Y018279D01*
X012300Y018336D01*
X012261Y018392D01*
X012218Y018446D01*
X012173Y018497D01*
X012125Y018545D01*
X012074Y018590D01*
X012021Y018633D01*
X011965Y018673D01*
X011907Y018709D01*
X011848Y018742D01*
X011786Y018772D01*
X011723Y018799D01*
X011659Y018821D01*
X011086Y021446D02*
X011163Y021523D01*
X011163Y021676D01*
X011086Y021753D01*
X011163Y021907D02*
X010702Y021907D01*
X011163Y022214D01*
X011352Y022050D02*
X011352Y021897D01*
X011352Y021974D02*
X011812Y021974D01*
X011812Y022050D02*
X011812Y021897D01*
X011086Y021446D02*
X010779Y021446D01*
X010702Y021523D01*
X010702Y021676D01*
X010779Y021753D01*
X004238Y027704D02*
X004238Y028164D01*
X004008Y027934D01*
X004315Y027934D01*
X003855Y027934D02*
X003778Y027857D01*
X003548Y027857D01*
X003548Y027704D02*
X003548Y028164D01*
X003778Y028164D01*
X003855Y028088D01*
X003855Y027934D01*
X003701Y027857D02*
X003855Y027704D01*
X020701Y016706D02*
X020855Y016553D01*
X020701Y016706D02*
X021161Y016706D01*
X021161Y016553D02*
X021161Y016860D01*
X021161Y016399D02*
X021161Y016092D01*
X021161Y016246D02*
X020701Y016246D01*
X020855Y016092D01*
X020778Y015939D02*
X020701Y015862D01*
X020701Y015709D01*
X020778Y015632D01*
X021085Y015632D01*
X021161Y015709D01*
X021161Y015862D01*
X021085Y015939D01*
X021161Y015478D02*
X021161Y015325D01*
X021161Y015402D02*
X020701Y015402D01*
X020701Y015478D02*
X020701Y015325D01*
X023089Y016052D02*
X023165Y015976D01*
X023319Y015976D01*
X023395Y016052D01*
X023549Y015976D02*
X023856Y015976D01*
X023702Y015976D02*
X023702Y016436D01*
X023549Y016283D01*
X023395Y016359D02*
X023319Y016436D01*
X023165Y016436D01*
X023089Y016359D01*
X023089Y016052D01*
X024009Y016052D02*
X024086Y015976D01*
X024239Y015976D01*
X024316Y016052D01*
X024316Y016129D01*
X024239Y016206D01*
X024086Y016206D01*
X024009Y016283D01*
X024009Y016359D01*
X024086Y016436D01*
X024239Y016436D01*
X024316Y016359D01*
X024316Y016283D01*
X024239Y016206D01*
X024086Y016206D02*
X024009Y016129D01*
X024009Y016052D01*
X027276Y014534D02*
X027276Y014228D01*
X027352Y014151D01*
X027506Y014151D01*
X027582Y014228D01*
X027736Y014228D02*
X027736Y014304D01*
X027813Y014381D01*
X027966Y014381D01*
X028043Y014304D01*
X028043Y014228D01*
X027966Y014151D01*
X027813Y014151D01*
X027736Y014228D01*
X027813Y014381D02*
X027736Y014458D01*
X027736Y014534D01*
X027813Y014611D01*
X027966Y014611D01*
X028043Y014534D01*
X028043Y014458D01*
X027966Y014381D01*
X027582Y014534D02*
X027506Y014611D01*
X027352Y014611D01*
X027276Y014534D01*
X028592Y011986D02*
X028375Y011769D01*
X028375Y011660D01*
X028484Y011552D01*
X028592Y011552D01*
X028647Y011389D02*
X028864Y011172D01*
X028972Y011064D02*
X029189Y010847D01*
X029081Y010955D02*
X029406Y011281D01*
X029189Y011281D01*
X029081Y011606D02*
X028755Y011281D01*
X028864Y011606D02*
X029081Y011606D01*
X028810Y011769D02*
X028810Y011877D01*
X028701Y011986D01*
X028592Y011986D01*
X026047Y010369D02*
X026047Y010292D01*
X025740Y009985D01*
X025740Y009909D01*
X025587Y009909D02*
X025280Y009909D01*
X025587Y010216D01*
X025587Y010292D01*
X025510Y010369D01*
X025357Y010369D01*
X025280Y010292D01*
X025126Y010292D02*
X025126Y010139D01*
X025050Y010062D01*
X024820Y010062D01*
X024973Y010062D02*
X025126Y009909D01*
X024820Y009909D02*
X024820Y010369D01*
X025050Y010369D01*
X025126Y010292D01*
X025740Y010369D02*
X026047Y010369D01*
X026045Y009682D02*
X026121Y009682D01*
X026198Y009605D01*
X026198Y009451D01*
X026121Y009375D01*
X026198Y009221D02*
X026198Y008914D01*
X026198Y008761D02*
X026045Y008607D01*
X026045Y008684D02*
X026045Y008454D01*
X026198Y008454D02*
X025738Y008454D01*
X025738Y008684D01*
X025814Y008761D01*
X025968Y008761D01*
X026045Y008684D01*
X025891Y008914D02*
X025738Y009068D01*
X026198Y009068D01*
X025814Y009375D02*
X025738Y009451D01*
X025738Y009605D01*
X025814Y009682D01*
X025891Y009682D01*
X025968Y009605D01*
X026045Y009682D01*
X025968Y009605D02*
X025968Y009528D01*
X024238Y008172D02*
X023687Y008723D01*
X023549Y008586D02*
X024100Y008034D01*
X023450Y008369D02*
X023452Y008410D01*
X023458Y008451D01*
X023468Y008491D01*
X023481Y008530D01*
X023498Y008567D01*
X023519Y008603D01*
X023543Y008637D01*
X023570Y008668D01*
X023599Y008696D01*
X023632Y008722D01*
X023666Y008744D01*
X023703Y008763D01*
X023741Y008778D01*
X023781Y008790D01*
X023821Y008798D01*
X023862Y008802D01*
X023904Y008802D01*
X023945Y008798D01*
X023985Y008790D01*
X024025Y008778D01*
X024063Y008763D01*
X024099Y008744D01*
X024134Y008722D01*
X024167Y008696D01*
X024196Y008668D01*
X024223Y008637D01*
X024247Y008603D01*
X024268Y008567D01*
X024285Y008530D01*
X024298Y008491D01*
X024308Y008451D01*
X024314Y008410D01*
X024316Y008369D01*
X024314Y008328D01*
X024308Y008287D01*
X024298Y008247D01*
X024285Y008208D01*
X024268Y008171D01*
X024247Y008135D01*
X024223Y008101D01*
X024196Y008070D01*
X024167Y008042D01*
X024134Y008016D01*
X024100Y007994D01*
X024063Y007975D01*
X024025Y007960D01*
X023985Y007948D01*
X023945Y007940D01*
X023904Y007936D01*
X023862Y007936D01*
X023821Y007940D01*
X023781Y007948D01*
X023741Y007960D01*
X023703Y007975D01*
X023667Y007994D01*
X023632Y008016D01*
X023599Y008042D01*
X023570Y008070D01*
X023543Y008101D01*
X023519Y008135D01*
X023498Y008171D01*
X023481Y008208D01*
X023468Y008247D01*
X023458Y008287D01*
X023452Y008328D01*
X023450Y008369D01*
X023502Y007192D02*
X023579Y007115D01*
X023579Y006962D01*
X023502Y006885D01*
X023272Y006885D01*
X023272Y006731D02*
X023272Y007192D01*
X023502Y007192D01*
X023733Y007115D02*
X023809Y007192D01*
X023963Y007192D01*
X024040Y007115D01*
X024040Y007038D01*
X023963Y006962D01*
X024040Y006885D01*
X024040Y006808D01*
X023963Y006731D01*
X023809Y006731D01*
X023733Y006808D01*
X023579Y006731D02*
X023426Y006885D01*
X023886Y006962D02*
X023963Y006962D01*
X024193Y006962D02*
X024193Y007192D01*
X024500Y007192D01*
X024423Y007038D02*
X024347Y007038D01*
X024193Y006962D01*
X024193Y006808D02*
X024270Y006731D01*
X024423Y006731D01*
X024500Y006808D01*
X024500Y006962D01*
X024423Y007038D01*
X026882Y006893D02*
X026882Y006586D01*
X026959Y006509D01*
X027112Y006509D01*
X027189Y006586D01*
X027189Y006893D01*
X027112Y006969D01*
X026959Y006969D01*
X026882Y006893D01*
X027036Y006663D02*
X027189Y006509D01*
X027343Y006586D02*
X027419Y006509D01*
X027573Y006509D01*
X027650Y006586D01*
X027650Y006663D01*
X027573Y006739D01*
X027496Y006739D01*
X027573Y006739D02*
X027650Y006816D01*
X027650Y006893D01*
X027573Y006969D01*
X027419Y006969D01*
X027343Y006893D01*
X026986Y004327D02*
X026986Y004020D01*
X026986Y003867D02*
X026986Y003560D01*
X026986Y003713D02*
X026525Y003713D01*
X026679Y003560D01*
X026755Y003407D02*
X026832Y003330D01*
X026832Y003100D01*
X026832Y003253D02*
X026986Y003407D01*
X026755Y003407D02*
X026602Y003407D01*
X026525Y003330D01*
X026525Y003100D01*
X026986Y003100D01*
X026679Y004020D02*
X026525Y004174D01*
X026986Y004174D01*
X029229Y004070D02*
X029229Y003609D01*
X029229Y003763D02*
X029459Y003763D01*
X029536Y003840D01*
X029536Y003993D01*
X029459Y004070D01*
X029229Y004070D01*
X029382Y003763D02*
X029536Y003609D01*
X029689Y003609D02*
X029996Y003609D01*
X029843Y003609D02*
X029843Y004070D01*
X029689Y003916D01*
X030150Y003993D02*
X030150Y003686D01*
X030457Y003993D01*
X030457Y003686D01*
X030380Y003609D01*
X030226Y003609D01*
X030150Y003686D01*
X030150Y003993D02*
X030226Y004070D01*
X030380Y004070D01*
X030457Y003993D01*
X031382Y003944D02*
X031459Y003867D01*
X031612Y003867D01*
X031689Y003944D01*
X031689Y004251D01*
X031612Y004328D01*
X031459Y004328D01*
X031382Y004251D01*
X031382Y003944D01*
X031535Y004021D02*
X031689Y003867D01*
X031842Y003944D02*
X031919Y003867D01*
X032072Y003867D01*
X032149Y003944D01*
X032149Y004098D01*
X032072Y004174D01*
X031996Y004174D01*
X031842Y004098D01*
X031842Y004328D01*
X032149Y004328D01*
X033612Y002910D02*
X033688Y002757D01*
X033842Y002603D01*
X033842Y002833D01*
X033919Y002910D01*
X033995Y002910D01*
X034072Y002833D01*
X034072Y002680D01*
X033995Y002603D01*
X033842Y002603D01*
X033765Y002450D02*
X034072Y002143D01*
X034072Y002450D01*
X033765Y002450D02*
X033688Y002450D01*
X033612Y002373D01*
X033612Y002219D01*
X033688Y002143D01*
X033688Y001989D02*
X033842Y001989D01*
X033919Y001912D01*
X033919Y001682D01*
X034072Y001682D02*
X033612Y001682D01*
X033612Y001912D01*
X033688Y001989D01*
X033919Y001836D02*
X034072Y001989D01*
X033950Y006527D02*
X033797Y006527D01*
X033720Y006604D01*
X033567Y006527D02*
X033413Y006680D01*
X033490Y006680D02*
X033260Y006680D01*
X033260Y006527D02*
X033260Y006987D01*
X033490Y006987D01*
X033567Y006910D01*
X033567Y006757D01*
X033490Y006680D01*
X033720Y006910D02*
X033797Y006987D01*
X033950Y006987D01*
X034027Y006910D01*
X034027Y006834D01*
X033950Y006757D01*
X034027Y006680D01*
X034027Y006604D01*
X033950Y006527D01*
X033950Y006757D02*
X033874Y006757D01*
X035029Y007667D02*
X035029Y007897D01*
X035106Y007973D01*
X035259Y007973D01*
X035336Y007897D01*
X035336Y007667D01*
X035336Y007820D02*
X035489Y007973D01*
X035413Y008127D02*
X035489Y008204D01*
X035489Y008357D01*
X035413Y008434D01*
X035259Y008434D01*
X035183Y008357D01*
X035183Y008280D01*
X035259Y008127D01*
X035029Y008127D01*
X035029Y008434D01*
X033935Y008808D02*
X033935Y008962D01*
X033858Y009038D01*
X033781Y009038D01*
X033628Y008962D01*
X033628Y009192D01*
X033935Y009192D01*
X033935Y008808D02*
X033858Y008731D01*
X033704Y008731D01*
X033628Y008808D01*
X033474Y008808D02*
X033397Y008731D01*
X033244Y008731D01*
X033167Y008808D01*
X033167Y009115D01*
X033244Y009192D01*
X033397Y009192D01*
X033474Y009115D01*
X034177Y010399D02*
X034484Y010399D01*
X034637Y010399D02*
X034944Y010399D01*
X034791Y010399D02*
X034791Y010859D01*
X034637Y010706D01*
X034177Y010859D02*
X034177Y010399D01*
X035164Y011443D02*
X035381Y011226D01*
X035490Y011226D01*
X035598Y011335D01*
X035598Y011443D01*
X035707Y011552D02*
X035815Y011552D01*
X035924Y011660D01*
X035924Y011769D01*
X035707Y011986D01*
X035598Y011986D01*
X035490Y011877D01*
X035490Y011769D01*
X035544Y011715D01*
X035653Y011715D01*
X035815Y011877D01*
X035381Y011660D02*
X035273Y011660D01*
X035164Y011552D01*
X035164Y011443D01*
X035029Y007667D02*
X035489Y007667D01*
X022734Y009871D02*
X022273Y009871D01*
X022273Y010101D01*
X022350Y010178D01*
X022503Y010178D01*
X022580Y010101D01*
X022580Y009871D01*
X022580Y010025D02*
X022734Y010178D01*
X022734Y010332D02*
X022427Y010639D01*
X022350Y010639D01*
X022273Y010562D01*
X022273Y010408D01*
X022350Y010332D01*
X022734Y010332D02*
X022734Y010639D01*
X022657Y010792D02*
X022580Y010792D01*
X022503Y010869D01*
X022503Y011022D01*
X022580Y011099D01*
X022657Y011099D01*
X022734Y011022D01*
X022734Y010869D01*
X022657Y010792D01*
X022503Y010869D02*
X022427Y010792D01*
X022350Y010792D01*
X022273Y010869D01*
X022273Y011022D01*
X022350Y011099D01*
X022427Y011099D01*
X022503Y011022D01*
X013134Y014229D02*
X012827Y013922D01*
X012827Y013846D01*
X012673Y013922D02*
X012597Y013846D01*
X012443Y013846D01*
X012367Y013922D01*
X012213Y013846D02*
X012060Y013999D01*
X012136Y013999D02*
X011906Y013999D01*
X011906Y013846D02*
X011906Y014306D01*
X012136Y014306D01*
X012213Y014229D01*
X012213Y014076D01*
X012136Y013999D01*
X012367Y014229D02*
X012443Y014306D01*
X012597Y014306D01*
X012673Y014229D01*
X012673Y014153D01*
X012597Y014076D01*
X012673Y013999D01*
X012673Y013922D01*
X012597Y014076D02*
X012520Y014076D01*
X012827Y014306D02*
X013134Y014306D01*
X013134Y014229D01*
X009273Y014199D02*
X009273Y014352D01*
X009196Y014429D01*
X009273Y014582D02*
X008966Y014889D01*
X008889Y014889D01*
X008813Y014813D01*
X008813Y014659D01*
X008889Y014582D01*
X008889Y014429D02*
X008813Y014352D01*
X008813Y014199D01*
X008889Y014122D01*
X009196Y014122D01*
X009273Y014199D01*
X009273Y014582D02*
X009273Y014889D01*
X009196Y015043D02*
X008889Y015350D01*
X009196Y015350D01*
X009273Y015273D01*
X009273Y015119D01*
X009196Y015043D01*
X008889Y015043D01*
X008813Y015119D01*
X008813Y015273D01*
X008889Y015350D01*
X008967Y010369D02*
X008890Y010292D01*
X008890Y010216D01*
X008967Y010139D01*
X009197Y010139D01*
X009197Y010292D02*
X009120Y010369D01*
X008967Y010369D01*
X009197Y010292D02*
X009197Y009985D01*
X009120Y009909D01*
X008967Y009909D01*
X008890Y009985D01*
X008736Y009909D02*
X008430Y009909D01*
X008736Y010216D01*
X008736Y010292D01*
X008660Y010369D01*
X008506Y010369D01*
X008430Y010292D01*
X008276Y010292D02*
X008276Y010139D01*
X008199Y010062D01*
X007969Y010062D01*
X007969Y009909D02*
X007969Y010369D01*
X008199Y010369D01*
X008276Y010292D01*
X008123Y010062D02*
X008276Y009909D01*
X008425Y008637D02*
X008578Y008483D01*
X008732Y008637D01*
X008732Y008176D01*
X008885Y008253D02*
X008962Y008176D01*
X009115Y008176D01*
X009192Y008253D01*
X009192Y008560D01*
X009115Y008637D01*
X008962Y008637D01*
X008885Y008560D01*
X008885Y008253D01*
X008425Y008176D02*
X008425Y008637D01*
X009346Y008637D02*
X009653Y008637D01*
X009499Y008637D02*
X009499Y008176D01*
X009806Y008100D02*
X010113Y008100D01*
X010266Y008176D02*
X010266Y008637D01*
X010573Y008637D01*
X010727Y008637D02*
X010727Y008176D01*
X011034Y008176D01*
X011003Y007934D02*
X011080Y007857D01*
X011080Y007704D01*
X011003Y007627D01*
X010696Y007627D01*
X010620Y007704D01*
X010620Y007857D01*
X010696Y007934D01*
X010620Y007474D02*
X011080Y007474D01*
X010620Y007167D01*
X011080Y007167D01*
X011080Y007013D02*
X011080Y006706D01*
X010620Y006706D01*
X010620Y007013D01*
X010850Y006860D02*
X010850Y006706D01*
X011157Y006553D02*
X011157Y006246D01*
X011003Y006093D02*
X011080Y006016D01*
X011080Y005862D01*
X011003Y005786D01*
X010696Y006093D01*
X011003Y006093D01*
X010696Y006093D02*
X010620Y006016D01*
X010620Y005862D01*
X010696Y005786D01*
X011003Y005786D01*
X010696Y005632D02*
X011003Y005325D01*
X011080Y005325D01*
X011080Y005018D02*
X010850Y005018D01*
X010696Y005172D01*
X010620Y005172D01*
X010620Y005325D02*
X010620Y005632D01*
X010696Y005632D01*
X010850Y005018D02*
X010696Y004865D01*
X010620Y004865D01*
X010620Y004711D02*
X011080Y004711D01*
X010620Y004404D01*
X011080Y004404D01*
X011003Y004251D02*
X011080Y004174D01*
X011080Y004021D01*
X011003Y003944D01*
X010696Y003944D01*
X010620Y004021D01*
X010620Y004174D01*
X010696Y004251D01*
X010430Y004273D02*
X010430Y004427D01*
X010354Y004503D01*
X010354Y004657D02*
X010430Y004734D01*
X010430Y004887D01*
X010354Y004964D01*
X010047Y004964D01*
X009970Y004887D01*
X009970Y004734D01*
X010047Y004657D01*
X010123Y004657D01*
X010200Y004734D01*
X010200Y004964D01*
X010047Y004503D02*
X009970Y004427D01*
X009970Y004273D01*
X010047Y004197D01*
X010354Y004197D01*
X010430Y004273D01*
X010430Y004043D02*
X010430Y003890D01*
X010430Y003966D02*
X009970Y003966D01*
X009970Y003890D02*
X009970Y004043D01*
X008201Y003637D02*
X007960Y003637D01*
X008080Y003637D02*
X008080Y003997D01*
X007960Y003877D01*
X007832Y003997D02*
X007592Y003637D01*
X007832Y003637D02*
X007592Y003997D01*
X004909Y001291D02*
X004789Y001291D01*
X004728Y001231D01*
X004600Y001291D02*
X004360Y000930D01*
X004600Y000930D02*
X004360Y001291D01*
X004728Y000930D02*
X004969Y001171D01*
X004969Y001231D01*
X004909Y001291D01*
X004969Y000930D02*
X004728Y000930D01*
X011341Y008176D02*
X011341Y008637D01*
X011494Y008637D02*
X011187Y008637D01*
X010420Y008407D02*
X010266Y008407D01*
D20*
X006915Y028369D03*
D21*
X007995Y028350D02*
X008331Y028350D01*
X008442Y028462D01*
X008442Y028685D01*
X008331Y028797D01*
X007995Y028797D01*
X007995Y028127D01*
X008695Y028127D02*
X008919Y028350D01*
X009142Y028127D01*
X009142Y028797D01*
X009395Y028797D02*
X009730Y028797D01*
X009842Y028685D01*
X009842Y028462D01*
X009730Y028350D01*
X009395Y028350D01*
X009395Y028127D02*
X009395Y028797D01*
X008695Y028797D02*
X008695Y028127D01*
X009619Y028350D02*
X009842Y028127D01*
D22*
X029966Y027251D02*
X029966Y026660D01*
X030261Y026660D01*
X030359Y026759D01*
X030359Y026857D01*
X030261Y026956D01*
X029966Y026956D01*
X029966Y027251D02*
X030261Y027251D01*
X030359Y027152D01*
X030359Y027054D01*
X030261Y026956D01*
X030573Y026759D02*
X030672Y026660D01*
X030869Y026660D01*
X030967Y026759D01*
X030967Y027251D01*
X031181Y027152D02*
X031181Y027054D01*
X031280Y026956D01*
X031476Y026956D01*
X031575Y026857D01*
X031575Y026759D01*
X031476Y026660D01*
X031280Y026660D01*
X031181Y026759D01*
X031181Y027152D02*
X031280Y027251D01*
X031476Y027251D01*
X031575Y027152D01*
X031789Y027152D02*
X031887Y027251D01*
X032084Y027251D01*
X032183Y027152D01*
X032183Y027054D01*
X031789Y026660D01*
X032183Y026660D01*
X032820Y026609D02*
X032820Y026282D01*
X033310Y026282D01*
X033310Y026609D01*
X033310Y026798D02*
X032820Y026798D01*
X032820Y027043D01*
X032901Y027125D01*
X033228Y027125D01*
X033310Y027043D01*
X033310Y026798D01*
X033065Y026446D02*
X033065Y026282D01*
X033310Y026094D02*
X033310Y025767D01*
X032820Y025767D01*
X032988Y024930D02*
X033383Y024930D01*
X033515Y024798D01*
X033515Y024535D01*
X033383Y024403D01*
X032988Y024403D01*
X032988Y024139D02*
X032988Y024930D01*
X032723Y024798D02*
X032591Y024930D01*
X032328Y024930D01*
X032196Y024798D01*
X032196Y024666D01*
X032328Y024535D01*
X032591Y024535D01*
X032723Y024403D01*
X032723Y024271D01*
X032591Y024139D01*
X032328Y024139D01*
X032196Y024271D01*
X031932Y024139D02*
X031668Y024139D01*
X031800Y024139D02*
X031800Y024930D01*
X031668Y024930D02*
X031932Y024930D01*
X030573Y026759D02*
X030573Y027251D01*
X032820Y027314D02*
X033065Y027314D01*
X032983Y027477D01*
X032983Y027559D01*
X033065Y027640D01*
X033228Y027640D01*
X033310Y027559D01*
X033310Y027395D01*
X033228Y027314D01*
X032820Y027314D02*
X032820Y027640D01*
X027261Y002456D02*
X027261Y001865D01*
X027064Y001865D02*
X027458Y001865D01*
X027064Y002259D02*
X027261Y002456D01*
X026850Y002357D02*
X026752Y002456D01*
X026555Y002456D01*
X026457Y002357D01*
X026457Y002259D01*
X026555Y002160D01*
X026752Y002160D01*
X026850Y002062D01*
X026850Y001963D01*
X026752Y001865D01*
X026555Y001865D01*
X026457Y001963D01*
X026243Y001963D02*
X026243Y002456D01*
X025849Y002456D02*
X025849Y001963D01*
X025947Y001865D01*
X026144Y001865D01*
X026243Y001963D01*
X025635Y001963D02*
X025537Y001865D01*
X025241Y001865D01*
X025241Y002456D01*
X025537Y002456D01*
X025635Y002357D01*
X025635Y002259D01*
X025537Y002160D01*
X025241Y002160D01*
X025537Y002160D02*
X025635Y002062D01*
X025635Y001963D01*
D23*
X024730Y007523D02*
X023037Y007523D01*
X023037Y007857D01*
X023037Y008881D02*
X023037Y009215D01*
X024730Y009215D01*
X024730Y008408D02*
X024730Y008330D01*
X031961Y017210D02*
X031963Y017230D01*
X031968Y017250D01*
X031978Y017268D01*
X031990Y017285D01*
X032005Y017299D01*
X032023Y017309D01*
X032042Y017317D01*
X032062Y017321D01*
X032082Y017321D01*
X032102Y017317D01*
X032121Y017309D01*
X032139Y017299D01*
X032154Y017285D01*
X032166Y017268D01*
X032176Y017250D01*
X032181Y017230D01*
X032183Y017210D01*
X032181Y017190D01*
X032176Y017170D01*
X032166Y017152D01*
X032154Y017135D01*
X032139Y017121D01*
X032121Y017111D01*
X032102Y017103D01*
X032082Y017099D01*
X032062Y017099D01*
X032042Y017103D01*
X032023Y017111D01*
X032005Y017121D01*
X031990Y017135D01*
X031978Y017152D01*
X031968Y017170D01*
X031963Y017190D01*
X031961Y017210D01*
X024887Y020121D02*
X023194Y020121D01*
X023194Y020456D01*
X023194Y021479D02*
X023194Y021814D01*
X024887Y021814D01*
X024887Y021007D02*
X024887Y020928D01*
X010399Y021696D02*
X010399Y023389D01*
X010065Y023389D01*
X009041Y023389D02*
X008706Y023389D01*
X008706Y021696D01*
X009513Y021696D02*
X009592Y021696D01*
X009851Y003369D02*
X007587Y003369D01*
X007587Y000456D01*
X009851Y000456D01*
X009851Y003369D01*
X007424Y003369D02*
X005160Y003369D01*
X005160Y000456D01*
X007424Y000456D01*
X007424Y003369D01*
D24*
X005380Y002424D02*
X005380Y001400D01*
X005183Y001400D01*
X005183Y002424D02*
X005380Y002424D01*
X009631Y002424D02*
X009631Y001400D01*
X009828Y001400D01*
X009828Y002424D02*
X009631Y002424D01*
D25*
X011029Y008920D03*
X011029Y009393D03*
D26*
X011029Y009156D03*
D27*
X024541Y011548D02*
X024541Y015048D01*
X037231Y021725D02*
X037231Y021902D01*
X037260Y021814D02*
X037349Y021725D01*
X037412Y021725D02*
X037412Y021902D01*
X037471Y021843D01*
X037530Y021902D01*
X037530Y021725D01*
X037593Y021725D02*
X037593Y021902D01*
X037682Y021902D01*
X037711Y021873D01*
X037711Y021814D01*
X037682Y021784D01*
X037593Y021784D01*
X037652Y021784D02*
X037711Y021725D01*
X037775Y021725D02*
X037893Y021843D01*
X037893Y021873D01*
X037863Y021902D01*
X037804Y021902D01*
X037775Y021873D01*
X037775Y021725D02*
X037893Y021725D01*
X037956Y021725D02*
X038074Y021725D01*
X038015Y021725D02*
X038015Y021902D01*
X037956Y021843D01*
X038137Y021843D02*
X038196Y021902D01*
X038196Y021725D01*
X038137Y021725D02*
X038255Y021725D01*
X038319Y021755D02*
X038348Y021725D01*
X038407Y021725D01*
X038437Y021755D01*
X038437Y021814D01*
X038378Y021814D01*
X038437Y021873D02*
X038407Y021902D01*
X038348Y021902D01*
X038319Y021873D01*
X038319Y021755D01*
X038284Y021469D02*
X038284Y021292D01*
X038225Y021292D02*
X038343Y021292D01*
X038406Y021322D02*
X038436Y021292D01*
X038495Y021292D01*
X038524Y021322D01*
X038524Y021381D01*
X038465Y021381D01*
X038406Y021440D02*
X038406Y021322D01*
X038406Y021440D02*
X038436Y021469D01*
X038495Y021469D01*
X038524Y021440D01*
X038284Y021469D02*
X038225Y021410D01*
X038162Y021292D02*
X038044Y021292D01*
X038103Y021292D02*
X038103Y021469D01*
X038044Y021410D01*
X037980Y021410D02*
X037980Y021440D01*
X037951Y021469D01*
X037892Y021469D01*
X037862Y021440D01*
X037799Y021440D02*
X037799Y021381D01*
X037770Y021351D01*
X037681Y021351D01*
X037681Y021292D02*
X037681Y021469D01*
X037770Y021469D01*
X037799Y021440D01*
X037740Y021351D02*
X037799Y021292D01*
X037862Y021292D02*
X037980Y021410D01*
X037980Y021292D02*
X037862Y021292D01*
X037618Y021292D02*
X037618Y021469D01*
X037559Y021410D01*
X037500Y021469D01*
X037500Y021292D01*
X037437Y021292D02*
X037348Y021381D01*
X037319Y021351D02*
X037437Y021469D01*
X037319Y021469D02*
X037319Y021292D01*
X037231Y021784D02*
X037349Y021902D01*
X037319Y019737D02*
X037319Y019560D01*
X037319Y019619D02*
X037437Y019737D01*
X037500Y019737D02*
X037559Y019678D01*
X037618Y019737D01*
X037618Y019560D01*
X037681Y019560D02*
X037681Y019737D01*
X037770Y019737D01*
X037799Y019708D01*
X037799Y019649D01*
X037770Y019619D01*
X037681Y019619D01*
X037740Y019619D02*
X037799Y019560D01*
X037862Y019560D02*
X037980Y019678D01*
X037980Y019708D01*
X037951Y019737D01*
X037892Y019737D01*
X037862Y019708D01*
X037862Y019560D02*
X037980Y019560D01*
X038044Y019560D02*
X038162Y019560D01*
X038103Y019560D02*
X038103Y019737D01*
X038044Y019678D01*
X038225Y019678D02*
X038284Y019737D01*
X038284Y019560D01*
X038225Y019560D02*
X038343Y019560D01*
X038406Y019590D02*
X038436Y019560D01*
X038495Y019560D01*
X038524Y019590D01*
X038524Y019649D01*
X038465Y019649D01*
X038406Y019708D02*
X038406Y019590D01*
X038406Y019708D02*
X038436Y019737D01*
X038495Y019737D01*
X038524Y019708D01*
X037500Y019737D02*
X037500Y019560D01*
X037437Y019560D02*
X037348Y019649D01*
D28*
X034592Y026479D03*
X034277Y026794D03*
M02*
