G75*
%MOIN*%
%OFA0B0*%
%FSLAX24Y24*%
%IPPOS*%
%LPD*%
%AMOC8*
5,1,8,0,0,1.08239X$1,22.5*
%
%ADD10C,0.1182*%
%ADD11C,0.1340*%
%ADD12C,0.0980*%
%ADD13C,0.0867*%
%ADD14C,0.0595*%
%ADD15R,0.0316X0.0552*%
%ADD16R,0.0552X0.0552*%
%ADD17R,0.0671X0.0592*%
%ADD18R,0.0592X0.0671*%
%ADD19OC8,0.0930*%
%ADD20C,0.0720*%
%ADD21R,0.0789X0.0710*%
%ADD22C,0.0680*%
%ADD23R,0.0660X0.0220*%
%ADD24R,0.1260X0.1260*%
%ADD25R,0.0474X0.0631*%
%ADD26OC8,0.0595*%
%ADD27R,0.0710X0.0540*%
%ADD28R,0.0720X0.0060*%
%ADD29C,0.0600*%
%ADD30C,0.0740*%
%ADD31OC8,0.0358*%
%ADD32OC8,0.0476*%
D10*
X039789Y014704D03*
D11*
X003175Y010373D03*
X003175Y019192D03*
D12*
X013569Y020593D03*
X020655Y020593D03*
X020655Y008900D03*
X013569Y008900D03*
D13*
X013856Y011597D03*
X013856Y013172D03*
X013856Y016322D03*
X013856Y017897D03*
D14*
X023521Y022923D02*
X023521Y023437D01*
X024521Y023437D02*
X024521Y022923D01*
X025521Y022923D02*
X025521Y023437D01*
X026521Y023437D02*
X026521Y022923D01*
X027521Y022923D02*
X027521Y023437D01*
X028521Y023437D02*
X028521Y022923D01*
D15*
X034710Y023723D03*
X035419Y023723D03*
X035419Y025141D03*
X034710Y025141D03*
X034710Y020259D03*
X035419Y020259D03*
X035419Y018841D03*
X034710Y018841D03*
X034710Y015456D03*
X035419Y015456D03*
X035419Y014038D03*
X034710Y014038D03*
X034710Y010652D03*
X035419Y010652D03*
X035419Y009235D03*
X034710Y009235D03*
X034710Y005771D03*
X035419Y005771D03*
X035419Y004353D03*
X034710Y004353D03*
D16*
X030596Y002542D03*
X029769Y002542D03*
X008234Y004904D03*
X007407Y004904D03*
X007407Y024589D03*
X008234Y024589D03*
X029769Y026952D03*
X030596Y026952D03*
D17*
X031128Y024963D03*
X031128Y024215D03*
X036324Y024058D03*
X036324Y024806D03*
X037112Y024806D03*
X037112Y024058D03*
X037112Y015042D03*
X037112Y014294D03*
X036324Y014294D03*
X036324Y015042D03*
X036324Y005278D03*
X036324Y004530D03*
X037112Y004530D03*
X037112Y005278D03*
X018529Y017759D03*
X018529Y018507D03*
X014120Y021696D03*
X014120Y022444D03*
X011443Y022444D03*
X011443Y021696D03*
X011443Y007641D03*
X011443Y006893D03*
X014120Y006893D03*
X014120Y007641D03*
D18*
X016108Y016400D03*
X016856Y016400D03*
X008194Y023802D03*
X007446Y023802D03*
X034691Y020967D03*
X035439Y020967D03*
X035439Y018133D03*
X034691Y018133D03*
X035478Y011361D03*
X036226Y011361D03*
X035596Y008526D03*
X034848Y008526D03*
X032919Y004432D03*
X032171Y004432D03*
D19*
X003726Y002227D03*
X029375Y007739D03*
X031935Y007739D03*
D20*
X032230Y022042D03*
X033230Y022042D03*
X033230Y023042D03*
X032230Y023042D03*
X031230Y023042D03*
X031230Y022042D03*
D21*
X018687Y013487D03*
X018687Y012385D03*
X017742Y017582D03*
X017742Y018684D03*
D22*
X002609Y022672D02*
X002009Y022672D01*
X002009Y023672D02*
X002609Y023672D01*
X005788Y002412D02*
X006388Y002412D01*
X006388Y001412D02*
X005788Y001412D01*
X008623Y001412D02*
X009223Y001412D01*
X009223Y002412D02*
X008623Y002412D01*
D23*
X015332Y013926D03*
X015332Y014186D03*
X015332Y014446D03*
X015332Y014696D03*
X015332Y014956D03*
X015332Y015206D03*
X015332Y015466D03*
X015332Y015726D03*
X017632Y015726D03*
X017632Y015466D03*
X017632Y015206D03*
X017632Y014956D03*
X017632Y014696D03*
X017632Y014446D03*
X017632Y014186D03*
X017632Y013926D03*
D24*
X016482Y014826D03*
D25*
X032171Y003448D03*
X032919Y003448D03*
X032545Y002582D03*
D26*
X013257Y006080D03*
X012257Y006080D03*
X012257Y006830D03*
X013257Y006830D03*
X013305Y022664D03*
X013305Y023414D03*
X012305Y023414D03*
X012305Y022664D03*
D27*
X016482Y010401D03*
X016482Y009801D03*
D28*
X016482Y010101D03*
D29*
X024521Y001440D02*
X024521Y000920D01*
X025521Y000920D02*
X025521Y001440D01*
X026521Y001440D02*
X026521Y000920D01*
X027521Y000920D02*
X027521Y001440D01*
X028521Y001440D02*
X028521Y000920D01*
X029521Y000920D02*
X029521Y001440D01*
X030521Y001440D02*
X030521Y000920D01*
X031521Y000920D02*
X031521Y001440D01*
X031521Y027920D02*
X031521Y028440D01*
X030521Y028440D02*
X030521Y027920D01*
X029521Y027920D02*
X029521Y028440D01*
X028521Y028440D02*
X028521Y027920D01*
X027521Y027920D02*
X027521Y028440D01*
X026521Y028440D02*
X026521Y027920D01*
X025521Y027920D02*
X025521Y028440D01*
X024521Y028440D02*
X024521Y027920D01*
D30*
X005856Y006022D02*
X005856Y005362D01*
X004356Y005362D02*
X004356Y006022D01*
X002856Y006022D02*
X002856Y005362D01*
D31*
X007348Y008054D03*
X011915Y009314D03*
X014750Y006952D03*
X014277Y006164D03*
X014277Y004274D03*
X016482Y004274D03*
X019631Y006952D03*
X021679Y009314D03*
X021994Y010889D03*
X021049Y011676D03*
X021994Y012778D03*
X021994Y013802D03*
X021364Y013723D03*
X020419Y013408D03*
X021994Y014826D03*
X021364Y015456D03*
X021994Y015771D03*
X022624Y015613D03*
X022624Y016715D03*
X022939Y017660D03*
X023254Y017975D03*
X022624Y018290D03*
X021994Y018920D03*
X021206Y018290D03*
X021049Y017503D03*
X020104Y015771D03*
X019789Y015456D03*
X018687Y015062D03*
X018214Y014038D03*
X017584Y012936D03*
X016482Y012306D03*
X015380Y013408D03*
X014592Y013093D03*
X012860Y012306D03*
X012230Y015456D03*
X011915Y015928D03*
X008608Y017975D03*
X007663Y019865D03*
X006561Y019708D03*
X006876Y021282D03*
X008608Y020652D03*
X010498Y021440D03*
X009238Y022070D03*
X007506Y022700D03*
X006088Y024117D03*
X003883Y023645D03*
X003254Y020967D03*
X009395Y025377D03*
X010340Y023645D03*
X012230Y022070D03*
X011915Y020652D03*
X012860Y018763D03*
X015222Y016086D03*
X018687Y016086D03*
X020419Y019235D03*
X019317Y019708D03*
X022939Y020180D03*
X023254Y019865D03*
X024828Y017975D03*
X025773Y018763D03*
X027033Y019078D03*
X025773Y020337D03*
X028765Y020967D03*
X028923Y021440D03*
X028923Y020337D03*
X030813Y020337D03*
X030813Y020810D03*
X031757Y021597D03*
X033332Y020810D03*
X033647Y021440D03*
X033962Y021125D03*
X034592Y022070D03*
X035222Y022542D03*
X034750Y023015D03*
X035065Y023645D03*
X034750Y024432D03*
X034120Y024747D03*
X033175Y025377D03*
X033647Y025794D03*
X034120Y025849D03*
X034592Y025692D03*
X035222Y025692D03*
X035852Y026164D03*
X036324Y025534D03*
X037742Y024432D03*
X038214Y023645D03*
X039159Y022385D03*
X039474Y021597D03*
X039159Y021282D03*
X038057Y020180D03*
X034907Y019708D03*
X033962Y019235D03*
X033647Y018133D03*
X033962Y017818D03*
X033332Y017660D03*
X034120Y017030D03*
X035380Y017503D03*
X036009Y017660D03*
X037742Y017345D03*
X038687Y017660D03*
X039474Y017503D03*
X039159Y016243D03*
X038057Y016558D03*
X037112Y015613D03*
X036324Y015613D03*
X035380Y014668D03*
X034120Y015141D03*
X032781Y014196D03*
X032387Y013566D03*
X031443Y013881D03*
X030340Y012306D03*
X030655Y012149D03*
X030970Y011834D03*
X031285Y011519D03*
X031600Y010889D03*
X031285Y010574D03*
X032072Y010101D03*
X031285Y009629D03*
X030340Y009944D03*
X029395Y009471D03*
X028608Y010259D03*
X027506Y010259D03*
X026876Y009944D03*
X026561Y010889D03*
X026088Y010889D03*
X025143Y010574D03*
X024986Y011204D03*
X026088Y011834D03*
X027191Y012306D03*
X026876Y012778D03*
X026246Y013093D03*
X026561Y013723D03*
X026876Y014038D03*
X027191Y013723D03*
X027506Y013408D03*
X025931Y014353D03*
X025458Y015298D03*
X024828Y015613D03*
X025616Y016715D03*
X026561Y017030D03*
X028293Y017030D03*
X028923Y017660D03*
X030340Y017606D03*
X030655Y018448D03*
X031285Y018605D03*
X030970Y019235D03*
X030340Y019078D03*
X031600Y019865D03*
X032387Y016086D03*
X028765Y015456D03*
X028608Y015928D03*
X028293Y016243D03*
X023883Y012306D03*
X023411Y011834D03*
X027978Y011519D03*
X030813Y010889D03*
X033490Y011991D03*
X033805Y012306D03*
X034592Y011519D03*
X036324Y011991D03*
X036954Y013093D03*
X037269Y013408D03*
X037427Y013723D03*
X038687Y013723D03*
X037742Y011991D03*
X036954Y009944D03*
X035852Y009156D03*
X036167Y008526D03*
X037742Y008526D03*
X038687Y009156D03*
X038844Y007582D03*
X037742Y006637D03*
X037269Y007109D03*
X038057Y006164D03*
X038372Y005849D03*
X036246Y005771D03*
X035380Y005219D03*
X033805Y005219D03*
X033490Y004274D03*
X033805Y003330D03*
X035380Y003802D03*
X032545Y001597D03*
X031128Y002542D03*
X030970Y003172D03*
X029238Y003172D03*
X027978Y002385D03*
X027033Y004589D03*
X027978Y005219D03*
X025458Y006479D03*
X024986Y006007D03*
X025773Y007897D03*
X030655Y008054D03*
X033175Y008369D03*
X034592Y009786D03*
X034592Y007109D03*
X035380Y007109D03*
X031915Y006007D03*
X031285Y005219D03*
X030970Y004904D03*
X024986Y003802D03*
X021994Y004747D03*
X009238Y004274D03*
X008765Y004747D03*
X009238Y003330D03*
X006561Y013723D03*
X014907Y021755D03*
X019317Y023802D03*
X022466Y023802D03*
X024041Y024747D03*
X024041Y025692D03*
X024986Y025692D03*
X025458Y025377D03*
X026088Y024747D03*
X026561Y025062D03*
X027348Y025692D03*
X027663Y026007D03*
X026876Y026479D03*
X026561Y026164D03*
X025931Y027424D03*
X024513Y027424D03*
X027978Y028841D03*
X029710Y027424D03*
X028608Y026479D03*
X030025Y025377D03*
X029395Y025062D03*
X029080Y024747D03*
X028608Y024117D03*
X030025Y024117D03*
X030340Y024432D03*
X031285Y023645D03*
X031757Y025692D03*
X032230Y026007D03*
X030655Y026322D03*
X009395Y027739D03*
D32*
X006876Y027582D03*
X006088Y028999D03*
X003096Y027109D03*
X002781Y024589D03*
X005773Y021125D03*
X005616Y018605D03*
X003096Y018133D03*
X003096Y014826D03*
X003096Y011519D03*
X003254Y008369D03*
X008293Y011991D03*
X013332Y014826D03*
X015852Y012778D03*
X018214Y011676D03*
X019946Y011834D03*
X017742Y008999D03*
X015694Y008999D03*
X015694Y006164D03*
X017742Y006164D03*
X020576Y006164D03*
X022781Y006164D03*
X024356Y004274D03*
X034907Y002700D03*
X039789Y011834D03*
X039946Y016558D03*
X031915Y016558D03*
X030340Y014983D03*
X027978Y012149D03*
X024198Y013408D03*
X019946Y014668D03*
X019159Y014668D03*
X018687Y016873D03*
X019159Y017660D03*
X016009Y017975D03*
X015380Y017188D03*
X014907Y017975D03*
X016167Y020652D03*
X018057Y020652D03*
X018057Y023172D03*
X016167Y023172D03*
X010498Y017345D03*
X008450Y016558D03*
X024513Y019078D03*
X024513Y020495D03*
X032072Y018448D03*
X007820Y002385D03*
M02*
